<?xml version="1.0" encoding="UTF-8"?>
<svg width="31px" height="32px" viewBox="0 0 31 32" version="1.1" xmlns="http://www.w3.org/2000/svg" xmlns:xlink="http://www.w3.org/1999/xlink">
    <title>传阅 (1)</title>
    <g id="列表、左侧菜单规范" stroke="none" stroke-width="1" fill="none" fill-rule="evenodd">
        <g id="个人桌面-通知公告" transform="translate(-465.000000, -484.000000)" fill="#FFFFFF" fill-rule="nonzero">
            <g id="编组-6" transform="translate(288.000000, 460.000000)">
                <g id="编组-3" transform="translate(161.000000, 0.000000)">
                    <g id="传阅-(1)" transform="translate(16.000000, 24.000000)">
                        <path d="M25.084595,0 L2.57277898,0 C1.15775055,0 0,1.15775055 0,2.57277898 L0,27.046339 C0,28.4613674 1.15775055,29.619118 2.57277898,29.619118 L14.311083,29.619118 C14.2146038,29.4583193 14.1502844,29.2975206 14.1502844,29.1045621 L14.1502844,23.0906913 C14.1502844,22.5761355 14.568361,22.1580589 15.0829167,22.1580589 L20.9681487,22.1258992 C21.4827044,22.1258992 21.900781,21.7078226 21.900781,21.1932668 L21.900781,17.3340983 C21.900781,16.4979452 22.8655731,16.0798686 23.4766082,16.5944244 L27.657374,20.1963149 L27.657374,2.57277898 C27.657374,1.15775055 26.4996234,0 25.084595,0 L25.084595,0 Z M10.4519146,22.7690939 L6.27114876,22.7690939 C5.66011375,22.7690939 5.14555797,22.2545381 5.14555797,21.6435031 C5.14555797,21.0324681 5.66011375,20.5179123 6.27114876,20.5179123 L10.4519146,20.5179123 C11.0629496,20.5179123 11.5775054,21.0324681 11.5775054,21.6435031 C11.5775054,22.2545382 11.0629496,22.7690939 10.4519146,22.7690939 Z M16.883862,15.9190699 L6.27114876,15.9190699 C5.66011375,15.9190699 5.14555797,15.4045141 5.14555797,14.7934791 C5.14555797,14.1824441 5.66011375,13.6678883 6.27114876,13.6678883 L16.883862,13.6678883 C17.494897,13.6678883 18.0094528,14.1824441 18.0094528,14.7934791 C18.0094528,15.4045141 17.494897,15.9190699 16.883862,15.9190699 L16.883862,15.9190699 Z M22.511816,7.94345509 C22.511816,8.5544901 21.9972603,9.06904589 21.3862252,9.06904589 L6.27114876,9.06904589 C5.66011375,9.06904589 5.14555797,8.5544901 5.14555797,7.94345509 C5.14555797,7.33242009 5.66011375,6.81786427 6.27114876,6.81786427 L21.3862252,6.81786427 C21.9972602,6.81786427 22.511816,7.30026033 22.511816,7.94345509 Z" id="形状"></path>
                        <path d="M30.8090282,26.1137066 L24.7629976,20.9038292 C24.5057197,20.678711 24.1198029,20.8716694 24.1198029,21.1932668 L24.1198029,23.733886 C24.1198029,23.9590042 23.9590042,24.1198029 23.7338861,24.1198029 L16.9481815,24.1198029 C16.7230634,24.1198029 16.5622647,24.2806016 16.5622647,24.5057197 L16.5622647,28.268409 C16.5622647,28.4935271 16.7230633,28.6543258 16.9481815,28.6543258 L23.7338861,28.6543258 C23.9590042,28.6543258 24.1198029,28.8151245 24.1198029,29.0402427 L24.1198029,31.6130217 C24.1198029,31.934619 24.5057198,32.1275774 24.7629976,31.9024593 L30.8090282,26.6925819 C30.9698269,26.5639429 30.9698269,26.2745053 30.8090282,26.1137066 Z" id="路径"></path>
                    </g>
                </g>
            </g>
        </g>
    </g>
</svg>