<?xml version="1.0" encoding="UTF-8"?>
<svg width="31px" height="32px" viewBox="0 0 31 32" version="1.1" xmlns="http://www.w3.org/2000/svg" xmlns:xlink="http://www.w3.org/1999/xlink">
    <title>待办事项</title>
    <g id="列表、左侧菜单规范" stroke="none" stroke-width="1" fill="none" fill-rule="evenodd">
        <g id="个人桌面-通知公告" transform="translate(-304.000000, -484.000000)" fill="#FFFFFF" fill-rule="nonzero">
            <g id="编组-6" transform="translate(288.000000, 460.000000)">
                <g id="待办事项" transform="translate(16.000000, 24.000000)">
                    <path d="M29.0732275,18.8400538 C26.6015356,17.185397 24.0181609,16.9221445 21.3557847,18.2404659 C19.5624249,19.1287824 18.3653077,20.5950708 17.7595438,22.5001135 C17.2906815,23.9748939 17.3017468,25.475665 17.7772998,26.9553348 C18.2502795,28.4272845 19.119296,29.6285191 20.3586159,30.5497743 C21.5981932,31.4710296 22.9970601,31.9519866 24.54621,31.9995933 L24.3225869,31.9995933 C17.717341,31.9995933 11.1118379,32.001652 4.5068494,31.9965053 C3.79274791,31.9957333 3.09665979,31.8701544 2.44843576,31.5466857 C1.68209549,31.1640303 1.07169955,30.6133358 0.630114627,29.8758169 C0.296609929,29.3192037 0.0783908055,28.7260492 0.0379893882,28.0737078 C0.0276960333,27.9113301 0.00247731381,27.7494671 0.00247731381,27.5873468 C0.00067597685,19.7978505 -0.00395603331,12.0083542 0.00736665777,4.21860057 C0.00865332747,3.26697991 0.350650043,2.41031545 0.944576618,1.65864321 C1.34215745,1.15504082 1.82362912,0.748967976 2.39362365,0.463070045 C2.84781793,0.235072234 3.32826027,0.0611145369 3.84627336,0.0397558251 C4.28065293,0.0217424545 4.71503251,0.00244241414 5.14966941,0.00218507999 C11.7042205,-3.51990199e-05 18.2587715,-0.00193226154 24.8135799,0.00372908315 C25.7479592,0.0045010849 26.5953596,0.304295045 27.3398265,0.872488233 C28.0927854,1.4473721 28.6385906,2.17639896 28.8838297,3.09919822 C28.9821313,3.46847233 29.0647354,3.85575981 29.0655074,4.2348126 C29.0776021,9.02250928 29.0734848,13.810206 29.0734848,18.59816 L29.0732275,18.8400538 L29.0732275,18.8400538 Z M14.5384957,13.7963099 C17.4450818,13.7963099 20.3516679,13.7921926 23.2585113,13.8006898 C23.6810535,13.8022286 23.9847075,13.4615186 23.9811365,13.0667684 C23.9775021,12.6588942 23.6367921,12.3521522 23.1831125,12.3521522 C17.4206351,12.3516376 11.6579004,12.3516376 5.89568031,12.3536963 C5.80998813,12.3536963 5.72326661,12.3717096 5.63911844,12.390495 C5.32079644,12.4612618 5.05239721,12.8099492 5.09665864,13.1208085 C5.15172809,13.505008 5.37946856,13.7981113 5.79995211,13.7973393 C8.7127142,13.7950233 11.6254763,13.7963099 14.5384957,13.7963099 L14.5384957,13.7963099 Z M14.5418411,6.57577883 C11.6285643,6.57577883 8.71528754,6.57655083 5.80201078,6.57449216 C5.53412622,6.57423483 5.32774445,6.67999905 5.20010685,6.91108487 C5.06603591,7.15375071 5.06963858,7.4067099 5.20319486,7.65220642 C5.37380722,7.96615374 5.67463051,8.01787785 5.9867765,8.01813518 C11.6424603,8.02070852 17.2978868,8.02019385 22.9533133,8.01839252 C23.0897003,8.01839252 23.2263446,7.99343113 23.3627315,7.98262311 C23.7819284,7.94891237 24.0243369,7.55158887 23.9787888,7.19106412 C23.936586,6.85472875 23.6568641,6.56831615 23.2438433,6.57010903 C20.3431759,6.58092551 17.4425085,6.57577883 14.5418411,6.57577883 Z M10.1766866,19.6107688 C11.6324243,19.6107688 13.0879047,19.6030487 14.5431277,19.6159154 C14.9409659,19.6195181 15.2700959,19.2808667 15.2708696,18.9146806 C15.2716399,18.5008878 15.0094167,18.1699564 14.5323197,18.1691844 C11.633711,18.1642951 8.73561692,18.1660964 5.83726552,18.1673831 C5.4116353,18.1676404 5.09794531,18.4810731 5.09820248,18.8966673 C5.09845997,19.2767494 5.43119267,19.6197755 5.8287735,19.6161728 C7.27807787,19.6025341 8.72738223,19.6107688 10.1766866,19.6107688 L10.1766866,19.6107688 Z M9.44379973,25.4252276 C10.6527543,25.4252276 11.8619661,25.4193089 13.0709207,25.4283156 C13.4746775,25.4314036 13.7991755,25.0863189 13.8071529,24.7227061 C13.8166742,24.2788052 13.4376214,23.9764379 13.07195,23.9774646 C10.666393,23.9841579 8.26109326,23.9818419 5.85553622,23.9800406 C5.42038465,23.9795259 5.09228396,24.2945026 5.09923198,24.7116408 C5.10643732,25.138815 5.44071402,25.4262569 5.85450689,25.4254849 C7.05085206,25.4239409 8.24745456,25.4252276 9.44379973,25.4252276 Z" id="形状"></path>
                    <path d="M30.5171278,24.7046928 C30.5171278,27.8753034 27.902101,30.6218278 24.4836779,30.5134902 C21.5366904,30.4198207 18.7785859,27.9416955 18.8941288,24.4643429 C18.9911437,21.5340821 21.4620635,18.7767497 24.9427615,18.8956379 C27.9193424,18.9972848 30.4983424,21.455338 30.5171278,24.7046928 Z M25.4250052,24.7034061 C25.4250052,23.4764382 25.4316958,22.280093 25.4219172,21.0840052 C25.4177998,20.5842628 25.0956178,20.3410823 24.6820823,20.3441413 C24.2685467,20.3475156 23.9829061,20.6534856 23.9821341,21.0878652 C23.9793035,22.5376842 23.9805901,23.9875033 23.9811048,25.4373223 C23.9813621,25.8423658 24.2829574,26.1467918 24.6859423,26.1470491 C25.6733323,26.1478211 26.6612371,26.1473064 27.6488845,26.1470491 C27.6995793,26.1470491 27.7528474,26.1524531 27.7999395,26.1385571 C28.1746176,26.0273889 28.3871754,25.6689228 28.3099752,25.2528139 C28.2549057,24.9561079 27.9759558,24.6982594 27.586867,24.7018621 C26.9412163,24.7072661 26.2953083,24.7031488 25.6496576,24.7031488 L25.4250052,24.7034061 L25.4250052,24.7034061 Z" id="形状"></path>
                </g>
            </g>
        </g>
    </g>
</svg>