<?xml version="1.0" encoding="UTF-8"?>
<svg width="29px" height="32px" viewBox="0 0 29 32" version="1.1" xmlns="http://www.w3.org/2000/svg" xmlns:xlink="http://www.w3.org/1999/xlink">
    <title>tracking</title>
    <g id="列表、左侧菜单规范" stroke="none" stroke-width="1" fill="none" fill-rule="evenodd">
        <g id="个人桌面-通知公告" transform="translate(-626.000000, -486.000000)" fill="#FFFFFF" fill-rule="nonzero">
            <g id="编组-6" transform="translate(288.000000, 460.000000)">
                <g id="编组-3" transform="translate(322.000000, 0.000000)">
                    <g id="tracking" transform="translate(16.000000, 26.000000)">
                        <path d="M4.61003571,24.8015 L3.72160714,25.05925 L3.20542857,24.76125 L3.14439286,26.8461071 L3.51507143,27.0601071 L5.34403571,25.9959643 L4.83103571,25.6997857 L4.61003571,24.8015 L4.61003571,24.8015 Z M26.2857143,0 L2.28571429,0 C1.02335714,0 0,1.02335714 0,2.28571429 L0,29.7142857 C0,30.9766429 1.02335714,32 2.28571429,32 L26.2857143,32 C27.5480714,32 28.5714286,30.9766429 28.5714286,29.7142857 L28.5714286,2.28571429 C28.5714286,1.02335714 27.5480714,0 26.2857143,0 Z M14.2676071,3.45485714 C14.5831071,2.90839286 15.282,2.72121429 15.8286429,3.03682143 L17.8081429,4.17967857 C18.35475,4.49528571 18.5421071,5.19410714 18.2266071,5.74057143 L17.6553214,6.73007143 L13.6963571,4.44435714 L14.2676071,3.45485714 L14.2676071,3.45485714 Z M13.1250357,5.43382143 L17.084,7.71953571 L16.5127143,8.709 L12.55375,6.42328571 L13.1250357,5.43382143 Z M6.07014286,26.6032143 L3.20203571,28.1046071 C2.85114286,28.2882857 2.42839286,28.0441786 2.41203571,27.6485 L2.27825,24.4139643 C2.273382,24.2963826 2.30204385,24.1798401 2.36089286,24.0779286 L11.9825,7.41278571 L15.9414643,9.6985 L6.31985714,26.3636429 C6.26099693,26.4655451 6.17439684,26.5486277 6.07014286,26.6032143 Z M25.1428571,29.7142857 L10.8571429,29.7142857 C10.2259643,29.7142857 9.71428571,29.2026071 9.71428571,28.5714286 C9.71428571,27.94025 10.2259643,27.4285714 10.8571429,27.4285714 L25.1428571,27.4285714 C25.7740357,27.4285714 26.2857143,27.94025 26.2857143,28.5714286 C26.2857143,29.2026071 25.7740357,29.7142857 25.1428571,29.7142857 Z M25.1428571,25.1428571 L13.1428571,25.1428571 C12.5116786,25.1428571 12,24.6311786 12,24 C12,23.3688214 12.5116786,22.8571429 13.1428571,22.8571429 L25.1428571,22.8571429 C25.7740357,22.8571429 26.2857143,23.3688214 26.2857143,24 C26.2857143,24.6311786 25.7740357,25.1428571 25.1428571,25.1428571 Z M25.1428571,20.5714286 L15.4285714,20.5714286 C14.7973929,20.5714286 14.2857143,20.05975 14.2857143,19.4285714 C14.2857143,18.7973929 14.7973929,18.2857143 15.4285714,18.2857143 L25.1428571,18.2857143 C25.7740357,18.2857143 26.2857143,18.7973929 26.2857143,19.4285714 C26.2857143,20.05975 25.7740357,20.5714286 25.1428571,20.5714286 Z" id="形状"></path>
                    </g>
                </g>
            </g>
        </g>
    </g>
</svg>