<?xml version="1.0" encoding="UTF-8"?>
<svg width="16px" height="16px" viewBox="0 0 16 16" version="1.1" xmlns="http://www.w3.org/2000/svg" xmlns:xlink="http://www.w3.org/1999/xlink">
    <title>通知、公告</title>
    <g id="列表、左侧菜单规范" stroke="none" stroke-width="1" fill="none" fill-rule="evenodd">
        <g id="个人桌面-通知公告" transform="translate(-956.000000, -113.000000)" fill="#333333" fill-rule="nonzero">
            <g id="信息发布" transform="translate(940.000000, 100.000000)">
                <g id="通知、公告" transform="translate(16.000000, 13.000000)">
                    <path d="M0,11.1711962 L0.00186502879,11.2457971 C0.0415224977,11.9883164 0.655189685,12.5700303 1.39876722,12.5699634 L3.07654187,12.5699634 L8.31539138,15.8441978 C8.63159355,16.0417304 9.0300776,16.0521405 9.35616222,15.8713872 C9.68224684,15.6906338 9.8846217,15.347182 9.8846217,14.9743511 L9.8846217,1.02584431 C9.8846217,0.834112345 9.83084557,0.646223778 9.7294518,0.483495627 L9.69215133,0.427544939 C9.37693014,-0.0114299152 8.77519087,-0.130537739 8.3165104,0.155251592 L3.05677264,3.43135092 L1.39876722,3.43135092 C0.626249417,3.43135092 0,4.05760033 0,4.83011814 L0,11.1711962 Z M1.30551608,11.1711962 L1.30551608,4.83011814 C1.30551608,4.8053864 1.31534073,4.78166761 1.33282871,4.76417962 C1.35031669,4.74669164 1.37403548,4.736867 1.39876722,4.736867 L3.26379019,4.736867 L3.3227249,4.73425597 C3.43991286,4.72359162 3.55203884,4.68144771 3.6472389,4.61228347 L3.70505462,4.56528489 L8.57910564,1.52977351 L8.57910564,14.4693028 L3.60993845,11.3636666 C3.5061405,11.2987933 3.38619344,11.2644119 3.26379019,11.2644474 L1.39876722,11.2644474 C1.34726604,11.2644474 1.30551608,11.2226974 1.30551608,11.1711962 Z M14.7243563,7.34715314 C15.0742949,7.34731059 15.361857,7.6233896 15.376267,7.97303148 C15.3906769,8.32267335 15.1268079,8.62147877 14.7780689,8.65043118 L14.7243563,8.6526692 L12.1133241,8.6526692 C11.7633855,8.65251176 11.4758234,8.37643274 11.4614135,8.02679087 C11.4470035,7.677149 11.7108725,7.37834357 12.0596115,7.34939117 L12.1133241,7.34715314 L14.7243563,7.34715314 Z M13.319994,2.43356364 C13.5787831,2.20041322 13.9750426,2.21153431 14.2203478,2.45883224 C14.465653,2.70613016 14.4735678,3.10246674 14.2383313,3.35936104 L14.1935708,3.40374859 L12.2532009,5.15090209 C11.9944118,5.38405252 11.5981522,5.37293142 11.352847,5.1256335 C11.1075418,4.87833558 11.099627,4.481999 11.3348636,4.2251047 L11.3796241,4.18034415 L13.319994,2.43356364 L13.319994,2.43356364 Z M13.319994,13.5662587 C13.5787831,13.7994091 13.9750426,13.788288 14.2203478,13.5409901 C14.465653,13.2936922 14.4735678,12.8973556 14.2383313,12.6404613 L14.1935708,12.5960738 L12.2532009,10.8489203 C11.9944118,10.6157698 11.5981522,10.6268909 11.352847,10.8741888 C11.1075418,11.1214868 11.099627,11.5178233 11.3348636,11.7747176 L11.3796241,11.8194782 L13.319994,13.5662587 L13.319994,13.5662587 Z" id="形状"></path>
                </g>
            </g>
        </g>
    </g>
</svg>