<?xml version="1.0" encoding="UTF-8"?>
<svg width="16px" height="14px" viewBox="0 0 16 14" version="1.1" xmlns="http://www.w3.org/2000/svg" xmlns:xlink="http://www.w3.org/1999/xlink">
    <title>通知公告</title>
    <g id="列表、左侧菜单规范" stroke="none" stroke-width="1" fill="none" fill-rule="evenodd">
        <g id="个人桌面-通知公告" transform="translate(-296.000000, -115.000000)" fill="#333333" fill-rule="nonzero">
            <g id="通知公告" transform="translate(296.000000, 115.000000)">
                <path d="M3.72192513,4.27807487 C3.43839927,4.27807487 3.20855615,4.50791799 3.20855615,4.79144385 C3.20855615,5.07496971 3.43839927,5.30481283 3.72192513,5.30481283 L12.2780749,5.30481283 C12.5616007,5.30481283 12.7914439,5.07496971 12.7914439,4.79144385 C12.7914439,4.50791799 12.5616007,4.27807487 12.2780749,4.27807487 L3.72192513,4.27807487 Z M3.72192513,6.95187166 C3.43839927,6.95187166 3.20855615,7.18171478 3.20855615,7.46524064 C3.20855615,7.7487665 3.43839927,7.97860963 3.72192513,7.97860963 L9.06951872,7.97860963 C9.35304458,7.97860963 9.5828877,7.7487665 9.5828877,7.46524064 C9.5828877,7.18171478 9.35304458,6.95187166 9.06951872,6.95187166 L3.72192513,6.95187166 Z" id="形状"></path>
                <path d="M1.04812834,0 C0.469304813,0 0,0.469304813 0,1.04812834 L0,10.6737968 C0,11.2526203 0.469304813,11.7219251 1.04812834,11.7219251 L6.1831016,11.7219251 L7.63696257,13.1758717 C7.73324043,13.2721658 7.86383101,13.3262647 8,13.3262647 C8.13616899,13.3262647 8.26675957,13.2721658 8.36303743,13.1758717 L9.8168984,11.7219251 L14.9518717,11.7219251 C15.5306952,11.7219251 16,11.2526203 16,10.6737968 L16,1.04812834 C16,0.469304813 15.5306952,0 14.9518717,0 L1.04812834,0 Z M1.02673797,1.04812834 C1.02673797,1.03631476 1.03631476,1.02673797 1.04812834,1.02673797 L14.9518717,1.02673797 C14.9636852,1.02673797 14.973262,1.03631476 14.973262,1.04812834 L14.973262,10.6737968 C14.973262,10.6856104 14.9636852,10.6951872 14.9518717,10.6951872 L9.60427807,10.6951872 C9.46812352,10.695199 9.33754453,10.749271 9.24124064,10.8455187 L8,12.0868449 L6.75875936,10.8455187 C6.66247143,10.7492471 6.53188209,10.6951709 6.39572193,10.6951872 L1.04812834,10.6951872 C1.03631476,10.6951872 1.02673797,10.6856104 1.02673797,10.6737968 L1.02673797,1.04812834 Z" id="形状"></path>
            </g>
        </g>
    </g>
</svg>