<?xml version="1.0" encoding="UTF-8"?>
<svg width="12px" height="12px" viewBox="0 0 12 12" version="1.1" xmlns="http://www.w3.org/2000/svg" xmlns:xlink="http://www.w3.org/1999/xlink">
    <title>一键审批</title>
    <g id="列表、左侧菜单规范">
        <g id="消防工作桌面" transform="translate(-964.000000, -205.000000)">
            <g id="三公经费比较" transform="translate(280.000000, 100.000000)">
                <g id="编组-5" transform="translate(678.000000, 99.000000)">
                    <path d="M17.1859842,6.14455169 C17.3048565,6.02147418 17.4808883,5.97211374 17.6464218,6.0154421 C17.8119553,6.05877046 17.9412295,6.18804472 17.9845579,6.3535782 C18.0278863,6.51911169 17.9785258,6.69514354 17.8554483,6.81401577 L11.160334,13.5092879 C10.975423,13.6941989 10.6756231,13.6941989 10.4907121,13.5092879 C10.3058011,13.3243769 10.3058011,13.024577 10.4907121,12.839666 L17.1859842,6.14470949 L17.1859842,6.14455169 Z M17.0472622,11.0560066 C17.0472622,10.7945252 17.2592348,10.5825525 17.5207163,10.5825525 C17.7821977,10.5825525 17.9941704,10.7945252 17.9941704,11.0560066 L17.9941704,16.2640017 C17.9941704,17.2227462 17.2169166,18 16.258172,18 L7.73599834,18 C6.7772538,18 6,17.2227462 6,16.2640017 L6,7.74182798 C6,6.78308344 6.7772538,6.00582964 7.73599834,6.00582964 L12.7861753,6.00582964 C13.0476568,6.00582964 13.2596294,6.21780226 13.2596294,6.47928373 C13.2596294,6.74076521 13.0476568,6.95273782 12.7861753,6.95273782 L7.73599834,6.95273782 C7.30019588,6.95273782 6.94690819,7.30602552 6.94690819,7.74182798 L6.94690819,16.2640017 C6.94690819,16.6998041 7.30019588,17.0530918 7.73599834,17.0530918 L16.258172,17.0530918 C16.6939745,17.0530918 17.0472622,16.6998041 17.0472622,16.2640017 L17.0472622,11.0560066 Z" id="形状"></path>
                </g>
            </g>
        </g>
    </g>
</svg>