<?xml version="1.0" encoding="UTF-8"?>
<svg width="12px" height="12px" viewBox="0 0 12 12" version="1.1" xmlns="http://www.w3.org/2000/svg" xmlns:xlink="http://www.w3.org/1999/xlink">
    <title>刷新</title>
    <g id="列表、左侧菜单规范">
        <g id="消防工作桌面" transform="translate(-996.000000, -205.000000)">
            <g id="三公经费比较" transform="translate(280.000000, 100.000000)">
                <g id="编辑-(1)" transform="translate(710.000000, 99.000000)">
                    <g id="刷新-(3)" transform="translate(6.000000, 6.000000)">
                        <path d="M11.7148409,2.14957941 C11.4911427,2.06886357 11.2443829,2.18647808 11.1659732,2.41017625 L10.8338852,3.34186764 C10.444143,2.46321809 9.8283965,1.69065222 9.04429979,1.11180435 C6.55133349,-0.733129077 2.99983662,-0.230384717 1.13184152,2.23721375 C0.227824132,3.43180814 -0.154999551,4.90314256 0.0571677919,6.37908931 C0.269335135,7.86195456 1.05573801,9.17416347 2.26647558,10.0712623 C3.28118897,10.8207666 4.46886487,11.1851409 5.6473161,11.1851409 C7.3700227,11.1851409 9.06966762,10.412575 10.1789338,8.94815912 C10.6701474,8.30012625 11.0045416,7.57598987 11.1775041,6.79189317 C11.2282397,6.55897033 11.0806451,6.33065981 10.8500284,6.27992414 C10.6194117,6.22918847 10.388795,6.37447698 10.3380593,6.60739983 C10.1927708,7.2692697 9.90911231,7.88271006 9.4940023,8.42927159 C7.90966572,10.5209649 4.89550572,10.9476057 2.7784446,9.37941231 C1.75220038,8.62068344 1.08802434,7.5114172 0.908143328,6.25686247 C0.728262313,5.00922623 1.05112567,3.76620234 1.81677305,2.75610128 C3.39880347,0.664408 6.41065731,0.23546097 8.53002459,1.80365439 C9.29797813,2.37097142 9.87221366,3.1573743 10.1835462,4.0452485 L8.70529326,3.4687068 C8.48390124,3.38337863 8.23483523,3.49176847 8.14720089,3.71316048 C8.05956655,3.9345525 8.17026256,4.18361852 8.39165457,4.27125285 L10.568676,5.1222284 C10.6194117,5.1429839 10.6724535,5.15220856 10.7254954,5.15220856 C10.7324139,5.15220856 10.7393324,5.1499024 10.7462509,5.1499024 C10.762394,5.15220856 10.7785372,5.15912706 10.7946804,5.15912706 C10.9722552,5.15912706 11.1382992,5.04843106 11.2005657,4.87316237 L11.9754378,2.70536559 C12.0538474,2.4770551 11.9385391,2.23029525 11.7148409,2.14957941 Z" id="路径"></path>
                    </g>
                </g>
            </g>
        </g>
    </g>
</svg>