<?xml version="1.0" encoding="UTF-8"?>
<svg width="40px" height="40px" viewBox="0 0 40 40" version="1.1" xmlns="http://www.w3.org/2000/svg" xmlns:xlink="http://www.w3.org/1999/xlink">
    <title>路径</title>
    <g id="页面-1" stroke="none" stroke-width="1" fill="none" fill-rule="evenodd">
        <g id="消防工作桌面" transform="translate(-1069.000000, -420.000000)" fill="#21418A" fill-rule="nonzero">
            <g id="分类" transform="translate(1028.000000, 68.000000)">
                <g id="编组-8" transform="translate(17.000000, 224.000000)">
                    <g id="添加2" transform="translate(24.000000, 128.000000)">
                        <path d="M22.2202247,2.22022472 C22.2202247,0.997752809 21.2224719,0 20,0 C18.7775281,0 17.7797753,0.997752809 17.7797753,2.22022472 L17.7797753,17.7797753 L2.22022472,17.7797753 C0.997752809,17.7797753 0,18.7775281 0,20 C0,21.2224719 0.997752809,22.2202247 2.22022472,22.2202247 L17.7797753,22.2202247 L17.7797753,37.7797753 C17.7797753,39.0022472 18.7775281,40 20,40 C21.2224719,40 22.2202247,39.0022472 22.2202247,37.7797753 L22.2202247,22.2202247 L37.7797753,22.2202247 C39.0022472,22.2202247 40,21.2224719 40,20 C40,18.7775281 39.0022472,17.7797753 37.7797753,17.7797753 L22.2202247,17.7797753 L22.2202247,2.22022472 Z" id="路径"></path>
                    </g>
                </g>
            </g>
        </g>
    </g>
</svg>