<?xml version="1.0" encoding="UTF-8"?>
<svg width="120px" height="90px" viewBox="0 0 120 90" version="1.1" xmlns="http://www.w3.org/2000/svg" xmlns:xlink="http://www.w3.org/1999/xlink">
    <title>位图</title>
    <defs>
        <rect id="path-1" x="0" y="0" width="120" height="90" rx="4"></rect>
    </defs>
    <g id="列表、左侧菜单规范" stroke="none" stroke-width="1" fill="none" fill-rule="evenodd">
        <g id="资讯通知栏" transform="translate(-75.000000, -302.000000)">
            <g id="位图" transform="translate(75.000000, 302.000000)">
                <mask id="mask-2" fill="white">
                    <use xlink:href="#path-1"></use>
                </mask>
                <use id="蒙版" fill="#EBEBEB" xlink:href="#path-1"></use>
                <g id="暂无图片-(2)" mask="url(#mask-2)" fill="#999999" fill-rule="nonzero">
                    <g transform="translate(33.000000, 21.000000)" id="形状">
                        <path d="M48,0 L6.85701562,0 C3.08582812,0 0,3.085875 0,6.8570625 L0,41.1429844 C0,44.9145 3.08582812,48 6.85701562,48 L48.0000469,48 C51.7715156,48 54.8573437,44.9145469 54.8573437,41.1429844 L54.8573437,6.8570625 C54.8573437,3.08582812 51.7716562,0 48,0 Z M6.85701562,3.42871875 L48.0000469,3.42871875 C49.7143594,3.42871875 51.4288125,5.14265625 51.4288125,6.8570625 L51.4288125,37.5881719 L42.9285,26.7427969 C41.8999687,25.0285781 39.8428594,25.0285781 38.4714844,26.4 L28.8713906,36.0001406 L18.9286406,23.3144531 C17.9000156,21.9431719 16.1856562,21.9431719 14.8142812,23.3144531 L3.42871875,37.0354687 L3.42871875,6.8570625 C3.42871875,4.80014062 4.80004688,3.42871875 6.85701562,3.42871875 Z"></path>
                        <path d="M12.2357344,13.4521875 L12.2957344,13.9635938 C12.9148594,13.9160313 13.5164687,13.8734375 14.1005625,13.8358125 L14.1005625,14.4074063 L14.6268281,14.4074063 L14.6268281,13.8057188 C15.0154219,13.783125 15.3964375,13.7630937 15.769875,13.745625 C15.7799375,13.59525 15.795,13.4323438 15.8150625,13.2569063 C15.4416562,13.2844062 15.045625,13.3107031 14.6269687,13.3357969 L14.6269687,12.7757812 L15.83775,12.7757812 L15.83775,12.3245625 L14.6269687,12.3245625 L14.6269687,11.7679687 L14.10075,11.7679687 L14.10075,12.3245625 L13.1680781,12.3245625 L13.1685937,12.3241406 C13.3339062,12.0484531 13.494375,11.7651719 13.65,11.4742969 L15.9134062,11.4742969 L15.9134062,11.0230781 L13.8829687,11.0230781 C13.9831562,10.8274844 14.0809062,10.6294531 14.1762188,10.4289844 L13.6574531,10.2560625 C13.5419531,10.5268125 13.4252812,10.7825 13.3074375,11.023125 L12.2885156,11.023125 L12.2885156,11.4743437 L13.0778906,11.4743437 C12.9193288,11.7636641 12.7462003,12.0447593 12.5591719,12.3165469 L12.5591719,12.7752188 L14.1006094,12.7752188 L14.1006094,13.3656094 C13.5190469,13.3982969 12.8973906,13.4271719 12.2356406,13.4522344 L12.2357344,13.4521875 Z M13.3866094,17.7541875 L13.927875,17.7541875 L13.927875,17.42325 L17.98125,17.42325 L17.98125,17.7541875 L18.5225156,17.7541875 L18.5225156,14.5656094 L13.3866094,14.5656094 L13.3866094,17.7541875 Z M13.9275469,15.0318281 L17.9809219,15.0318281 L17.9809219,15.7687969 L13.9275,15.7687969 L13.9275469,15.0318281 Z M13.9275469,16.2125625 L17.9809219,16.2125625 L17.9809219,16.9570781 L13.9275,16.9570781 L13.9275469,16.2125625 Z"></path>
                        <path d="M16.3115625,12.1140937 C16.3115625,12.9713125 16.0859375,13.6330625 15.6346875,14.0993437 C15.795125,14.2346562 15.9355,14.36 16.0558125,14.475375 C16.4544687,14.0217812 16.700125,13.4527656 16.7927812,12.7683281 L18.0035625,12.7683281 L18.0035625,14.3474531 L18.5297812,14.3474531 L18.5297812,12.7683281 L19.6051875,12.7683281 L19.6051875,12.3170156 L16.8303281,12.3170156 L16.8303281,11.3619375 C17.6525156,11.3217812 18.5374062,11.2490781 19.485,11.1438281 L19.3119375,10.6475625 C18.3201487,10.8130925 17.3169757,10.9011399 16.3115156,10.9109062 L16.3116094,10.9109062 L16.3115625,12.1140937 Z M26.6668594,16.5509531 C26.6216406,16.8468906 26.4285781,16.9948125 26.0876719,16.9947187 L25.0573594,16.9947187 C24.6914844,16.9947187 24.5085,16.7966875 24.5084062,16.400625 L24.5084062,14.4229687 L23.8993125,14.4229687 L23.8997812,14.4231562 L23.8997812,16.4908125 C23.8997812,17.18275 24.2281719,17.5286875 24.8849531,17.528625 L26.1857812,17.528625 C26.8325312,17.528625 27.1885312,17.2779062 27.2537812,16.7764687 C27.2938437,16.5257812 27.3389531,16.1522812 27.3891094,15.6559687 C27.1582969,15.5806875 26.9476719,15.5079844 26.7572344,15.4378594 C26.7371719,15.8942031 26.7070469,16.26525 26.6668594,16.551 L26.6668594,16.5509531 Z"></path>
                        <path d="M19.9435781,17.2880625 C20.0911049,17.4564351 20.226804,17.6348142 20.3497031,17.8219219 C22.0643906,16.8894219 23.1121719,15.5758906 23.4930469,13.8813281 L27.2982656,13.8813281 L27.2982656,13.2947812 L23.6210625,13.2947812 C23.7227532,12.7178912 23.7880851,12.13518 23.8166719,11.5500937 L26.7269531,11.5500937 L26.7269531,10.9635469 L20.6205938,10.9635469 L20.6205938,11.5500937 L23.1850313,11.5500937 C23.170986,12.1358752 23.1080803,12.7194628 22.9969688,13.2947812 L20.0491406,13.2947812 L20.0489531,13.294875 L20.0489531,13.8815625 L22.8614531,13.8815625 C22.4101719,15.405625 21.4375469,16.541125 19.9435781,17.2880625 L19.9435781,17.2880625 Z M33.3970312,12.3698906 L33.3970312,11.926125 L30.7350937,11.926125 C30.842875,11.7931875 30.9431406,11.6578125 31.0358906,11.52 L30.5396719,11.2869375 C30.0877779,11.9697394 29.5142342,12.5636687 28.847625,13.039125 C28.9930625,13.1795313 29.115875,13.3023438 29.2160625,13.4075625 C29.486905,13.1980153 29.7467212,12.9745915 29.9944687,12.7381875 C30.2569497,13.0603288 30.5646703,13.3427875 30.9080625,13.5767813 C30.3339062,13.8099688 29.6069375,14.0167813 28.7271563,14.1972188 C28.8259711,14.3500722 28.9115329,14.5110964 28.9829062,14.6785313 C29.998125,14.415375 30.8127812,14.1459219 31.426875,13.8701719 C32.1583317,14.1621201 32.9129531,14.3922995 33.6828281,14.5582969 C33.7517543,14.3644726 33.8347082,14.1759268 33.9310312,13.9941563 C33.2712339,13.9173476 32.6202992,13.7775858 31.987125,13.5767813 C32.518713,13.2526116 32.994751,12.8451194 33.3970312,12.3698906 L33.3970312,12.3698906 Z M31.411875,13.3396406 C30.9845068,13.1126765 30.6092591,12.7989456 30.3101719,12.4185469 C30.3183281,12.4103415 30.3258939,12.4015697 30.3328125,12.3922969 L32.6525156,12.3922969 L32.6526562,12.3920625 L32.6526562,12.39225 L32.6525156,12.39225 C32.3443281,12.7455938 31.9307656,13.0613906 31.4118281,13.3396406 L31.411875,13.3396406 Z"></path>
                        <path d="M28.5914062,17.3706562 L34.0962187,17.3706562 L34.0962187,17.7316875 L34.6603125,17.7316875 L34.6603125,10.6553906 L28.0273594,10.6553906 L28.0273594,17.7316875 L28.5915,17.7316875 L28.5914062,17.3706562 Z M28.5916875,11.1966563 L34.0964531,11.1966563 L34.0964531,16.8292031 L28.5916875,16.8292031 L28.5916875,11.1966563 Z"></path>
                        <path d="M29.3888906,15.9494063 L29.3890313,15.9494531 C30.6625,16.1251094 31.853125,16.3357344 32.9609063,16.5813281 L33.1639219,16.0097344 C32.0057969,15.7889219 30.8000625,15.595875 29.5467188,15.4305937 L29.3888906,15.9494063 Z M32.6524219,14.8215938 C31.8404531,14.68125 31.0659219,14.5558906 30.3288281,14.4455156 L30.1785469,14.9492813 C30.9004844,15.0494375 31.6725156,15.1822969 32.4946406,15.3478594 L32.6524219,14.8215938 Z M37.3000781,15.0245625 L40.4059219,15.0245625 L40.4059219,17.7317344 L41.0525156,17.7317344 L41.0525156,14.4528281 L37.3451719,14.4528281 C37.3602969,13.8913906 37.3678437,13.4502187 37.3678125,13.1293125 L42.7447969,13.1293125 L42.7447969,12.5651719 L40.7293125,12.5651719 L40.7293125,10.3917656 L40.090125,10.3917656 L40.090125,12.5651719 L37.3677187,12.5651719 L37.3677187,10.5273281 L36.7285312,10.5273281 L36.7286719,10.5275156 L36.7286719,13.6482656 C36.7286719,14.6209844 36.6509844,15.3278906 36.4956094,15.7689844 C36.3401406,16.2603594 36.0317656,16.7491875 35.5704844,17.2354687 C35.7420141,17.4008948 35.9004285,17.579401 36.0442969,17.769375 C36.7812656,17.0224687 37.1998594,16.1075312 37.3000781,15.0245625 L37.3000781,15.0245625 Z"></path>
                    </g>
                </g>
            </g>
        </g>
    </g>
</svg>