<?xml version="1.0" encoding="UTF-8"?>
<svg width="9px" height="9px" viewBox="0 0 9 9" version="1.1" xmlns="http://www.w3.org/2000/svg" xmlns:xlink="http://www.w3.org/1999/xlink">
    <title>路径</title>
    <g id="页面-1" stroke="none" stroke-width="1" fill="none" fill-rule="evenodd">
        <g id="消防工作桌面" transform="translate(-1124.000000, -85.000000)" fill="#21418A" fill-rule="nonzero">
            <g id="分类" transform="translate(1028.000000, 68.000000)">
                <g id="编组-8" transform="translate(17.000000, 12.000000)">
                    <g id="关闭-(7)" transform="translate(78.000000, 0.000000)">
                        <path d="M1.82610292,5.11963777 L1.85360293,5.14488777 L5.25110293,8.54263777 L8.52360292,5.27013777 C8.71349296,5.07840142 9.02126911,5.07193886 9.21904024,5.25553525 C9.41681136,5.43913165 9.43321401,5.74653835 9.25610293,5.95013776 L9.23110292,5.97763777 L5.95810292,9.24963777 L9.23085292,12.5221378 C9.42279108,12.7119372 9.42942806,13.0198199 9.24584736,13.2177144 C9.06226666,13.4156089 8.7547523,13.4320629 8.55110293,13.2548878 L8.52360292,13.2293878 L5.25110293,9.95688777 L1.85360293,13.3548878 C1.66348266,13.5450566 1.35700334,13.5507979 1.15989402,13.3678832 C0.962784701,13.1849684 0.945646866,12.8789148 1.12110292,12.6751378 L1.14635293,12.6476378 L4.54410292,9.24963777 L1.14660292,5.85213777 C0.957811626,5.66182652 0.952695479,5.3564909 1.13500495,5.15996156 C1.31731442,4.96343222 1.62217441,4.94564442 1.82610292,5.11963777 L1.82610292,5.11963777 Z" id="路径"></path>
                    </g>
                </g>
            </g>
        </g>
    </g>
</svg>