<?xml version="1.0" encoding="UTF-8"?>
<svg width="18px" height="18px" viewBox="0 0 18 18" version="1.1" xmlns="http://www.w3.org/2000/svg" xmlns:xlink="http://www.w3.org/1999/xlink">
    <title>常用应用</title>
    <g id="页面-1" stroke="none" stroke-width="1" fill="none" fill-rule="evenodd">
        <g id="常用应用" fill="#FFFFFF" fill-rule="nonzero">
            <path d="M7,0 L1.4,0 C0.628,0 0,0.628 0,1.4 L0,7 C0,7.772 0.628,8.4 1.4,8.4 L7,8.4 C7.772,8.4 8.4,7.772 8.4,7 L8.4,1.4 C8.4,0.628 7.772,0 7,0 Z M7.2,7 C7.2,7.112 7.112,7.2 7,7.2 L1.4,7.2 C1.288,7.2 1.2,7.112 1.2,7 L1.2,1.4 C1.2,1.288 1.288,1.2 1.4,1.2 L7,1.2 C7.112,1.2 7.2,1.288 7.2,1.4 L7.2,7 Z M16.6,0 L11,0 C10.228,0 9.6,0.628 9.6,1.4 L9.6,7 C9.6,7.772 10.228,8.4 11,8.4 L16.6,8.4 C17.372,8.4 18,7.772 18,7 L18,1.4 C18,0.628 17.372,0 16.6,0 L16.6,0 Z M16.8,7 C16.8,7.112 16.712,7.2 16.6,7.2 L11,7.2 C10.888,7.2 10.8,7.112 10.8,7 L10.8,1.4 C10.8,1.288 10.888,1.2 11,1.2 L16.6,1.2 C16.712,1.2 16.8,1.288 16.8,1.4 L16.8,7 Z M7,9.6 L1.4,9.6 C0.628,9.6 0,10.228 0,11 L0,16.6 C0,17.372 0.628,18 1.4,18 L7,18 C7.772,18 8.4,17.372 8.4,16.6 L8.4,11 C8.4,10.228 7.772,9.6 7,9.6 Z M7.2,16.6 C7.2,16.712 7.112,16.8 7,16.8 L1.4,16.8 C1.288,16.8 1.2,16.712 1.2,16.6 L1.2,11 C1.2,10.888 1.288,10.8 1.4,10.8 L7,10.8 C7.112,10.8 7.2,10.888 7.2,11 L7.2,16.6 Z M16.6,9.6 L11,9.6 C10.228,9.6 9.6,10.228 9.6,11 L9.6,16.6 C9.6,17.372 10.228,18 11,18 L16.6,18 C17.372,18 18,17.372 18,16.6 L18,11 C18,10.228 17.372,9.6 16.6,9.6 L16.6,9.6 Z M16.8,16.6 C16.8,16.712 16.712,16.8 16.6,16.8 L11,16.8 C10.888,16.8 10.8,16.712 10.8,16.6 L10.8,11 C10.8,10.888 10.888,10.8 11,10.8 L16.6,10.8 C16.712,10.8 16.8,10.888 16.8,11 L16.8,16.6 Z" id="形状"></path>
        </g>
    </g>
</svg>