<?xml version="1.0" encoding="UTF-8"?>
<svg width="20px" height="20px" viewBox="0 0 20 20" version="1.1" xmlns="http://www.w3.org/2000/svg" xmlns:xlink="http://www.w3.org/1999/xlink">
    <title>编组 12</title>
    <g id="列表、左侧菜单规范" stroke="none" stroke-width="1" fill="none" fill-rule="evenodd">
        <g id="编组-12">
            <rect id="矩形" fill="#CDCBCB" x="0" y="0" width="19.8666881" height="19.8666881" rx="4"></rect>
            <path d="M7.58331992,7.3237761 L9.54999195,7.3237761 C11.2068462,7.3237761 12.549992,8.66692185 12.549992,10.3237761 L12.549992,24.7071282 C12.549992,26.0786368 11.4381645,27.1904642 10.0666559,27.1904642 C8.69514733,27.1904642 7.58331992,26.0786368 7.58331992,24.7071282 L7.58331992,7.3237761 L7.58331992,7.3237761 Z" id="矩形" fill="#B7B7B7" transform="translate(10.066656, 17.257120) scale(1, -1) rotate(-90.000000) translate(-10.066656, -17.257120) "></path>
            <path d="M14.9000161,0 L16.8666881,0 C18.5235424,-7.48448398e-16 19.8666881,1.34314575 19.8666881,3 L19.8666881,17.3833521 C19.8666881,18.7548607 18.7548607,19.8666881 17.3833521,19.8666881 C16.0118435,19.8666881 14.9000161,18.7548607 14.9000161,17.3833521 L14.9000161,0 L14.9000161,0 Z" id="矩形" fill="#FFFFFF" opacity="0.155846005"></path>
            <g id="暂无" transform="translate(3.000000, 2.000000)" fill-rule="nonzero">
                <path d="M6.06073753,0.0715835141 L6.06073753,0 L0.596529291,0 C0.262472889,0 0,0.262472889 0,0.596529291 L0,10.4034707 C0,10.7375271 0.262472889,11 0.596529291,11 L8.6616052,11 C8.99566161,11 9.25813449,10.7375271 9.25813449,10.4034707 L9.25813449,3.14967462 L6.06073753,0.0715835141 Z" id="路径" fill="#FFFFFF"></path>
                <path d="M6.0845987,2.57700651 C6.06073753,2.86334056 6.32321041,3.12581345 6.68112799,3.1735358 L9.28199566,3.1735358 L6.0845987,0 L6.0845987,2.57700651 Z" id="路径" fill="#EEEEEE"></path>
                <path d="M4.0802603,8.08893709 L5.01084599,8.08893709 L5.01084599,8.94793926 L4.0802603,8.94793926 L4.0802603,8.08893709 Z M4.93926247,7.39696313 L4.93926247,7.58785249 L4.15184382,7.58785249 L4.15184382,7.37310195 C4.12798265,6.87201735 4.39045553,6.46637743 4.89154014,6.10845988 C5.34490239,5.82212582 5.55965293,5.48806942 5.48806942,5.15401301 C5.44034707,4.7483731 5.20173536,4.53362255 4.74837311,4.50976139 C4.15184383,4.46203904 3.79392626,4.77223428 3.6746204,5.39262473 L2.88720174,5.15401301 C3.10195228,4.19956616 3.74620391,3.7462039 4.81995662,3.77006508 C5.77440347,3.81778742 6.27548807,4.29501084 6.37093275,5.17787419 C6.39479392,5.72668114 6.06073753,6.22776574 5.4164859,6.65726681 C5.05856833,6.87201735 4.9154013,7.11062906 4.93926247,7.39696313 L4.93926247,7.39696313 Z" id="形状" fill="#CDCBCB"></path>
            </g>
        </g>
    </g>
</svg>