<?xml version="1.0" encoding="UTF-8"?>
<svg width="18px" height="17px" viewBox="0 0 18 17" version="1.1" xmlns="http://www.w3.org/2000/svg" xmlns:xlink="http://www.w3.org/1999/xlink">
    <title>人员切换</title>
    <g id="业务前台" stroke="none" stroke-width="1" fill="none" fill-rule="evenodd">
        <g id="财务列表规范" transform="translate(-1522.000000, -17.000000)" fill="#FFFFFF" fill-rule="nonzero">
            <g id="head" transform="translate(0.000000, -5.000000)">
                <g id="人员切换" transform="translate(1522.000000, 22.000000)">
                    <path d="M17.4179401,13.1261538 L8.10224781,13.1261538 C7.80317089,13.1261538 7.55947858,12.8824615 7.55947858,12.5833846 C7.55947858,12.2843077 7.80317089,12.0406154 8.10224781,12.0406154 L15.3022478,12.0406154 L14.704094,11.1876923 L15.6013247,10.5563077 L17.4179401,13.1261538 L17.4179401,13.1261538 Z M8.95517089,16.7261538 L9.94101704,16.2387692 L9.4868632,15.3193846 L16.8751709,15.3193846 C17.1742478,15.3193846 17.4179401,15.0756923 17.4179401,14.7766154 C17.4179401,14.4775385 17.1742478,14.2338462 16.8751709,14.2338462 L7.7145555,14.2338462 L8.95517089,16.7261538 L8.95517089,16.7261538 Z M8.13547858,9.84738462 C4.55763243,9.84738462 1.58901704,12.5058462 1.0905555,15.9618462 C1.05732473,16.2276923 0.82470935,16.4270769 0.547786273,16.4270769 C0.215478581,16.4270769 -0.03929065,16.128 0.00501704226,15.8067692 C0.459170888,12.6609231 2.6745555,10.1021538 5.63209397,9.16061538 C4.18101704,8.29661538 3.19517089,6.73476923 3.19517089,4.92923077 C3.19517089,2.20430769 5.39947858,0 8.12440166,0 C10.8493247,0 13.0536324,2.20430769 13.0536324,4.92923077 C13.0536324,6.73476923 12.0677863,8.29661538 10.6277863,9.16061538 C11.1484017,9.32676923 11.6357863,9.54830769 12.0899401,9.81415385 C12.400094,9.99138462 12.4665555,10.4123077 12.2117863,10.6670769 C12.0345555,10.8443077 11.7797863,10.8775385 11.5582478,10.7556923 C10.5502478,10.1686154 9.37609397,9.84738462 8.13547858,9.84738462 Z M8.13547858,8.75076923 C10.2511709,8.75076923 11.968094,7.03384615 11.968094,4.91815385 C11.968094,2.80246154 10.2511709,1.08553846 8.13547858,1.08553846 C6.01978627,1.08553846 4.3028632,2.80246154 4.3028632,4.91815385 C4.3028632,7.03384615 6.01978627,8.75076923 8.13547858,8.75076923 Z" id="形状"></path>
                </g>
            </g>
        </g>
    </g>
</svg>