<?xml version="1.0" encoding="UTF-8"?>
<svg width="20px" height="21px" viewBox="0 0 20 21" version="1.1" xmlns="http://www.w3.org/2000/svg" xmlns:xlink="http://www.w3.org/1999/xlink">
    <title>编组 12</title>
    <g id="列表、左侧菜单规范" stroke="none" stroke-width="1" fill="none" fill-rule="evenodd">
        <g id="个人云盘" transform="translate(-358.000000, -331.000000)">
            <g id="列表" transform="translate(311.998048, 172.000000)">
                <g id="编组-12" transform="translate(46.001952, 159.363897)">
                    <rect id="矩形" fill="#1890FF" x="0" y="0.636102618" width="19.8666881" height="19.8666881" rx="4"></rect>
                    <text id="W" font-family="PingFangSC-Medium, PingFang SC" font-size="12" font-weight="400" fill="#FFFFFF">
                        <tspan x="3.31111469" y="13">W</tspan>
                    </text>
                    <path d="M7.58331992,7.95987872 L9.54999195,7.95987872 C11.2068462,7.95987872 12.549992,9.30302447 12.549992,10.9598787 L12.549992,25.3432308 C12.549992,26.7147394 11.4381645,27.8265668 10.0666559,27.8265668 C8.69514733,27.8265668 7.58331992,26.7147394 7.58331992,25.3432308 L7.58331992,7.95987872 L7.58331992,7.95987872 Z" id="矩形" fill="#117DE1" transform="translate(10.066656, 17.893223) scale(1, -1) rotate(-90.000000) translate(-10.066656, -17.893223) "></path>
                    <path d="M14.9000161,0.636102618 L16.8666881,0.636102618 C18.5235424,0.636102618 19.8666881,1.97924837 19.8666881,3.63610262 L19.8666881,18.0194547 C19.8666881,19.3909633 18.7548607,20.5027907 17.3833521,20.5027907 C16.0118435,20.5027907 14.9000161,19.3909633 14.9000161,18.0194547 L14.9000161,0.636102618 L14.9000161,0.636102618 Z" id="矩形" fill="#FFFFFF" opacity="0.155846005"></path>
                </g>
            </g>
        </g>
    </g>
</svg>