<?xml version="1.0" encoding="UTF-8"?>
<svg width="200px" height="161px" viewBox="0 0 200 161" version="1.1" xmlns="http://www.w3.org/2000/svg" xmlns:xlink="http://www.w3.org/1999/xlink">
    <title>暂无数据 (3)</title>
    <g id="页面-1" stroke="none" stroke-width="1" fill="none" fill-rule="evenodd">
        <g id="送交选人无数据" transform="translate(-275.000000, -661.000000)" fill="#005AFF" fill-rule="nonzero">
            <g id="暂无数据-(3)" transform="translate(275.000000, 661.000000)">
                <path d="M138.48829,33.3333333 L53.6438418,33.3333333 C53.1096662,33.3333333 52.6315789,33.7995765 52.6315789,34.3194108 L52.6315789,139.3648 C52.6315789,139.885974 53.1096662,140.350877 53.6438418,140.350877 L138.460246,140.350877 C138.994422,140.350877 139.472509,139.912769 139.472509,139.3648 L139.472509,34.3194108 C139.500553,33.7433057 139.022466,33.3333333 138.48829,33.3333333 Z M118.576894,107.967074 C118.576894,108.486908 118.100143,108.953151 117.565967,108.953151 L74.538121,108.953151 C74.0039454,108.953151 73.5258583,108.486908 73.5258583,107.967074 L73.5258583,103.308662 C73.5258583,102.788827 73.9759013,102.322584 74.538121,102.322584 L117.565967,102.322584 C118.100143,102.322584 118.57823,102.788827 118.57823,103.308662 L118.57823,107.967074 L118.576894,107.967074 Z M118.576894,89.143176 C118.576894,89.6643502 118.100143,90.1305933 117.565967,90.1305933 L74.538121,90.1305933 C74.0039454,90.1305933 73.5258583,89.6643502 73.5258583,89.143176 L73.5258583,84.4861034 C73.5258583,83.9649292 73.9759013,83.500026 74.538121,83.500026 L117.565967,83.500026 C118.100143,83.500026 118.57823,83.9649294 118.57823,84.4861034 L118.57823,89.143176 L118.576894,89.143176 Z M118.576894,70.3487534 C118.576894,70.8685877 118.100143,71.3348308 117.565967,71.3348308 L74.538121,71.3348308 C74.0039454,71.3348308 73.5258583,70.8685877 73.5258583,70.3487534 L73.5258583,65.7184763 C73.5258583,65.1973021 73.9759013,64.7323989 74.538121,64.7323989 L117.565967,64.7323989 C118.100143,64.7323989 118.57823,65.1973022 118.57823,65.7184763 L118.57823,70.3487534 L118.576894,70.3487534 Z" id="形状" fill-opacity="0.35"></path>
                <path d="M137.379122,22.8088841 C104.778128,22.5624547 77.8593004,46.7460301 74.9060166,77.8041857 C67.113408,69.9720126 56.1725,65.0407436 44.0775271,64.9603861 C20.0839328,64.794314 0.506239015,83.5551007 0.337938005,106.889566 L0,148.548209 L74.0898898,149.097318 L86.7752522,149.177675 L198.614013,150 L199.120252,83.9126913 C199.428804,50.4170263 171.751285,23.0553136 137.379122,22.8088841 Z" id="路径" fill-opacity="0.1"></path>
                <path d="M33.7496607,20.0405363 C32.3968245,20.0432926 31.0759211,20.4554591 29.9577692,21.2237347 C30.0418258,20.8104902 30.0978637,20.3985917 30.0978637,19.9853474 C30.1539016,16.5447838 27.3159869,13.7368747 23.7762657,13.7086071 C20.2352101,13.6816857 17.4253144,16.4344056 17.3692765,19.9018908 L17.3692765,20.2882138 C16.6680479,20.0241946 15.9268765,19.8843902 15.1784651,19.8749693 C11.6947816,19.8211263 8.82751379,22.5994218 8.77281025,26.068253 C8.71543819,29.4549736 11.4692961,32.2346151 14.8969419,32.344993 L33.693623,32.4553711 C37.1786408,32.5092141 40.0445743,29.7295726 40.100612,26.2607414 C40.100612,22.7932564 37.2346785,20.0688039 33.7496607,20.0405363 Z M193.677555,6.33212501 C192.324264,6.33461199 191.002858,6.74679046 189.884329,7.51532341 C189.96972,7.10207889 189.997739,6.68883437 189.997739,6.27693604 C190.024424,2.86329398 187.215862,0.0553849198 183.674807,0.000195789559 C180.135085,-0.0267256066 177.32519,2.72599433 177.270486,6.19347949 L177.270486,6.55153488 C176.568837,6.28736333 175.827201,6.14755651 175.078341,6.13829036 C171.565304,6.08444741 168.727389,8.86408889 168.671157,12.3329201 C168.644667,15.7182947 171.369171,18.4710146 174.796817,18.6083143 L193.593499,18.7469598 C197.077182,18.7738812 199.94445,16.0211613 199.999153,12.5523301 C200.056525,9.0848451 197.190592,6.36039258 193.677555,6.33212501 Z" id="形状" fill-opacity="0.3"></path>
                <path d="M151.545484,130.701754 C150.645954,130.701754 150,131.357975 150,132.208384 C150,132.83782 150.337658,133.330655 150.843476,133.577072 L150.617927,160.308022 L152.107356,160.308022 L152.332906,133.49538 C152.782671,133.248962 153.090967,132.756127 153.090967,132.236507 C153.090967,131.359314 152.416987,130.756663 151.545484,130.701754 L151.545484,130.701754 Z M183.333333,132.426677 C183.333333,131.66064 182.658018,130.948172 181.78518,130.921387 C180.915012,130.921387 180.213005,131.577608 180.213005,132.426677 C180.213005,133.002545 180.549327,133.49538 181.027119,133.741797 L180.802904,160.526316 L182.292334,160.526316 L182.516549,133.741797 C182.994341,133.49538 183.275945,133.002545 183.331999,132.426677 L183.333333,132.426677 Z" id="形状" fill-opacity="0.1"></path>
                <polygon id="路径" fill-opacity="0.1" points="147.368421 142.702126 147.420925 135.964912 187.719298 136.243913 187.666794 142.982456"></polygon>
                <path d="M152.068021,135.087719 L151.979713,135.19762 L147.767183,141.858657 L147.44707,141.858657 L147.505021,135.087719 L152.068021,135.087719 Z M162.237148,135.170815 L157.907335,141.939072 L152.473682,141.912267 L154.159798,139.199603 L156.687592,135.115865 L162.237148,135.170815 Z M172.37868,135.25257 L168.077842,141.994023 L162.613833,141.940413 L166.856719,135.19896 L172.37868,135.25257 Z M182.547807,135.334325 L178.275946,142.077118 L172.784341,142.023508 L177.056202,135.279375 L182.547807,135.334325 Z M187.719298,135.334325 L187.691702,142.158873 L182.925872,142.105263 L187.196354,135.334325 L187.719298,135.334325 Z M147.368421,152.350127 L147.420853,145.552384 L187.664106,145.833836 L187.611674,152.631579 L147.368421,152.350127 Z" id="形状" fill-opacity="0.1"></path>
                <path d="M151.983731,145.559345 L151.896884,145.696071 L147.688239,152.358126 L147.368421,152.358126 L147.426319,145.559345 L151.983731,145.559345 Z M162.144857,145.642453 L157.819038,152.439894 L152.390396,152.386276 L154.074957,149.671857 L156.600419,145.614303 L162.144857,145.642453 Z M172.275655,145.72422 L167.980163,152.466703 L162.521195,152.439894 L166.760167,145.697411 L172.275655,145.72422 Z M182.436781,145.807328 L178.197809,152.549811 L172.683699,152.523002 L176.950242,145.779179 L182.436781,145.807328 Z M187.603502,145.860947 L187.575931,152.631579 L182.814498,152.60477 L187.08104,145.862287 L187.603502,145.860947 Z M187.6614,142.161294 L187.6614,141.666667 L187.6614,140.351681 C187.6614,139.198891 187.690349,137.500536 187.690349,135.334363 L187.719298,135.389321 L147.543494,135.170827 L147.601392,135.115869 C147.601392,137.418768 147.543494,139.720328 147.543494,141.91331 L147.513166,141.886501 L176.16586,142.133145 L184.671374,142.159954 L186.965244,142.159954 L184.671374,142.159954 L176.16586,142.133145 L147.513166,141.996418 L147.39737,141.996418 L147.455268,135.087719 L147.484217,135.087719 L187.6614,135.417471 L187.690349,135.417471 L187.690349,135.44428 C187.690349,137.637263 187.662779,139.310149 187.662778,140.461599 L187.662778,142.159954 L187.6614,142.161294 Z" id="形状" fill-opacity="0.1"></path>
                <path d="M185.907014,152.604866 L185.907014,152.113344 L185.907014,150.803064 C185.907014,149.654399 185.935963,147.962121 185.935963,145.803698 L185.964912,145.830412 L145.787729,145.640748 L145.845628,145.614035 C145.845628,147.907359 145.787729,150.202018 145.787729,152.385818 L145.760159,152.359105 L174.411474,152.604866 L182.916988,152.631579 L185.210858,152.631579 L182.888039,152.631579 L174.382525,152.604866 L145.729831,152.468629 L145.614035,152.468629 L145.671933,145.640748 L145.700882,145.640748 L185.878065,145.967984 L185.907014,145.967984 L185.907014,145.994697 C185.907014,148.179833 185.879444,149.846733 185.879444,150.994063 L185.879444,152.604866 C185.907014,152.523391 185.907014,152.604866 185.907014,152.604866 Z" id="路径" fill-opacity="0.1"></path>
            </g>
        </g>
    </g>
</svg>