<?xml version="1.0" encoding="UTF-8"?>
<svg width="15px" height="32px" viewBox="0 0 15 32" version="1.1" xmlns="http://www.w3.org/2000/svg" xmlns:xlink="http://www.w3.org/1999/xlink">
    <title>编组 2</title>
    <g id="列表、左侧菜单规范" stroke="none" stroke-width="1" fill="none" fill-rule="evenodd">
        <g id="项目细化" transform="translate(-175.000000, -439.000000)">
            <g id="个人支出信息汇总" transform="translate(824.422500, 496.000000) scale(-1, 1) translate(-824.422500, -496.000000) translate(56.844999, 100.000000)">
                <g id="编组-19" transform="translate(1408.655001, 392.500000) scale(-1, 1) translate(-1408.655001, -392.500000) translate(1282.155001, 0.000000)">
                    <g id="编组-2" transform="translate(119.000000, 339.000000)">
                        <path d="M-7,9 L21,9 C22.1045695,9 23,9.8954305 23,11 L23,23 L23,23 L-9,23 L-9,11 C-9,9.8954305 -8.1045695,9 -7,9 Z" id="矩形" fill="#F6F6F6" transform="translate(7.000000, 16.000000) rotate(-90.000000) translate(-7.000000, -16.000000) "></path>
                        <path d="M7.92542361,19.0465888 C7.75741705,19.2145954 7.52942518,19.3706079 7.31341247,19.3226017 C7.09741469,19.3585989 6.89341097,19.1905923 6.72541932,19.0465888 L1.52941865,13.8265851 C1.26541473,13.5625961 1.26541473,13.1305856 1.52941865,12.8665816 C1.79342258,12.6025777 2.22541816,12.6025926 2.48940717,12.8665816 L7.32542147,17.8345904 L12.1734298,12.8665966 C12.4374189,12.6025926 12.8694293,12.6025926 13.1334184,12.8665966 C13.3974074,13.1306005 13.3974223,13.5625961 13.1334184,13.8265851 L7.92542361,19.0465888 Z" id="路径" fill="#999999" fill-rule="nonzero" transform="translate(7.331416, 16.000000) rotate(-270.000000) translate(-7.331416, -16.000000) "></path>
                    </g>
                </g>
            </g>
        </g>
    </g>
</svg>