<?xml version="1.0" encoding="UTF-8"?>
<svg width="15px" height="13px" viewBox="0 0 15 13" version="1.1" xmlns="http://www.w3.org/2000/svg" xmlns:xlink="http://www.w3.org/1999/xlink">
    <title>形状</title>
    <g id="列表、左侧菜单规范" stroke="none" stroke-width="1" fill="none" fill-rule="evenodd">
        <g id="个人云盘" transform="translate(-319.000000, -149.000000)" fill="#333333" fill-rule="nonzero">
            <g id="个人支出信息汇总" transform="translate(58.041096, 92.000000)">
                <g id="编组-13" transform="translate(342.930505, 64.000000) scale(-1, 1) translate(-342.930505, -64.000000) translate(261.861010, 54.000000)">
                    <path d="M155.332065,14.4700458 C155.542171,14.6801247 155.542171,15.0207206 155.332065,15.2307996 L155.332065,15.2307996 C155.121986,15.440905 154.78139,15.440905 154.571311,15.2307996 L149.112612,9.77210038 C148.902507,9.56202138 148.902507,9.22145197 149.112612,9.01134654 L149.112612,9.01134654 C149.322691,8.80126755 149.663287,8.80126755 149.873366,9.01134654 L155.332065,14.4700458 L155.332065,14.4700458 Z M149.873366,9.76539094 C149.663287,9.97549637 149.322691,9.97549637 149.112612,9.76539094 L149.112612,9.76539094 C148.902507,9.55531195 148.902507,9.21474254 149.112612,9.00463711 L154.571311,3.5459379 C154.78139,3.33585891 155.121986,3.33585891 155.332065,3.5459379 L155.332065,3.5459379 C155.542171,3.75604333 155.542171,4.09661271 155.332065,4.30671814 L149.873366,9.76539094 L149.873366,9.76539094 Z M161.408349,8.65796568 C161.81168,8.65770169 162.138778,8.98445603 162.138989,9.38776121 L162.138989,9.38776121 C162.139253,9.79106639 161.812499,10.1181905 161.409194,10.1184018 L150.929863,10.1244246 C150.526558,10.1246886 150.19946,9.79796073 150.199222,9.39462911 L150.199222,9.39462911 C150.198985,8.99132393 150.525739,8.66422619 150.929018,8.66398848 L161.408349,8.65796568 L161.408349,8.65796568 Z" id="形状" transform="translate(155.547011, 9.388379) scale(-1, 1) translate(-155.547011, -9.388379) "></path>
                </g>
            </g>
        </g>
    </g>
</svg>