<?xml version="1.0" encoding="UTF-8"?>
<svg width="20px" height="20px" viewBox="0 0 20 20" version="1.1" xmlns="http://www.w3.org/2000/svg" xmlns:xlink="http://www.w3.org/1999/xlink">
    <title>编组 12</title>
    <g id="列表、左侧菜单规范" stroke="none" stroke-width="1" fill="none" fill-rule="evenodd">
        <g id="个人云盘" transform="translate(-382.000000, -532.000000)">
            <g id="列表" transform="translate(311.998048, 172.000000)">
                <g id="编组-12" transform="translate(70.001952, 360.000000)">
                    <rect id="矩形" fill="#6D5AFA" x="0" y="0" width="19.8666881" height="19.8666881" rx="4"></rect>
                    <path d="M7.58331992,7.3237761 L9.54999195,7.3237761 C11.2068462,7.3237761 12.549992,8.66692185 12.549992,10.3237761 L12.549992,24.7071282 C12.549992,26.0786368 11.4381645,27.1904642 10.0666559,27.1904642 C8.69514733,27.1904642 7.58331992,26.0786368 7.58331992,24.7071282 L7.58331992,7.3237761 L7.58331992,7.3237761 Z" id="矩形" fill="#5C49E6" transform="translate(10.066656, 17.257120) scale(1, -1) rotate(-90.000000) translate(-10.066656, -17.257120) "></path>
                    <path d="M14.9000161,0 L16.8666881,0 C18.5235424,-7.48448398e-16 19.8666881,1.34314575 19.8666881,3 L19.8666881,17.3833521 C19.8666881,18.7548607 18.7548607,19.8666881 17.3833521,19.8666881 C16.0118435,19.8666881 14.9000161,18.7548607 14.9000161,17.3833521 L14.9000161,0 L14.9000161,0 Z" id="矩形" fill="#FFFFFF" opacity="0.155846005"></path>
                    <path d="M6.25025269,6 L8.92364731,9.91482649 L10.5682114,7.89210741 L14,12.2071234 L11.9430949,12.2071234 L10.5682114,10.6838367 L8.92364731,13 L6.25025269,9.5 L4.0625058,12.2071234 L2,12.2071234 L6.25025269,6 Z M12,3 C12.5522847,3 13,3.44771525 13,4 C13,4.55228475 12.5522847,5 12,5 C11.4477153,5 11,4.55228475 11,4 C11,3.44771525 11.4477153,3 12,3 Z" id="形状结合" fill="#FFFFFF"></path>
                </g>
            </g>
        </g>
    </g>
</svg>