<?xml version="1.0" encoding="UTF-8"?>
<svg width="13px" height="13px" viewBox="0 0 16 16" version="1.1" xmlns="http://www.w3.org/2000/svg" xmlns:xlink="http://www.w3.org/1999/xlink">
    <title>最小化</title>
    <g id="列表、左侧菜单规范" stroke="none" stroke-width="1" fill="none" fill-rule="evenodd">
        <g id="画板" transform="translate(-105.000000, -232.000000)" fill="#fff" fill-rule="nonzero">
            <g id="最小化" transform="translate(105.000000, 232.000000)">
                <path d="M7.39333589,9.18268863 C7.39333589,8.7537342 7.03791651,8.58215243 6.63347376,8.58215243 L0.652623516,8.58215243 C0.309459977,8.58215243 0.0398314822,8.85178093 0.0398314822,9.19494447 C0.0398314822,9.538108 0.309459977,9.8077365 0.652623516,9.8077365 L5.29758713,9.8077365 L0.17464573,14.9306779 C-0.0582152432,15.1635389 -0.0582152432,15.5312141 0.17464573,15.7640751 C0.407506702,15.996936 0.775181923,15.996936 1.0080429,15.7640751 L6.16775182,10.6043661 L6.16775182,15.3228648 C6.16775182,15.6660283 6.43738031,15.9356568 6.78054385,15.9356568 C7.12370739,15.9356568 7.39333589,15.6660283 7.39333589,15.3228648 L7.39333589,9.19494447 M15.3596323,6.1309843 L10.7024129,6.1309843 L15.8253543,1.0080429 C16.0582152,0.775181923 16.0582152,0.407506702 15.8253543,0.17464573 C15.5924933,-0.0582152432 15.2248181,-0.0582152432 14.9919571,0.17464573 L9.84450402,5.33435465 L9.84450402,0.615855994 C9.84450402,0.272692455 9.56261969,0.00306396017 9.23171199,0.00306396017 C8.88854845,0.00306396017 8.61891995,0.272692455 8.61891995,0.615855994 L8.61891995,6.74377633 C8.61891995,6.75603217 8.63117579,6.76828801 8.63117579,6.78054385 C8.63117579,6.93986978 8.68019916,7.09919571 8.80275756,7.20949828 C8.94982765,7.36882421 9.17043278,7.41784757 9.36652624,7.35656836 L15.3473765,7.35656836 C15.69054,7.35656836 15.9601685,7.08693987 15.9601685,6.74377633 C15.9724244,6.40061279 15.69054,6.1309843 15.3596323,6.1309843 Z" id="形状"></path>
            </g>
        </g>
    </g>
</svg>