<?xml version="1.0" encoding="UTF-8"?>
<svg width="23px" height="23px" viewBox="0 0 23 23" version="1.1" xmlns="http://www.w3.org/2000/svg" xmlns:xlink="http://www.w3.org/1999/xlink">
    <title>编组 7</title>
    <g id="列表、左侧菜单规范" stroke="none" stroke-width="1" fill="none" fill-rule="evenodd">
        <g id="子流程编排" transform="translate(-1553.000000, -195.000000)">
            <g id="个人支出信息汇总" transform="translate(825.820545, 492.500000) scale(-1, 1) translate(-825.820545, -492.500000) translate(67.041096, 100.000000)">
                <g id="编组-7" transform="translate(8.599994, 95.000000)">
                    <path d="M19,0.5 C19.9664983,0.5 20.8414983,0.891750844 21.4748737,1.52512627 C22.1082492,2.15850169 22.5,3.03350169 22.5,4 L22.5,4 L22.5,19 C22.5,19.9664983 22.1082492,20.8414983 21.4748737,21.4748737 C20.8414983,22.1082492 19.9664983,22.5 19,22.5 L19,22.5 L4,22.5 C3.03350169,22.5 2.15850169,22.1082492 1.52512627,21.4748737 C0.891750844,20.8414983 0.5,19.9664983 0.5,19 L0.5,19 L0.5,4 C0.5,3.03350169 0.891750844,2.15850169 1.52512627,1.52512627 C2.15850169,0.891750844 3.03350169,0.5 4,0.5 L4,0.5 Z" id="Rectangle-14" stroke="#CCCCCC" transform="translate(11.500000, 11.500000) scale(-1, 1) translate(-11.500000, -11.500000) "></path>
                    <g id="放大-(1)" transform="translate(5.000000, 11.402196)" fill="#000000" fill-rule="nonzero">
                        <path d="M11.4021867,0 L6.59780397,0 L5.40217735,0 L0.597813311,0 C0.267652228,0 0,0.267652228 0,0.597813311 C0,0.927974394 0.267652228,1.19562662 0.597813311,1.19562662 L5.40217735,1.19562662 L6.59780397,1.19562662 L11.4021867,1.19562662 C11.7323478,1.19562662 12,0.927974394 12,0.597813311 C12,0.267652228 11.7323478,0 11.4021867,0 Z" id="路径"></path>
                    </g>
                </g>
            </g>
        </g>
    </g>
</svg>