<?xml version="1.0" encoding="UTF-8"?>
<svg width="40px" height="46px" viewBox="0 0 40 46" version="1.1" xmlns="http://www.w3.org/2000/svg" xmlns:xlink="http://www.w3.org/1999/xlink">
    <title>编组 30</title>
    <g id="页面-1" stroke="none" stroke-width="1" fill="none" fill-rule="evenodd">
        <g id="流程详情" transform="translate(-26.000000, -1154.000000)">
            <g id="编组-26" transform="translate(0.000000, 199.000000)">
                <g id="编组-25" transform="translate(26.000000, 951.000000)">
                    <g id="编组-30" transform="translate(0.000000, 4.000000)">
                        <circle id="椭圆形" fill="#198FFF" cx="20" cy="20" r="20"></circle>
                        <circle id="椭圆形" fill="#F35050" cx="30" cy="36" r="10"></circle>
                        <path d="M25.5,35 C26.3284271,35 27,35.6715729 27,36.5 C27,37.3284271 26.3284271,38 25.5,38 C24.6715729,38 24,37.3284271 24,36.5 C24,35.6715729 24.6715729,35 25.5,35 Z M30.5,35 C31.3284271,35 32,35.6715729 32,36.5 C32,37.3284271 31.3284271,38 30.5,38 C29.6715729,38 29,37.3284271 29,36.5 C29,35.6715729 29.6715729,35 30.5,35 Z M35.5,35 C36.3284271,35 37,35.6715729 37,36.5 C37,37.3284271 36.3284271,38 35.5,38 C34.6715729,38 34,37.3284271 34,36.5 C34,35.6715729 34.6715729,35 35.5,35 Z" id="形状结合" fill="#FFFFFF"></path>
                    </g>
                </g>
            </g>
        </g>
    </g>
</svg>