<?xml version="1.0" encoding="UTF-8"?>
<svg width="40px" height="46px" viewBox="0 0 40 46" version="1.1" xmlns="http://www.w3.org/2000/svg" xmlns:xlink="http://www.w3.org/1999/xlink">
    <title>编组 27</title>
    <g id="页面-1" stroke="none" stroke-width="1" fill="none" fill-rule="evenodd">
        <g id="流程详情" transform="translate(-26.000000, -290.000000)">
            <g id="编组-26" transform="translate(0.000000, 199.000000)">
                <g id="编组-25" transform="translate(26.000000, 87.000000)">
                    <g id="编组-27" transform="translate(0.000000, 4.000000)">
                        <circle id="椭圆形" fill="#198FFF" cx="20" cy="20" r="20"></circle>
                        <circle id="椭圆形" fill="#11B27B" cx="30" cy="36" r="10"></circle>
                        <path d="M27.9686142,40.0063954 C27.7659295,40.0001049 27.5735793,39.9154708 27.432007,39.7702883 L24.2284625,36.5828419 C23.9238458,36.2668935 23.9238458,35.7665493 24.2284625,35.4506009 C24.3775491,35.3005172 24.5803534,35.2161167 24.7919,35.2161167 C25.0034465,35.2161167 25.2062508,35.3005172 25.3553374,35.4506009 L27.9686142,38.0799759 L34.6440069,32.2363242 C34.7914469,32.0852105 34.993636,32 35.2047614,32 C35.4158867,32 35.6180758,32.0852105 35.7655158,32.2363242 C35.9155995,32.3854108 36,32.5882151 36,32.7997617 C36,33.0113082 35.9155995,33.2141125 35.7655158,33.3631992 L28.5320517,39.7702883 C28.3828953,39.9204676 28.1802752,40.005375 27.9686142,40.0063954 Z" id="路径" fill="#FFFFFF" fill-rule="nonzero"></path>
                    </g>
                </g>
            </g>
        </g>
    </g>
</svg>