<?xml version="1.0" encoding="UTF-8"?>
<svg width="20px" height="20px" viewBox="0 0 20 20" version="1.1" xmlns="http://www.w3.org/2000/svg" xmlns:xlink="http://www.w3.org/1999/xlink">
    <title>编组 12</title>
    <g id="列表、左侧菜单规范" stroke="none" stroke-width="1" fill="none" fill-rule="evenodd">
        <g id="编组-12">
            <rect id="矩形" fill="#60AD3E" x="0" y="0" width="19.8666881" height="19.8666881" rx="4"></rect>
            <path d="M7.58331992,7.3237761 L9.54999195,7.3237761 C11.2068462,7.3237761 12.549992,8.66692185 12.549992,10.3237761 L12.549992,24.7071282 C12.549992,26.0786368 11.4381645,27.1904642 10.0666559,27.1904642 C8.69514733,27.1904642 7.58331992,26.0786368 7.58331992,24.7071282 L7.58331992,7.3237761 L7.58331992,7.3237761 Z" id="矩形" fill="#2E7D0D" transform="translate(10.066656, 17.257120) scale(1, -1) rotate(-90.000000) translate(-10.066656, -17.257120) "></path>
            <path d="M14.9000161,0 L16.8666881,0 C18.5235424,-7.48448398e-16 19.8666881,1.34314575 19.8666881,3 L19.8666881,17.3833521 C19.8666881,18.7548607 18.7548607,19.8666881 17.3833521,19.8666881 C16.0118435,19.8666881 14.9000161,18.7548607 14.9000161,17.3833521 L14.9000161,0 L14.9000161,0 Z" id="矩形" fill="#FFFFFF" opacity="0.155846005"></path>
            <g id="mp3-(1)" transform="translate(2.183948, 5.736296)" fill="#FFFFFF" fill-rule="nonzero">
                <path d="M1.11022302e-15,0.0629401406 L0.774647885,0.0629401406 L1.57834508,2.22227112 C1.67517607,2.50792253 1.76232395,2.79841549 1.86399647,3.08890845 L1.89304578,3.08890845 C1.98987677,2.79841549 2.07218311,2.50792253 2.17385563,2.22227112 L2.94850352,0.0629401406 L3.72799297,0.0629401406 L3.72799297,4.33802817 L3.06954225,4.33802817 L3.06954225,2.22227112 C3.06954225,1.83978873 3.1227993,1.2878521 3.15669014,0.900528166 L2.81294015,1.86883802 L2.0625,3.92649648 L1.64612676,3.92649648 L0.895686621,1.88820422 L0.556778175,0.919894365 C0.585827464,1.30721832 0.639084514,1.85915493 0.639084514,2.24163732 L0.639084514,4.35739435 L1.11022302e-15,4.35739435 L1.11022302e-15,0.0629401406 Z M4.8221831,0.0629401406 L6.11487676,0.0629401406 C7.08318661,0.0629401406 7.74647887,0.387323952 7.74647887,1.35079224 C7.74647887,2.31426053 7.06866198,2.71610913 6.1390845,2.71610915 L5.49515845,2.71610915 L5.49515845,4.33802817 L4.8221831,4.33802817 L4.8221831,0.0629401406 Z M6.07614436,2.19806337 C6.76364437,2.19806337 7.08802818,1.9366197 7.08802818,1.375 C7.08802818,0.813380301 6.73459508,0.624559861 6.05677817,0.624559861 L5.49515845,0.624559861 L5.49515845,2.19806337 L6.07614436,2.19806337 Z M8.17737676,3.82482394 L8.50176058,3.39392604 C8.75527859,3.69131779 9.12300867,3.86726521 9.51364437,3.87808099 C9.71897366,3.90608569 9.92637181,3.84382514 10.0823285,3.70736306 C10.2382851,3.57090098 10.3275254,3.37360288 10.3270247,3.16637323 C10.3270247,2.6822183 10.0268486,2.38204223 9.06338028,2.38204225 L9.06338028,1.89788733 C9.90580985,1.89788733 10.1817782,1.57834508 10.1817782,1.14744718 C10.1898378,0.973809585 10.121629,0.805317993 9.99505,0.686184784 C9.86847097,0.567051574 9.69615847,0.509170226 9.52332748,0.527728868 C9.19702092,0.546587134 8.89110474,0.69259258 8.6712148,0.934419 L8.32262324,0.518045759 C8.64988269,0.195414862 9.08809237,0.0100850834 9.54753522,0 C10.3125,0 10.8547535,0.397007042 10.8547535,1.10387324 C10.8632523,1.56667065 10.5623491,1.97843295 10.118838,2.11091549 L10.118838,2.13996478 C10.6170583,2.2328794 10.9835903,2.65982879 11,3.16637323 C11,3.94102111 10.3560739,4.3912852 9.54753522,4.3912852 C9.02997666,4.41179101 8.52935648,4.20482084 8.17737676,3.82482394 L8.17737676,3.82482394 Z" id="形状"></path>
            </g>
        </g>
    </g>
</svg>