<?xml version="1.0" encoding="UTF-8"?>
<svg width="20px" height="20px" viewBox="0 0 20 20" version="1.1" xmlns="http://www.w3.org/2000/svg" xmlns:xlink="http://www.w3.org/1999/xlink">
    <title>编组 12</title>
    <g id="列表、左侧菜单规范" stroke="none" stroke-width="1" fill="none" fill-rule="evenodd">
        <g id="编组-12">
            <rect id="矩形" fill="#029BAF" x="0" y="0" width="19.8666881" height="19.8666881" rx="4"></rect>
            <path d="M7.58331992,7.3237761 L9.54999195,7.3237761 C11.2068462,7.3237761 12.549992,8.66692185 12.549992,10.3237761 L12.549992,24.7071282 C12.549992,26.0786368 11.4381645,27.1904642 10.0666559,27.1904642 C8.69514733,27.1904642 7.58331992,26.0786368 7.58331992,24.7071282 L7.58331992,7.3237761 L7.58331992,7.3237761 Z" id="矩形" fill="#007F8F" transform="translate(10.066656, 17.257120) scale(1, -1) rotate(-90.000000) translate(-10.066656, -17.257120) "></path>
            <path d="M14.9000161,0 L16.8666881,0 C18.5235424,-7.48448398e-16 19.8666881,1.34314575 19.8666881,3 L19.8666881,17.3833521 C19.8666881,18.7548607 18.7548607,19.8666881 17.3833521,19.8666881 C16.0118435,19.8666881 14.9000161,18.7548607 14.9000161,17.3833521 L14.9000161,0 L14.9000161,0 Z" id="矩形" fill="#FFFFFF" opacity="0.155846005"></path>
            <g id="mp3-(1)" transform="translate(2.407948, 5.864296)" fill="#FFFFFF" fill-rule="nonzero">
                <g id="mp4">
                    <path d="M0,0.0238715248 L0.763888905,0.0238715248 L1.53732639,2.12934027 C1.63281251,2.4110243 1.71875001,2.69748264 1.81901043,2.98394097 L1.84765625,2.98394097 C1.94314237,2.69748264 2.02430557,2.4110243 2.12456598,2.12934027 L2.88845487,0 L3.65711806,0 L3.65711806,4.21571179 L3.03168404,4.21571179 L3.03168404,2.12934027 C3.03168404,1.75217013 3.08420141,1.20789929 3.11762153,0.825954858 L2.77864583,1.78081596 L2.04340279,3.7907986 L1.63281251,3.7907986 L0.868923625,1.81901041 L0.534722222,0.864149305 C0.563368048,1.24609376 0.615885418,1.79036458 0.615885418,2.16753471 L0.615885418,4.25390623 L0,4.25390623 L0,0.0238715248 Z M4.75520833,0.0238715248 L6.02994791,0.0238715248 C6.98480901,0.0238715248 7.6388889,0.343750005 7.6388889,1.29383679 C7.6388889,2.24392357 6.97048613,2.64019095 6.05381945,2.64019096 L5.41883681,2.64019096 L5.41883681,4.23958333 L4.75520833,4.23958333 L4.75520833,0.0238715248 Z M5.99175348,2.12934027 C6.66970487,2.12934027 6.98958333,1.87152776 6.98958333,1.31770833 C6.98958333,0.763888905 6.64105903,0.57769097 5.97265626,0.57769097 L5.41883681,0.57769097 L5.41883681,2.12934027 L5.99175348,2.12934027 Z M11,3.08420137 L10.4605035,3.08420137 L10.4605035,4.22048611 L9.84461806,4.22048611 L9.84461806,3.08420137 L8.02083333,3.08420137 L8.02083333,2.64496527 L9.69661459,0.00477430123 L10.4557292,0.00477430123 L10.4557292,2.60677082 L10.9952257,2.60677082 L11,3.08420137 Z M9.84461806,2.60677082 L9.84461806,1.48958332 C9.84461806,1.26041666 9.84461806,0.907118053 9.87803819,0.677951371 C9.77300347,0.888020811 9.65842012,1.10763887 9.5390625,1.32725693 L8.6844618,2.60677082 L9.84461806,2.60677082 Z" id="形状"></path>
                </g>
            </g>
        </g>
    </g>
</svg>