<?xml version="1.0" encoding="UTF-8"?>
<svg width="32px" height="28px" viewBox="0 0 32 28" version="1.1" xmlns="http://www.w3.org/2000/svg" xmlns:xlink="http://www.w3.org/1999/xlink">
    <title>形状</title>
    <g id="页面-1" stroke="none" stroke-width="1" fill="none" fill-rule="evenodd">
        <g id="通知公告" transform="translate(-670.000000, -320.000000)" fill="#198FFF" fill-rule="nonzero">
            <g id="编组-26" transform="translate(24.000000, 295.000000)">
                <g id="未关注" transform="translate(646.000000, 25.000000)">
                    <path d="M7.83116787,0 L7.82950884,2.66053913 C10.1886197,2.66053913 12.3155763,4.36834976 13.5176762,7.22719887 C13.9316239,8.21443529 14.8980671,8.85891509 15.9703936,8.85891509 C15.9703936,8.85891509 15.9703936,8.85891509 15.9737854,8.85891509 C17.0443422,8.85541268 18.0106748,8.21108036 18.4247331,7.22362273 C19.7843307,3.96306594 22.3653468,2.80085662 24.3293124,2.80085662 C25.7255562,2.80085662 26.9864228,3.33945312 27.8785413,4.31821003 C29.0166024,5.56521447 29.5048748,7.44891968 29.2918547,9.76308917 C28.9698176,13.2687407 26.002652,15.5966986 23.1307886,17.8449123 C22.0430516,18.7006794 21.0143024,19.5077077 20.1101283,20.3878074 C18.2913098,22.1509192 17.032176,23.2179736 16.0187637,24.0770588 C15.8559939,23.9350823 15.6861825,23.7895296 15.5096611,23.6371565 C14.5811914,22.8403772 13.4276091,21.8461729 11.792501,20.3391055 C10.9021891,19.5182518 9.89062019,18.7664878 8.82017394,17.9696348 C5.86181959,15.7664732 2.80115809,13.4904247 2.67123722,9.97419215 C2.57766764,7.50075531 3.22207371,5.41803963 4.48305091,4.10847114 C5.38198981,3.17487684 6.57196031,2.66050226 7.82950884,2.66050226 L7.83116787,0 M7.83116787,0 C3.67067677,0 -0.231705357,3.54734864 0.0107349579,10.0748034 C0.246317928,16.3482784 6.66376025,19.2340407 9.99112084,22.2963981 C13.2405068,25.2963758 14.6401425,26.3044792 16.001436,27.6589154 C17.1551658,26.4880791 18.7590471,25.4072362 21.963381,22.2963981 C25.2302053,19.1231434 31.3756027,16.171757 31.9402645,10.0088844 C32.5360424,3.53691515 28.5799075,0.140317494 24.3293124,0.140317494 C21.087005,0.140317494 17.6746649,2.11136168 15.9703936,6.19741741 C14.2000926,1.98671285 10.9437756,0 7.83116787,0 L7.83116787,0 Z" id="形状"></path>
                </g>
            </g>
        </g>
    </g>
</svg>