<?xml version="1.0" encoding="UTF-8"?>
<svg width="18px" height="17px" viewBox="0 0 18 17" version="1.1" xmlns="http://www.w3.org/2000/svg" xmlns:xlink="http://www.w3.org/1999/xlink">
    <title>消息 (1)</title>
    <g id="业务前台" stroke="none" stroke-width="1" fill="none" fill-rule="evenodd">
        <g id="财务列表规范" transform="translate(-1429.000000, -19.000000)" fill="#FFFFFF" fill-rule="nonzero">
            <g id="head" transform="translate(0.000000, -5.000000)">
                <g id="消息-(1)" transform="translate(1429.007225, 24.016629)">
                    <path d="M16.0056562,0 L1.60439062,0 C0.7183125,0 0,0.7183125 0,1.60439062 L0,11.2209258 C0,12.1070039 0.7183125,12.8253164 1.60439062,12.8253164 L4.67685352,12.8253164 C4.99971094,12.8253164 5.26144922,12.5635781 5.26144922,12.2407031 C5.26144922,11.9178457 4.99971094,11.6561074 4.67685352,11.6561074 L1.60437305,11.6561074 C1.36402734,11.6561074 1.16920898,11.4612539 1.16920898,11.2209258 L1.16920898,1.60439062 C1.16920898,1.3640625 1.36404492,1.16920898 1.60439062,1.16920898 L16.0056738,1.16920898 C16.246002,1.16920898 16.4408555,1.3640625 16.4408555,1.60439062 L16.4408555,11.2209258 C16.4408555,11.4612715 16.246002,11.6561074 16.0056738,11.6561074 L9.23248828,11.6561074 C9.02716282,11.6561122 8.82993287,11.7361872 8.68271484,11.8793145 L5.42388867,15.0476309 C5.19050391,15.27075 5.18218945,15.6407871 5.40530859,15.8741543 C5.62842773,16.1075391 5.99848242,16.1158535 6.23184961,15.8927344 L9.15159375,13.048998 C9.29886032,12.905571 9.49630763,12.8253118 9.70187695,12.8253164 L16.0056562,12.8253164 C16.8917344,12.8253164 17.6100469,12.1070039 17.6100469,11.2209258 L17.6100469,1.60439062 C17.6100469,0.7183125 16.8917344,0 16.0056387,0 L16.0056562,0 Z" id="路径"></path>
                    <path d="M4.20199805,6.37389844 C4.20199805,6.87307108 4.60665743,7.27773047 5.10583008,7.27773047 C5.60500273,7.27773047 6.00966211,6.87307108 6.00966211,6.37389844 C6.00966211,5.87472579 5.60500273,5.47006641 5.10583008,5.47006641 C4.60665743,5.47006641 4.20199805,5.87472579 4.20199805,6.37389844 L4.20199805,6.37389844 Z M7.89519727,6.37389844 C7.89519727,6.87307594 8.29986058,7.27773926 8.79903809,7.27773926 C9.29821559,7.27773926 9.70287891,6.87307594 9.70287891,6.37389844 C9.70287891,5.87472094 9.29821559,5.47005762 8.79903809,5.47005762 C8.29986058,5.47005762 7.89519727,5.87472094 7.89519727,6.37389844 L7.89519727,6.37389844 Z M11.5304941,6.37389844 C11.5304941,6.87307108 11.9351535,7.27773047 12.4343262,7.27773047 C12.9334988,7.27773047 13.3381582,6.87307108 13.3381582,6.37389844 C13.3381582,5.87472579 12.9334988,5.47006641 12.4343262,5.47006641 C11.9351535,5.47006641 11.5304941,5.87472579 11.5304941,6.37389844 Z" id="形状"></path>
                </g>
            </g>
        </g>
    </g>
</svg>