<?xml version="1.0" encoding="UTF-8"?>
<svg width="20px" height="20px" viewBox="0 0 20 20" version="1.1" xmlns="http://www.w3.org/2000/svg" xmlns:xlink="http://www.w3.org/1999/xlink">
    <title>编组 12</title>
    <g id="列表、左侧菜单规范" stroke="none" stroke-width="1" fill="none" fill-rule="evenodd">
        <g id="个人云盘" transform="translate(-358.000000, -478.000000)">
            <g id="列表" transform="translate(311.998048, 172.000000)">
                <g id="编组-12" transform="translate(46.001952, 306.000000)">
                    <rect id="矩形" fill="#DE315B" x="0" y="0" width="19.8666881" height="19.8666881" rx="4"></rect>
                    <path d="M11.1345341,13 C10.2425695,13 9.44261386,11.4486403 9.02174317,10.4398462 C8.31373622,10.1403213 7.53328727,9.86054759 6.77513745,9.67971276 C6.11174881,10.1233598 4.98289126,10.787405 4.11601818,10.787405 C3.57806709,10.787405 3.19062499,10.5133123 3.04847315,10.0357625 C2.93976998,9.64297972 3.03175886,9.37169693 3.14881917,9.22474444 C3.37737505,8.90825802 3.8484288,8.74719468 4.55364334,8.74719468 C5.1250431,8.74719468 5.84974425,8.84892318 6.65807714,9.04671956 C7.17929384,8.6708983 7.70888778,8.23572184 8.17996162,7.77511326 C7.97091243,6.76914948 7.74233646,5.1386631 8.32211345,4.38702058 C8.60918945,4.0281405 9.04681461,3.90945046 9.57640855,4.07053417 C10.1561855,4.2400681 10.3763642,4.59894818 10.4432615,4.88153188 C10.6885518,5.86206353 9.57640855,7.18453409 8.82661587,7.96162909 C8.99385923,8.63416527 9.21405797,9.34343448 9.48164735,9.99334849 C10.5575495,10.4793892 11.8369161,11.20562 11.9818804,11.9968462 C12.0404005,12.2709389 11.9567889,12.5252602 11.7365901,12.7485091 C11.5470477,12.9067421 11.3463556,13 11.134514,13 L11.1345341,13 Z M11,11 C11.3368304,11.679375 11.657971,12 11.8272483,12 C11.8534554,12 11.8901109,11.9895938 11.9424561,11.948 C12.0052842,11.885625 12.0052842,11.8440313 11.9948014,11.8059062 C11.9599046,11.627375 11.6754194,11.3345 11,11 Z M4.40885169,9.95 C4.11959235,9.95 4.04009232,9.96887 4.01588861,9.977675 C4.0089812,9.980505 3.98824046,9.988995 4.0089812,10.011005 C4.02625899,10.029875 4.07466641,10.05 4.22446275,10.05 C4.41229613,10.05 4.68425917,10.021385 5,9.970125 C4.77414808,9.956605 4.57477766,9.95 4.40885169,9.95 Z M8,10.0137769 C8.33332143,10.0237769 8.67892857,10.0366654 9,10.05 C8.88342857,10.0171115 8.78935714,9.98288846 8.70964286,9.95 C8.477181,9.97178075 8.24058334,9.99304422 8,10.0137769 L8,10.0137769 Z M9.44709882,5 C9.33261675,5 9.25230689,5.02194643 9.18003146,5.06269643 C8.96717068,5.20167857 8.94306737,5.55173214 9.10772155,6 C9.73223504,5.65308929 10.0716123,5.334375 9.98726799,5.16405357 C9.97519909,5.13898214 9.93906138,5.06269643 9.64789072,5.01880357 C9.56754637,5.00626786 9.50733984,5 9.44709882,5 Z" id="形状" fill="#FFFFFF" fill-rule="nonzero"></path>
                    <path d="M7.58331992,7.3237761 L9.54999195,7.3237761 C11.2068462,7.3237761 12.549992,8.66692185 12.549992,10.3237761 L12.549992,24.7071282 C12.549992,26.0786368 11.4381645,27.1904642 10.0666559,27.1904642 C8.69514733,27.1904642 7.58331992,26.0786368 7.58331992,24.7071282 L7.58331992,7.3237761 L7.58331992,7.3237761 Z" id="矩形" fill="#C9134B" transform="translate(10.066656, 17.257120) scale(1, -1) rotate(-90.000000) translate(-10.066656, -17.257120) "></path>
                    <path d="M14.9000161,0 L16.8666881,0 C18.5235424,-7.48448398e-16 19.8666881,1.34314575 19.8666881,3 L19.8666881,17.3833521 C19.8666881,18.7548607 18.7548607,19.8666881 17.3833521,19.8666881 C16.0118435,19.8666881 14.9000161,18.7548607 14.9000161,17.3833521 L14.9000161,0 L14.9000161,0 Z" id="矩形" fill="#FFFFFF" opacity="0.155846005"></path>
                </g>
            </g>
        </g>
    </g>
</svg>