<?xml version="1.0" encoding="UTF-8"?>
<svg width="14px" height="14px" viewBox="0 0 14 14" version="1.1" xmlns="http://www.w3.org/2000/svg" xmlns:xlink="http://www.w3.org/1999/xlink">
    <title>删除</title>
    <g id="列表、左侧菜单规范" stroke="none" stroke-width="1" fill="none" fill-rule="evenodd">
        <g id="个人云盘" transform="translate(-96.000000, -278.000000)" fill="#389BFF" fill-rule="nonzero">
            <g id="编组-5" transform="translate(65.744998, 104.999999)">
                <g id="删除" transform="translate(30.255002, 173.000001)">
                    <path d="M2.34431304,2.82758628 L11.1729283,2.82758628 C11.0250162,2.82758628 10.9017182,2.69717025 10.9110219,2.54810693 L10.2428328,13.2538171 C10.2506991,13.1277836 10.3498662,13.0344828 10.4778493,13.0344828 L3.03939204,13.0344828 C3.16609687,13.0344828 3.26663522,13.1292743 3.27440859,13.2538171 L2.60621949,2.54810693 C2.6155179,2.6970872 2.49275117,2.82758628 2.34431304,2.82758628 Z M2.31076639,13.3139621 C2.33470952,13.6975761 2.65546762,14 3.03939204,14 L10.4778493,14 C10.8600472,14 11.1825973,13.6965304 11.206475,13.3139621 L11.8746641,2.6082519 C11.9001373,2.20011714 11.5805398,1.86206903 11.1729283,1.86206903 L2.34431304,1.86206903 C1.93613822,1.86206903 1.61716728,2.2011302 1.64257728,2.6082519 L2.31076639,13.3139621 Z M13.0344828,2.82758628 C13.3011029,2.82758628 13.5172414,2.61144775 13.5172414,2.34482765 C13.5172414,2.0782073 13.3011029,1.86206903 13.0344828,1.86206903 L0.482758623,1.86206903 C0.216138521,1.86206903 9.71445147e-17,2.0782073 9.71445147e-17,2.34482765 C9.71445147e-17,2.61144775 0.216138521,2.82758628 0.482758623,2.82758628 L13.0344828,2.82758628 Z M4.66476139,2.82758628 L8.85248,2.82758628 C9.24711272,2.82758628 9.56577277,2.50532872 9.56577277,2.11276028 L9.56577277,0.714826 C9.56577277,0.320813377 9.2445797,0 8.85248,0 L4.66476139,0 C4.27012867,0 3.95146862,0.322257551 3.95146862,0.714826 L3.95146862,2.11276028 C3.95146862,2.50677265 4.2726617,2.82758628 4.66476139,2.82758628 Z M4.91698587,0.714826 C4.91698587,0.853086623 4.80581042,0.965517246 4.66476139,0.965517246 L8.85248,0.965517246 C8.71159462,0.965517246 8.60025552,0.854309695 8.60025552,0.714826 L8.60025552,2.11276028 C8.60025552,1.97449942 8.71143097,1.86206903 8.85248,1.86206903 L4.66476139,1.86206903 C4.80564677,1.86206903 4.91698587,1.97327658 4.91698587,2.11276028 L4.91698587,0.714826 Z M7.90293749,11.4224139 C7.90293749,11.689034 8.11907577,11.9051725 8.38569612,11.9051725 C8.65231622,11.9051725 8.86845472,11.689034 8.86845472,11.4224139 L8.86845472,4.43965514 C8.86845472,4.17303503 8.65231622,3.95689652 8.38569612,3.95689652 C8.11907577,3.95689652 7.90293749,4.17303503 7.90293749,4.43965514 L7.90293749,11.4224139 Z M5.6143039,4.43965514 C5.6143039,4.17303503 5.39816562,3.95689652 5.13154528,3.95689652 C4.86492517,3.95689652 4.64878667,4.17303503 4.64878667,4.43965514 L4.64878667,11.4224139 C4.64878667,11.689034 4.86492517,11.9051725 5.13154528,11.9051725 C5.39816562,11.9051725 5.6143039,11.689034 5.6143039,11.4224139 L5.6143039,4.43965514 Z" id="形状"></path>
                </g>
            </g>
        </g>
    </g>
</svg>