<?xml version="1.0" encoding="UTF-8"?>
<svg width="23px" height="23px" viewBox="0 0 23 23" version="1.1" xmlns="http://www.w3.org/2000/svg" xmlns:xlink="http://www.w3.org/1999/xlink">
    <title>编组 7</title>
    <g id="列表、左侧菜单规范" stroke="none" stroke-width="1" fill="none" fill-rule="evenodd">
        <g id="子流程编排" transform="translate(-1553.000000, -156.000000)">
            <g id="个人支出信息汇总" transform="translate(825.820545, 492.500000) scale(-1, 1) translate(-825.820545, -492.500000) translate(67.041096, 100.000000)">
                <g id="编组-7" transform="translate(8.599994, 56.000000)">
                    <path d="M19,0.5 C19.9664983,0.5 20.8414983,0.891750844 21.4748737,1.52512627 C22.1082492,2.15850169 22.5,3.03350169 22.5,4 L22.5,4 L22.5,19 C22.5,19.9664983 22.1082492,20.8414983 21.4748737,21.4748737 C20.8414983,22.1082492 19.9664983,22.5 19,22.5 L19,22.5 L4,22.5 C3.03350169,22.5 2.15850169,22.1082492 1.52512627,21.4748737 C0.891750844,20.8414983 0.5,19.9664983 0.5,19 L0.5,19 L0.5,4 C0.5,3.03350169 0.891750844,2.15850169 1.52512627,1.52512627 C2.15850169,0.891750844 3.03350169,0.5 4,0.5 L4,0.5 Z" id="Rectangle-14" stroke="#CCCCCC" transform="translate(11.500000, 11.500000) scale(-1, 1) translate(-11.500000, -11.500000) "></path>
                    <g id="放大-(1)" transform="translate(5.000000, 6.000000)" fill="#333333" fill-rule="nonzero">
                        <g id="还原-(1)">
                            <path d="M1.52194494,7.34605208 C1.40869086,7.34605208 1.29543678,7.29759086 1.2133686,7.20401058 L0.1021655,5.92229494 C-0.0471985801,5.74850299 -0.030784945,5.48447291 0.138275497,5.33240496 C0.308977303,5.180337 0.568312738,5.19704776 0.717676818,5.36916864 L1.82887992,6.65088428 C1.978244,6.82467623 1.96183036,7.08870631 1.79276992,7.24077427 C1.71562583,7.31263055 1.61878539,7.34605208 1.52194494,7.34605208 L1.52194494,7.34605208 Z M1.64176448,7.43461913 C1.52686903,7.43461913 1.41197358,7.38615792 1.33154677,7.28923548 C1.18382406,7.11377246 1.20187905,6.85141345 1.37422222,6.6993455 L2.71521622,5.5212366 C2.88755938,5.37083972 3.14525346,5.38922156 3.29461754,5.56468458 C3.44398162,5.74014761 3.42428525,6.00250661 3.25194208,6.15457457 L1.91094809,7.33268347 C1.83216264,7.4011976 1.73696356,7.43461913 1.64176448,7.43461913 L1.64176448,7.43461913 Z M7.10914634,12 C6.83668,12 6.61673729,11.7760758 6.61673729,11.4986771 C6.61673729,11.2212784 6.83668,10.9973541 7.10914634,10.9973541 C9.81575478,10.9973541 12.0184646,8.75476953 12.0184646,5.99916446 C12.0184646,3.24355939 9.81575478,1.00097479 7.10914634,1.00097479 C4.40253791,1.00097479 2.19982807,3.24355939 2.19982807,5.99916446 C2.19982807,6.27656315 1.97988536,6.5004874 1.70741902,6.5004874 C1.43495267,6.5004874 1.21500996,6.27656315 1.21500996,5.99916446 C1.21500996,5.18869238 1.3709395,4.40328645 1.67787447,3.66299958 C1.97496127,2.94777886 2.40007442,2.3060855 2.94008302,1.75630135 C3.48173298,1.20484612 4.11201657,0.772037321 4.81287879,0.471243559 C5.54000282,0.158752263 6.31144368,0 7.10750498,0 C7.90356629,0 8.67500714,0.158752263 9.40213118,0.471243559 C10.1046348,0.773708397 10.7349183,1.2065172 11.2749269,1.75630135 C11.8165769,2.30775658 12.2416901,2.94944994 12.5371355,3.66299958 C12.8440705,4.40328645 13,5.18869238 13,5.99916446 C13,6.80963654 12.8440705,7.59504247 12.5371355,8.33532934 C12.2400487,9.05055006 11.8149355,9.69224342 11.2749269,10.2420276 C10.733277,10.7934828 10.1029934,11.2262916 9.40213118,11.5270854 C8.6766485,11.8412477 7.90520765,12 7.10914634,12 L7.10914634,12 Z" id="形状"></path>
                        </g>
                    </g>
                </g>
            </g>
        </g>
    </g>
</svg>