<?xml version="1.0" encoding="UTF-8"?>
<svg width="18px" height="14px" viewBox="0 0 18 14" version="1.1" xmlns="http://www.w3.org/2000/svg" xmlns:xlink="http://www.w3.org/1999/xlink">
    <title>邮件</title>
    <g id="页面-1" stroke="none" stroke-width="1" fill="none" fill-rule="evenodd">
        <g id="邮件" transform="translate(0.000000, 0.000000)" fill="#FFFFFF" fill-rule="nonzero">
            <path d="M16.3437584,13.2331481 L1.65624149,13.2331481 C0.742919301,13.2331481 0,12.4902288 0,11.5769066 L0,1.65624149 C0,0.742919301 0.742919301,0 1.65624149,0 L16.3437584,0 C17.2570806,0 18,0.742919301 18,1.65624149 L18,11.5769066 C18.000233,12.4902288 17.2570806,13.2331481 16.3437584,13.2331481 Z M1.65624149,1.1042387 C1.35180076,1.1042387 1.1042387,1.35203387 1.1042387,1.65624149 L1.1042387,11.5769066 C1.1042387,11.8813473 1.35180076,12.1289094 1.65624149,12.1289094 L16.3437584,12.1289094 C16.6481991,12.1289094 16.8957612,11.8811142 16.8957612,11.5769066 L16.8957612,1.65624149 C16.8957612,1.35180076 16.6481991,1.1042387 16.3437584,1.1042387 L1.65624149,1.1042387 Z" id="形状"></path>
            <path d="M8.99988339,7.83526939 C8.23505182,7.83526939 7.46998713,7.54411589 6.88768013,6.96180889 L1.16577955,1.2399083 L1.94646255,0.459225297 L7.66859625,6.18112588 C8.4028905,6.91518703 9.5975756,6.91495392 10.3316368,6.18112588 L16.0537704,0.459225297 L16.8344535,1.2399083 L11.1123198,6.96180889 C10.5300128,7.54411589 9.76518118,7.83526939 8.99988339,7.83526939 Z" id="路径"></path>
            <path d="M16.0535373,12.5923306 L10.3316368,6.87066315 L11.1120866,6.08951393 L16.8342203,11.8116476 L16.0535373,12.5923306 Z M1.94646255,12.5923306 L1.16577955,11.8116476 L6.88791324,6.08951393 L7.66859625,6.87066315 L1.94646255,12.5923306 Z" id="形状"></path>
        </g>
    </g>
</svg>