<?xml version="1.0" encoding="UTF-8"?>
<svg width="18px" height="18px" viewBox="0 0 18 18" version="1.1" xmlns="http://www.w3.org/2000/svg" xmlns:xlink="http://www.w3.org/1999/xlink">
    <title>待办</title>
    <g id="列表、左侧菜单规范" stroke="none" stroke-width="1" fill="none" fill-rule="evenodd">
        <g id="个人信息" transform="translate(-1474.000000, -23.000000)" fill="#FFFFFF" fill-rule="nonzero">
            <g id="待办" transform="translate(1474.000000, 23.000000)">
                <path d="M1.12478595,16.69277 L1.12478595,1.28022337 C1.12478595,1.19454091 1.19425207,1.12478595 1.27993453,1.12478595 L14.2471168,1.12478595 C14.3327992,1.12478595 14.4025542,1.19454091 14.4025542,1.28022337 L14.4025542,7.49840107 L15.5273401,7.49840107 L15.5273401,1.28022337 C15.5273401,0.574483013 14.953146,0 14.2471168,0 L1.27993453,0 C0.57419418,0 0,0.574483013 0,1.28022337 L0,16.69277 C0,17.3985104 0.57419416,17.9729934 1.27993453,17.9729934 L8.53942327,17.9729934 L8.53942327,16.8482075 L1.27993453,16.8482075 C1.19425207,16.8482075 1.12478595,16.7784525 1.12478595,16.69277 Z" id="路径"></path>
                <path d="M4.48787901,9.84683893 C4.17729301,9.84683893 3.92548604,10.0983777 3.92548604,10.4092319 C3.92548604,10.7200861 4.17729301,10.9716249 4.48787901,10.9716249 L6.73361347,10.9716249 C7.04419948,10.9716249 7.29600644,10.7200861 7.29600644,10.4092319 C7.29600644,10.0983777 7.04419948,9.84683893 6.73361347,9.84683893 L4.48787901,9.84683893 Z M11.5178015,7.36660731 C11.5178015,7.0557531 11.2659946,6.80421433 10.9554085,6.80421433 L4.48787901,6.80421433 C4.17729301,6.80421433 3.92548604,7.0557531 3.92548604,7.36660731 C3.92548604,7.67746151 4.17729301,7.92900028 4.48787901,7.92900028 L10.9554085,7.92900028 C11.2659946,7.92900028 11.5178015,7.67746151 11.5178015,7.36660731 L11.5178015,7.36660731 Z M10.9554085,3.87250446 L4.48787901,3.87250446 C4.17729301,3.87250446 3.92548604,4.12404323 3.92548604,4.43489744 C3.92548604,4.74575164 4.17729301,4.99729041 4.48787901,4.99729041 L10.9554085,4.99729041 C11.2659946,4.99729041 11.5178015,4.74575164 11.5178015,4.43489744 C11.5178015,4.12404323 11.2659946,3.87250446 10.9554085,3.87250446 Z M15.2225103,13.1909923 L14.1012936,13.1909923 L14.1012936,11.371999 C14.1012936,11.0611448 13.8494866,10.809606 13.5389006,10.809606 C13.2283146,10.809606 12.9765076,11.0611448 12.9765076,11.371999 L12.9765076,13.7533853 C12.9765076,14.0642395 13.2283146,14.3157783 13.5389006,14.3157783 L15.2225309,14.3157783 C15.5331169,14.3157783 15.7849239,14.0642395 15.7849239,13.7533853 C15.7849239,13.4425311 15.5330963,13.1909923 15.2225103,13.1909923 Z" id="形状"></path>
                <path d="M13.5758103,9.08797256 C11.1324265,9.08797256 9.15164124,11.0687372 9.15164124,13.5121416 C9.15164124,15.9555461 11.1324058,17.9363313 13.5758103,17.9363313 C16.0192148,17.9363313 18,15.9555667 18,13.5121416 C18,11.0687372 16.0192148,9.08797256 13.5758103,9.08797256 Z M13.5758103,16.8115247 C11.7565281,16.8115247 10.2764272,15.3314238 10.2764272,13.512121 C10.2764272,11.6928388 11.7565281,10.2127379 13.5758103,10.2127379 C15.3950925,10.2127379 16.8751934,11.6928388 16.8751934,13.512121 C16.8751934,15.3314238 15.3951131,16.8115247 13.5758103,16.8115247 Z" id="形状"></path>
            </g>
        </g>
    </g>
</svg>