<?xml version="1.0" encoding="UTF-8"?>
<svg width="20px" height="20px" viewBox="0 0 20 20" version="1.1" xmlns="http://www.w3.org/2000/svg" xmlns:xlink="http://www.w3.org/1999/xlink">
    <title>编组 12</title>
    <g id="列表、左侧菜单规范" stroke="none" stroke-width="1" fill="none" fill-rule="evenodd">
        <g id="编组-12">
            <rect id="矩形" fill="#1884DE" x="0" y="0" width="19.8666881" height="19.8666881" rx="4"></rect>
            <path d="M7.58331992,7.3237761 L9.54999195,7.3237761 C11.2068462,7.3237761 12.549992,8.66692185 12.549992,10.3237761 L12.549992,24.7071282 C12.549992,26.0786368 11.4381645,27.1904642 10.0666559,27.1904642 C8.69514733,27.1904642 7.58331992,26.0786368 7.58331992,24.7071282 L7.58331992,7.3237761 L7.58331992,7.3237761 Z" id="矩形" fill="#0070CC" transform="translate(10.066656, 17.257120) scale(1, -1) rotate(-90.000000) translate(-10.066656, -17.257120) "></path>
            <path d="M14.9000161,0 L16.8666881,0 C18.5235424,-7.48448398e-16 19.8666881,1.34314575 19.8666881,3 L19.8666881,17.3833521 C19.8666881,18.7548607 18.7548607,19.8666881 17.3833521,19.8666881 C16.0118435,19.8666881 14.9000161,18.7548607 14.9000161,17.3833521 L14.9000161,0 L14.9000161,0 Z" id="矩形" fill="#FFFFFF" opacity="0.155846005"></path>
            <g id="mp3-(1)" transform="translate(2.112500, 2.668750)" fill="#FFFFFF" fill-rule="nonzero">
                <g id="文本文档">
                    <path d="M1.83199063,5.41599531 L10.9983888,5.41599531 L10.9983888,6.33279625 L1.83199063,6.33279625 L1.83199063,5.41599531 Z M0,7.24959719 L11,7.24959719 L11,8.16639813 L0,8.16639813 L0,7.24959719 Z M0,9.08158781 L11,9.08158781 L11,9.99838875 L0,9.99838875 L0,9.08158781 Z M0.916800937,4.58239344 L1.83199063,4.58239344 L1.83199063,0.916800937 L2.74879156,0.916800937 L2.74879156,0 L0,0 L0,0.916800937 L0.916800937,0.916800937 L0.916800937,4.58239344 Z M8.24959719,0.916800937 L9.16639813,0.916800937 L9.16639813,4.58239344 L10.0815878,4.58239344 L10.0815878,0.916800937 L10.9983888,0.916800937 L10.9983888,0 L8.24959719,0 L8.24959719,0.916800937 Z M4.49055222,4.398711 L5.49919438,3.05492896 L6.50783653,4.398711 L7.24095503,3.84927494 L6.07279918,2.29119672 L7.24095503,0.7331185 L6.50783653,0.183682437 L5.49919438,1.52746448 L4.49055222,0.183682437 L3.75743372,0.7331185 L4.92558957,2.29119672 L3.75743372,3.84927494 L4.49055222,4.398711 Z" id="形状"></path>
                </g>
            </g>
        </g>
    </g>
</svg>