<?xml version="1.0" encoding="UTF-8"?>
<svg width="150px" height="119px" viewBox="0 0 150 119" version="1.1" xmlns="http://www.w3.org/2000/svg" xmlns:xlink="http://www.w3.org/1999/xlink">
    <title>已办结</title>
    <g id="页面-1" stroke="none" stroke-width="1" fill="none" fill-rule="evenodd">
        <g id="待办事项" transform="translate(-555.000000, -799.000000)" fill="#999999" fill-rule="nonzero">
            <g id="编组-26" transform="translate(24.000000, 708.000000)">
                <g id="已办结" transform="translate(531.000000, 91.000000)">
                    <path d="M50.754501,14.890717 L48.7058972,13.5092377 L48.8593948,15.9829121 L46.9170586,17.5060815 L49.3139842,18.1200723 L50.1641253,20.4461528 L51.4865669,18.3562226 L53.9602413,18.2617625 L52.3839381,16.3548488 L53.0569665,13.9756346 L50.754501,14.890717 L50.754501,14.890717 Z M99.985935,100.152783 L97.9314274,98.7772076 L98.084925,101.244978 L96.1425888,102.774051 L98.5395144,103.388042 L99.3896555,105.708219 L100.712097,103.618289 L103.185772,103.523829 L101.609468,101.622819 L102.282497,99.2436045 L99.985935,100.152783 L99.985935,100.152783 Z M61.6941637,103.163699 L61.4639172,105.625566 L59.3031418,106.829933 L61.5760885,107.809957 L62.0542929,110.236401 L63.6896338,108.382621 L66.1455969,108.671905 L64.8880966,106.546552 L65.9271578,104.303125 L63.512521,104.840367 L61.6941637,103.163699 L61.6941637,103.163699 Z M88.9931385,9.74264036 L87.1806849,8.06006956 L86.9504384,10.5219364 L84.7896631,11.7322067 L87.056706,12.7122305 L87.5349104,15.1386748 L89.1702512,13.2789912 L91.6262144,13.5741791 L90.3687139,11.4488263 L91.4077753,9.19949477 L88.9931385,9.74264036 L88.9931385,9.74264036 Z M27.9719007,48.5834611 L30.2212323,49.6225225 L29.6780866,47.2078857 L31.3606575,45.3954321 L28.8987907,45.1651856 L27.6944241,43.0044103 L26.7084966,45.2714532 L24.2820523,45.7555613 L26.1417359,47.3849984 L25.846548,49.8409615 L27.9719007,48.5834611 L27.9719007,48.5834611 Z M123.075531,74.0640786 L125.318959,75.10314 L124.775813,72.6885031 L126.458384,70.8760495 L123.996517,70.645803 L122.79215,68.4850278 L121.812127,70.7579744 L119.385682,71.2361787 L121.239462,72.8715196 L120.944274,75.3274828 L123.075531,74.0640786 L123.075531,74.0640786 Z M67.845879,12.5646365 L70.183767,13.3793551 L69.404471,11.0296596 L70.8981216,9.05780453 L68.4244473,9.0755158 L67.0075455,7.04462321 L66.2577682,9.40022245 L63.8903615,10.1204809 L65.9035428,11.5609978 L65.8563127,14.0346721 L67.845879,12.5646365 L67.845879,12.5646365 Z M82.7882893,109.882176 L85.1261772,110.69099 L84.3468813,108.341295 L85.840532,106.36944 L83.3668575,106.387151 L81.9499557,104.356259 L81.2001786,106.711858 L78.8327718,107.432116 L80.8459531,108.872633 L80.798723,111.346307 L82.7882893,109.882176 L82.7882893,109.882176 Z M34.9914685,28.6641833 L32.5591203,28.2273052 L33.6926417,30.4294068 L32.5296015,32.6078933 L34.9678534,32.2064378 L36.6858468,33.9893726 L37.0577836,31.545217 L39.2775963,30.4648293 L37.0695911,29.3549229 L36.7271732,26.9048636 L34.9914685,28.6641833 L34.9914685,28.6641833 Z M114.367488,86.9106549 L111.93514,86.4737769 L113.068662,88.6699748 L111.905621,90.854365 L114.343873,90.4529095 L116.061867,92.2358443 L116.433803,89.7857849 L118.65952,88.7053973 L116.445611,87.6013946 L116.109097,85.1513352 L114.367488,86.9106549 L114.367488,86.9106549 Z" id="形状"></path>
                    <path d="M46.9524812,10.4924176 C65.0769335,0.0507380291 87.5030029,0.548994033 105.145819,11.7853406 L108.03866,10.1204809 C89.3240188,-2.52515067 65.0346207,-3.38492725 45.4726985,7.90582133 C25.9107764,19.1965699 14.5051807,40.65878 16.0935405,63.1893573 L18.9745742,61.5304014 C18.067254,40.6348003 28.8488996,20.966658 46.9524812,10.4924176 L46.9524812,10.4924176 Z M103.038178,107.638748 C84.9203461,118.073538 62.5047601,117.575313 44.8684548,106.345825 L41.9874211,108.010684 C60.7040258,120.64111 84.985436,121.489782 104.538196,110.19693 C124.090956,98.9040777 135.490006,77.4478713 133.903022,54.9240967 L131.016085,56.5830526 C131.934172,77.485836 121.150543,97.1644237 103.038178,107.638748 L103.038178,107.638748 Z" id="形状"></path>
                    <path d="M115.182207,65.7397805 L111.74622,67.723443 C109.373507,77.8670027 102.909482,86.5767271 93.888026,91.7858437 C84.8665697,96.9949603 74.091834,98.2391401 64.120608,95.2231456 L60.6846211,97.2068081 C72.0912441,101.487169 84.8149318,100.437345 95.3657323,94.3452888 C105.916533,88.253233 113.186733,77.7585417 115.182207,65.7397805 L115.182207,65.7397805 Z M56.085594,26.3440066 C65.1086573,21.13385 75.8855994,19.8901101 85.8582432,22.9080197 L89.2942301,20.9243572 C77.8917846,16.6569314 65.1782986,17.7133115 54.6365313,23.8041103 C44.0947641,29.8949092 36.8298911,40.381581 34.832067,52.3913847 L38.2680539,50.4077223 C40.6282278,40.2696425 47.0773743,31.5596619 56.085594,26.3440066 Z M131.978397,6.32436485 C130.263689,3.3605682 126.472256,2.34599677 123.506505,4.05732194 L3.09937032,73.5740667 C1.67522138,74.3952967 0.636031503,75.7490729 0.210789303,77.3370868 C-0.214452897,78.9251006 0.00915035519,80.6170307 0.83232741,82.0400551 L18.0181655,111.8068 C19.7350118,114.767806 23.5238479,115.781683 26.4900576,114.073843 L146.891288,44.5570985 C147.522317,44.1993431 148.084172,43.7314638 148.550244,43.1756193 C149.125826,42.4858421 149.546603,41.680527 149.78413,40.8141163 C150.216781,39.220188 149.993554,37.5194049 149.164235,36.0911102 L131.978397,6.32436485 Z M146.932615,40.0289165 C146.712952,40.8636636 146.165946,41.5745576 145.415349,42.0007716 L25.0141182,111.517516 C23.4617356,112.414739 21.4760532,111.886632 20.5744926,110.336765 L3.38865444,80.5641157 C2.70661773,79.3808637 2.83631682,77.8975776 3.71336109,76.8506522 C3.95578354,76.5614431 4.24762883,76.3175723 4.57530969,76.1303937 L125.011963,6.61364897 C126.564346,5.71642595 128.550028,6.24453297 129.451589,7.79440046 L146.607908,37.5670496 C147.039302,38.3118121 147.156155,39.1977718 146.932615,40.0289165 L146.932615,40.0289165 Z" id="形状"></path>
                    <g id="已作废-(1)" transform="translate(76.304858, 57.937242) rotate(-75.000000) translate(-76.304858, -57.937242) translate(44.275832, 24.664871)">
                        <path d="M10.7218418,25.2964015 C12.712154,27.2869878 13.6106875,26.9689884 16.7894011,24.2873434 C16.9372644,24.993101 17.2187556,25.664053 17.6186979,26.2640242 C13.9283624,29.2499036 12.3527688,29.6368684 9.32587074,26.6648945 L2.5120146,19.8361948 C-0.404216902,16.9195618 -0.805172434,15.4957279 1.433999,13.2563887 L10.5559825,4.13314928 L11.9380502,5.51540721 L8.9664854,8.43218067 L18.4894243,17.9701958 L23.2715385,13.1872828 L11.4128054,1.3823984 L12.7950135,4.54747351e-13 L26.0356738,13.2424832 L17.742987,21.5365926 L16.3610599,20.1541942 L17.2730756,19.2419124 L7.63975102,9.77300316 L2.82982976,14.5834462 C1.68271777,15.7307161 1.82091055,16.3942448 3.79745966,18.3571605 L10.7218418,25.2964015 Z" id="路径"></path>
                        <path d="M36.4155762,22.365863 C34.5494887,23.1940986 32.6226773,23.8780772 30.652069,24.4117901 L18.4203279,36.6452152 L17.03812,35.2630977 L27.1829261,25.1167543 C25.8675768,25.3407692 24.5366398,25.4609049 23.2024421,25.4760487 C23.4726636,24.7906884 23.6628155,24.076401 23.7691165,23.3473911 C27.8366706,23.2680135 31.8410059,22.3256788 35.517183,20.5827349 L36.4155762,22.365863 Z" id="路径"></path>
                        <path d="M37.8944068,31.5444433 L35.2959904,34.1432173 L40.4928231,39.3407656 L39.2350447,40.5987172 L34.0383524,35.4011689 L31.2740767,38.1658253 L36.7333914,43.6258916 L35.4618497,44.8976082 L30.0025352,39.4375419 L25.5935694,43.8471146 L24.2113613,42.4647162 L36.5261022,30.1482799 L35.2684642,28.8904687 C33.1932618,29.5355152 31.0506018,29.9390513 28.8829494,30.0930794 C28.884315,29.4312158 28.8335056,28.7702746 28.7309936,28.1163986 C32.5851502,27.9177476 36.3535162,26.9048098 39.7879561,25.1442843 L40.741542,26.7893412 C39.6081931,27.3421881 38.4473182,27.8121643 37.27268,28.2546105 L44.8603591,35.8436151 L43.5612914,37.1428617 L37.8944068,31.5444433 Z" id="路径"></path>
                        <path d="M64.0580525,52.7076955 L62.7589848,54.0070826 L48.9376061,40.1839415 L45.1229815,43.9990914 C42.3587058,46.7637477 37.9359769,50.7449202 33.7894931,52.1825189 C33.7416987,51.5192879 33.6117336,50.8645604 33.4025817,50.2333681 C37.3000657,48.8512507 41.1562606,45.257043 43.7684401,42.6443635 L48.8686502,37.543732 L56.1111285,44.7872073 C56.4001132,43.9716668 56.6446042,43.141033 56.8435218,42.2989746 L58.5158785,43.3909036 C58.3223525,44.3170908 58.0183003,45.5197016 57.7833447,46.4182184 L64.0580525,52.7076955 Z" id="路径"></path>
                        <path d="M50.8586815,43.5430207 L52.0611268,45.1465016 C50.8674938,45.8459655 49.602591,46.4159494 48.2879318,46.846759 L50.7343924,49.2935564 C52.0968547,48.5502946 53.4123103,47.7239113 54.6733062,46.8190885 L55.8066551,48.3121687 C54.5351136,49.183015 53.2913791,49.9569447 52.0611268,50.6342384 L56.4700925,55.0438112 C56.5806187,53.9931771 56.6498553,52.1271782 56.6636184,50.7172498 L58.2668787,51.0490141 C58.3288355,52.4633029 58.3150057,53.8798955 58.2254489,55.2927046 L56.5529519,55.0023757 L58.7091235,57.1588441 L57.4929153,58.3752199 L50.5821557,51.4636493 C49.7667624,51.8507545 48.9376061,52.1962839 48.1635023,52.5003778 L53.2496684,57.5873848 L53.5813871,57.7671725 L53.9409129,59.1769603 C51.7396421,60.0136085 49.3681272,60.3030091 47.0302938,60.0202767 C47.7975286,62.2220517 48.8674085,64.3063237 50.2091476,66.213118 C49.5371595,66.2207476 48.8704245,66.3326199 48.232739,66.5447419 C46.8505965,64.4161036 45.8106107,62.0839417 45.1506482,59.6331715 C42.8169446,59.0919593 40.5828715,58.1870209 38.530318,56.9515265 C38.75152,56.3826481 38.8685459,55.7785969 38.8757998,55.1682578 C40.6977182,56.3110031 42.6765614,57.1818405 44.7498331,57.753267 C44.5142302,56.3322809 44.476986,54.8854642 44.6391665,53.4542355 C42.1257884,53.9593868 39.5330846,53.9169413 37.0375839,53.3297888 C37.1650936,52.6787999 37.2253314,52.0164225 37.2173467,51.3531081 C41.2008336,52.4069243 45.4330082,51.9541166 49.1034655,50.0813915 L47.4863018,48.4640049 C46.9197375,47.7704108 46.20075,47.2169641 45.385323,46.846759 C45.685065,46.2979618 45.9482594,45.7299746 46.1731899,45.1465016 C46.5397478,45.3025186 46.9540249,45.3025186 47.3205828,45.1465016 C48.5689669,44.7797015 49.7598828,44.2399735 50.8586815,43.5430207 Z M46.4082862,53.1779525 C46.1659152,54.8015879 46.2268678,56.456107 46.588049,58.0575014 C48.1175023,58.351321 49.6888944,58.351321 51.2183477,58.0575014 L46.4082862,53.1779525 Z" id="形状结合"></path>
                    </g>
                </g>
            </g>
        </g>
    </g>
</svg>