<?xml version="1.0" encoding="UTF-8"?>
<svg width="150px" height="119px" viewBox="0 0 150 119" version="1.1" xmlns="http://www.w3.org/2000/svg" xmlns:xlink="http://www.w3.org/1999/xlink">
    <title>已办结</title>
    <g id="页面-1" stroke="none" stroke-width="1" fill="none" fill-rule="evenodd">
        <g id="待办事项" transform="translate(-554.000000, -475.000000)" fill="#50AC50" fill-rule="nonzero">
            <g id="已办结" transform="translate(554.000000, 475.000000)">
                <path d="M50.754501,14.890717 L48.7058972,13.5092377 L48.8593948,15.9829121 L46.9170586,17.5060815 L49.3139842,18.1200723 L50.1641253,20.4461528 L51.4865669,18.3562226 L53.9602413,18.2617625 L52.3839381,16.3548488 L53.0569665,13.9756346 L50.754501,14.890717 L50.754501,14.890717 Z M99.985935,100.152783 L97.9314274,98.7772076 L98.084925,101.244978 L96.1425888,102.774051 L98.5395144,103.388042 L99.3896555,105.708219 L100.712097,103.618289 L103.185772,103.523829 L101.609468,101.622819 L102.282497,99.2436045 L99.985935,100.152783 L99.985935,100.152783 Z M61.6941637,103.163699 L61.4639172,105.625566 L59.3031418,106.829933 L61.5760885,107.809957 L62.0542929,110.236401 L63.6896338,108.382621 L66.1455969,108.671905 L64.8880966,106.546552 L65.9271578,104.303125 L63.512521,104.840367 L61.6941637,103.163699 L61.6941637,103.163699 Z M88.9931385,9.74264036 L87.1806849,8.06006956 L86.9504384,10.5219364 L84.7896631,11.7322067 L87.056706,12.7122305 L87.5349104,15.1386748 L89.1702512,13.2789912 L91.6262144,13.5741791 L90.3687139,11.4488263 L91.4077753,9.19949477 L88.9931385,9.74264036 L88.9931385,9.74264036 Z M27.9719007,48.5834611 L30.2212323,49.6225225 L29.6780866,47.2078857 L31.3606575,45.3954321 L28.8987907,45.1651856 L27.6944241,43.0044103 L26.7084966,45.2714532 L24.2820523,45.7555613 L26.1417359,47.3849984 L25.846548,49.8409615 L27.9719007,48.5834611 L27.9719007,48.5834611 Z M123.075531,74.0640786 L125.318959,75.10314 L124.775813,72.6885031 L126.458384,70.8760495 L123.996517,70.645803 L122.79215,68.4850278 L121.812127,70.7579744 L119.385682,71.2361787 L121.239462,72.8715196 L120.944274,75.3274828 L123.075531,74.0640786 L123.075531,74.0640786 Z M67.845879,12.5646365 L70.183767,13.3793551 L69.404471,11.0296596 L70.8981216,9.05780453 L68.4244473,9.0755158 L67.0075455,7.04462321 L66.2577682,9.40022245 L63.8903615,10.1204809 L65.9035428,11.5609978 L65.8563127,14.0346721 L67.845879,12.5646365 L67.845879,12.5646365 Z M82.7882893,109.882176 L85.1261772,110.69099 L84.3468813,108.341295 L85.840532,106.36944 L83.3668575,106.387151 L81.9499557,104.356259 L81.2001786,106.711858 L78.8327718,107.432116 L80.8459531,108.872633 L80.798723,111.346307 L82.7882893,109.882176 L82.7882893,109.882176 Z M34.9914685,28.6641833 L32.5591203,28.2273052 L33.6926417,30.4294068 L32.5296015,32.6078933 L34.9678534,32.2064378 L36.6858468,33.9893726 L37.0577836,31.545217 L39.2775963,30.4648293 L37.0695911,29.3549229 L36.7271732,26.9048636 L34.9914685,28.6641833 L34.9914685,28.6641833 Z M114.367488,86.9106549 L111.93514,86.4737769 L113.068662,88.6699748 L111.905621,90.854365 L114.343873,90.4529095 L116.061867,92.2358443 L116.433803,89.7857849 L118.65952,88.7053973 L116.445611,87.6013946 L116.109097,85.1513352 L114.367488,86.9106549 L114.367488,86.9106549 Z" id="形状"></path>
                <path d="M46.9524812,10.4924176 C65.0769335,0.0507380291 87.5030029,0.548994033 105.145819,11.7853406 L108.03866,10.1204809 C89.3240188,-2.52515067 65.0346207,-3.38492725 45.4726985,7.90582133 C25.9107764,19.1965699 14.5051807,40.65878 16.0935405,63.1893573 L18.9745742,61.5304014 C18.067254,40.6348003 28.8488996,20.966658 46.9524812,10.4924176 L46.9524812,10.4924176 Z M103.038178,107.638748 C84.9203461,118.073538 62.5047601,117.575313 44.8684548,106.345825 L41.9874211,108.010684 C60.7040258,120.64111 84.985436,121.489782 104.538196,110.19693 C124.090956,98.9040777 135.490006,77.4478713 133.903022,54.9240967 L131.016085,56.5830526 C131.934172,77.485836 121.150543,97.1644237 103.038178,107.638748 L103.038178,107.638748 Z" id="形状"></path>
                <path d="M115.182207,65.7397805 L111.74622,67.723443 C109.373507,77.8670027 102.909482,86.5767271 93.888026,91.7858437 C84.8665697,96.9949603 74.091834,98.2391401 64.120608,95.2231456 L60.6846211,97.2068081 C72.0912441,101.487169 84.8149318,100.437345 95.3657323,94.3452888 C105.916533,88.253233 113.186733,77.7585417 115.182207,65.7397805 L115.182207,65.7397805 Z M56.085594,26.3440066 C65.1086573,21.13385 75.8855994,19.8901101 85.8582432,22.9080197 L89.2942301,20.9243572 C77.8917846,16.6569314 65.1782986,17.7133115 54.6365313,23.8041103 C44.0947641,29.8949092 36.8298911,40.381581 34.832067,52.3913847 L38.2680539,50.4077223 C40.6282278,40.2696425 47.0773743,31.5596619 56.085594,26.3440066 Z M131.978397,6.32436485 C130.263689,3.3605682 126.472256,2.34599677 123.506505,4.05732194 L3.09937032,73.5740667 C1.67522138,74.3952967 0.636031503,75.7490729 0.210789303,77.3370868 C-0.214452897,78.9251006 0.00915035519,80.6170307 0.83232741,82.0400551 L18.0181655,111.8068 C19.7350118,114.767806 23.5238479,115.781683 26.4900576,114.073843 L146.891288,44.5570985 C147.522317,44.1993431 148.084172,43.7314638 148.550244,43.1756193 C149.125826,42.4858421 149.546603,41.680527 149.78413,40.8141163 C150.216781,39.220188 149.993554,37.5194049 149.164235,36.0911102 L131.978397,6.32436485 Z M146.932615,40.0289165 C146.712952,40.8636636 146.165946,41.5745576 145.415349,42.0007716 L25.0141182,111.517516 C23.4617356,112.414739 21.4760532,111.886632 20.5744926,110.336765 L3.38865444,80.5641157 C2.70661773,79.3808637 2.83631682,77.8975776 3.71336109,76.8506522 C3.95578354,76.5614431 4.24762883,76.3175723 4.57530969,76.1303937 L125.011963,6.61364897 C126.564346,5.71642595 128.550028,6.24453297 129.451589,7.79440046 L146.607908,37.5670496 C147.039302,38.3118121 147.156155,39.1977718 146.932615,40.0289165 L146.932615,40.0289165 Z" id="形状"></path>
                <path d="M64.4689297,73.6862382 C64.7168875,74.7016845 64.2386831,75.5518255 63.0402204,76.2484689 L52.6968373,82.2171677 C51.4806632,82.9197148 50.5065432,82.624527 49.7449584,81.3375079 L46.2027039,75.2389263 L58.7422849,67.9950159 L59.4802546,69.2761313 L61.2513819,68.260685 L55.6369085,58.4663512 L38.7580658,68.2311662 L39.6495331,69.7838544 L54.7690561,61.0581008 L57.8567213,66.4423277 L45.3407553,73.6862382 L43.6877033,70.8111082 L41.9165759,71.8501696 L48.174559,82.7603134 C49.4497706,84.9683187 51.1579245,85.4543948 53.2990205,84.2185415 L64.4512184,77.7775421 C66.3797792,76.659764 67.0980698,75.1916963 66.60609,73.373339 C66.2240324,72.0661287 65.764699,70.7827553 65.2305145,69.5299929 C64.5184397,69.7164755 63.7945588,69.8545454 63.0638354,69.9432559 C63.6494507,71.1437019 64.119921,72.3969714 64.4689297,73.6862382 L64.4689297,73.6862382 Z M67.3027333,60.615319 L65.2600332,60.9577369 C65.7183101,63.5473674 65.9337487,66.1741365 65.9035428,68.8038307 C66.6828388,68.7329856 67.3735784,68.6857556 67.9816654,68.6680443 C67.8478469,65.9287008 67.6215362,63.2444591 67.3027333,60.615319 L67.3027333,60.615319 Z M79.848218,53.4009273 C81.725613,54.9083534 83.4967402,56.427587 85.1615999,57.9586281 L86.5312716,56.3587098 C84.5633524,54.7292728 82.746963,53.2808842 81.0821033,52.0135443 L79.848218,53.4009273 Z" id="形状"></path>
                <path d="M67.3027333,49.9649404 L65.5316061,50.9803868 C66.2518645,52.2674058 66.9544117,53.554425 67.62744,54.8296366 L61.4698209,58.3718911 L62.4675559,60.0957883 L68.5366186,56.5889564 C70.6619713,60.7215866 71.7482627,63.756118 71.7954928,65.6925504 C72.0119639,67.8257748 71.2484113,70.6064446 69.5048349,74.0345598 C70.1483445,74.2766139 70.7859503,74.5540905 71.4117486,74.8610859 C73.300951,71.2952164 74.1255091,68.2843001 73.885423,65.8283369 C73.7791553,63.4668339 72.5767567,60.0524941 70.2782271,55.5853175 L76.3709049,52.043063 C78.4332842,55.7742378 80.2044115,59.0980533 81.6842867,62.0145096 C82.6406954,63.8682895 82.4439035,65.2045065 81.093911,66.0231608 C79.7431425,66.7889295 78.351738,67.4806901 76.9258581,68.0953798 C77.5162338,68.7959591 78.0003419,69.4099498 78.3781824,69.9373521 C79.8226351,69.1816711 81.1667239,68.4437014 82.4104488,67.723443 C84.6302616,66.408873 85.0376209,64.3189428 83.6325266,61.4536526 C82.4124167,59.1197005 80.2339302,55.0736586 77.0970671,49.3155271 L69.3513372,53.7905753 C68.7019239,52.5625937 68.0111842,51.2460557 67.3027333,49.9649404 L67.3027333,49.9649404 Z M99.9032823,58.5431001 L101.538623,57.5984988 L100.788846,56.2996722 L108.58771,51.7951052 L109.337487,53.0939319 L110.990539,52.1493307 L106.078613,43.6361123 L94.9854523,50.0298817 L99.9032823,58.5431001 Z M97.4709343,50.5494124 L105.269798,46.0684605 L107.743472,50.3486846 L99.9387049,54.8532516 L97.4709343,50.5494124 Z M94.3655578,34.2255229 L92.6888906,35.1937391 L94.6253231,38.5529772 L88.8160257,41.9004076 L89.6838781,43.4117696 L95.4931755,40.0584353 L97.382378,43.3291169 L92.2638201,46.2868994 L93.1375763,47.7923577 L105.06907,40.9085764 L104.201218,39.3972145 L99.059045,42.3609007 L97.1698427,39.0902191 L103.044081,35.7014622 L102.170325,34.1901003 L96.3019903,37.5788571 L94.3655578,34.2255229 Z M90.9590898,61.7488405 C93.0214691,59.7022045 95.0484258,57.7854512 97.0399599,55.9985806 C96.744772,55.4967612 96.4495842,54.9536155 96.1780114,54.3691435 C94.0644662,56.3921644 91.8603968,58.4014099 89.565803,60.39688 L90.9590898,61.7488405 Z" id="形状"></path>
                <path d="M88.0190184,49.2151633 C88.0172683,51.3312495 87.8016697,53.4417421 87.3755089,55.5144725 L88.6034904,56.8723367 C91.0358386,54.9044176 92.9643994,53.3536973 94.3891728,52.2201758 C94.1353112,51.6770301 93.8873534,51.1102694 93.6571069,50.5139899 C92.5668797,51.4310402 91.1657212,52.55669 89.4536315,53.8909392 C89.7527553,50.7029102 89.9338038,47.3180892 89.9967772,43.7364763 L87.9954034,43.8604551 C88.0308259,45.1179554 88.0485372,46.2868994 88.0367297,47.4027096 C87.1747811,47.9399516 86.3423513,48.4476747 85.5453441,48.9376867 C85.6437401,46.8910507 85.5925742,43.9391719 85.3918463,40.0820503 L83.4377027,40.3713344 C83.9083149,43.6024246 84.005382,46.8769527 83.7269868,50.1302457 L84.9490646,51.3109972 C85.8661149,50.6694555 86.8894329,49.9708442 88.0190184,49.2151633 L88.0190184,49.2151633 Z" id="路径"></path>
            </g>
        </g>
    </g>
</svg>