<?xml version="1.0" encoding="UTF-8"?>
<svg width="12px" height="16px" viewBox="0 0 12 16" version="1.1" xmlns="http://www.w3.org/2000/svg" xmlns:xlink="http://www.w3.org/1999/xlink">
    <title>锁头</title>
    <g id="页面-1" stroke="none" stroke-width="1" fill="none" fill-rule="evenodd">
        <g id="画板" transform="translate(-485.000000, -29.000000)" fill="#666666" fill-rule="nonzero">
            <g id="锁头" transform="translate(485.000000, 29.000000)">
                <path d="M5.4084507,9.74647887 L6.53521127,9.74647887 L6.53521127,12.7887324 L5.4084507,12.7887324 L5.4084507,9.74647887 Z M2.87323944,6.30985915 L1.74647887,6.30985915 L1.74647887,4.05633803 C1.74647887,1.8028169 3.54929577,-1.25095552e-15 5.8028169,-1.25095552e-15 C8.05633803,-1.25095552e-15 9.85915493,1.8028169 9.85915493,4.05633803 L9.85915493,5.4084507 L8.73239437,5.4084507 L8.73239437,4.05633803 C8.73239437,2.42253521 7.43661972,1.12676056 5.8028169,1.12676056 C4.16901408,1.12676056 2.87323944,2.42253521 2.87323944,4.05633803 L2.87323944,6.30985915 Z" id="形状"></path>
                <path d="M4.90140845,9.4084507 C4.90140845,9.99962875 5.38065294,10.4788732 5.97183099,10.4788732 C6.56300903,10.4788732 7.04225352,9.99962875 7.04225352,9.4084507 C7.04225352,8.81727266 6.56300903,8.33802817 5.97183099,8.33802817 C5.38065294,8.33802817 4.90140845,8.81727266 4.90140845,9.4084507 L4.90140845,9.4084507 Z" id="路径"></path>
                <path d="M10.6478873,16 L1.29577465,16 C0.563380282,16 0,15.4366197 0,14.7042254 L0,7.38028169 C0,6.64788732 0.563380282,6.08450704 1.29577465,6.08450704 L10.5915493,6.08450704 C11.3239437,6.08450704 11.8873239,6.64788732 11.8873239,7.38028169 L11.8873239,14.7042254 C11.943662,15.4366197 11.3239437,16 10.6478873,16 L10.6478873,16 Z M1.29577465,7.15492958 C1.18309859,7.15492958 1.12676056,7.21126761 1.12676056,7.32394366 L1.12676056,14.6478873 C1.12676056,14.7605634 1.18309859,14.8169014 1.29577465,14.8169014 L10.5915493,14.8169014 C10.7042254,14.8169014 10.7605634,14.7605634 10.7605634,14.6478873 L10.7605634,7.32394366 C10.7605634,7.21126761 10.7042254,7.15492958 10.5915493,7.15492958 L1.29577465,7.15492958 Z" id="形状"></path>
            </g>
        </g>
    </g>
</svg>
