<?xml version="1.0" standalone="no"?><!DOCTYPE svg PUBLIC "-//W3C//DTD SVG 1.1//EN" "http://www.w3.org/Graphics/SVG/1.1/DTD/svg11.dtd"><svg t="1671676834510" class="icon" viewBox="0 0 1024 1024" version="1.1" xmlns="http://www.w3.org/2000/svg" p-id="4017" width="16" height="16" xmlns:xlink="http://www.w3.org/1999/xlink"><path d="M893.16864 1006.46912 128.27648 1006.46912c-60.3136 0-109.29664-48.89088-109.29664-109.30176L18.97984 132.2752c0-60.41088 48.88576-109.29664 109.29664-109.29664l764.89216 0c60.31872 0 109.29664 48.88576 109.29664 109.29664l0 764.89216C1002.4704 957.57824 953.57952 1006.46912 893.16864 1006.46912L893.16864 1006.46912zM947.81952 186.92608c0-60.3136-48.88576-109.29664-109.29664-109.29664L182.93248 77.62944c-60.3136 0-109.29664 48.88576-109.29664 109.29664l0 655.6928c0 60.30848 48.88576 109.29664 109.29664 109.29664l655.68768 0c60.3136 0 109.30688-48.88576 109.30688-109.29664L947.92704 186.92608 947.81952 186.92608 947.81952 186.92608zM788.48 514.72384c0-15.20128-12.31872-27.52-27.52-27.52l-496.64 0c-15.20128 0-27.52 12.31872-27.52 27.52l0 0c0 15.20128 12.31872 27.52 27.52 27.52l496.64 0C776.16128 542.24384 788.48 529.92512 788.48 514.72384L788.48 514.72384z" fill="#262536" p-id="4018"></path></svg>