<?xml version="1.0" encoding="UTF-8"?>
<svg width="12px" height="12px" viewBox="0 0 12 3" version="1.1" xmlns="http://www.w3.org/2000/svg" xmlns:xlink="http://www.w3.org/1999/xlink">
    <title>更多</title>
    <g id="列表、左侧菜单规范">
        <g id="消防工作桌面" transform="translate(-1028.000000, -209.000000)">
            <g id="三公经费比较" transform="translate(280.000000, 100.000000)">
                <g id="编辑-(1)" transform="translate(710.000000, 99.000000)">
                    <g id="编组" transform="translate(32.000000, 0.000000)">
                        <g id="更多-(1)" transform="translate(6.000000, 10.000000)">
                            <path d="M0,1.38861104 C-4.58183384e-05,1.88469871 0.264587487,2.34312222 0.694204375,2.59117928 C1.12382126,2.83923635 1.65314433,2.83923635 2.08276121,2.59117928 C2.5123781,2.34312222 2.77701141,1.88469871 2.77696559,1.38861104 C2.77701141,0.892523371 2.5123781,0.434099858 2.08276121,0.186042796 C1.65314433,-0.0620142655 1.12382126,-0.0620142655 0.694204375,0.186042796 C0.264587487,0.434099858 -4.5818339e-05,0.892523371 0,1.38861104 Z" id="路径"></path>
                            <path d="M4.61258691,1.38861104 C4.61254109,1.88469871 4.8771744,2.34312222 5.30679129,2.59117928 C5.73640818,2.83923635 6.26573124,2.83923635 6.69534813,2.59117928 C7.12496501,2.34312222 7.38959832,1.88469871 7.3895525,1.38861104 C7.38959832,0.892523371 7.12496501,0.434099858 6.69534813,0.186042796 C6.26573124,-0.0620142654 5.73640818,-0.0620142654 5.30679129,0.186042796 C4.8771744,0.434099858 4.61254109,0.892523371 4.61258691,1.38861104 L4.61258691,1.38861104 Z" id="路径"></path>
                            <path d="M9.22303441,1.38861104 C9.22298859,1.88469871 9.4876219,2.34312222 9.91723879,2.59117928 C10.3468557,2.83923635 10.8761787,2.83923635 11.3057956,2.59117928 C11.7354125,2.34312222 12.0000458,1.88469871 12,1.38861104 C12.0000458,0.892523371 11.7354125,0.434099858 11.3057956,0.186042796 C10.8761787,-0.0620142655 10.3468557,-0.0620142655 9.91723879,0.186042796 C9.4876219,0.434099858 9.22298859,0.892523371 9.22303441,1.38861104 L9.22303441,1.38861104 Z" id="路径"></path>
                        </g>
                    </g>
                </g>
            </g>
        </g>
    </g>
</svg>