<?xml version="1.0" standalone="no"?><!DOCTYPE svg PUBLIC "-//W3C//DTD SVG 1.1//EN" "http://www.w3.org/Graphics/SVG/1.1/DTD/svg11.dtd"><svg class="icon" width="24px" height="22.20px" viewBox="0 0 1107 1024" version="1.1" xmlns="http://www.w3.org/2000/svg"><path fill="#d81e06" d="M523.733333 445.866667c-20.266667 0-35.2 7.466667-48 22.4-9.6 11.733333-14.933333 26.666667-17.066666 45.866666h125.866666c-1.066667-20.266667-6.4-37.333333-14.933333-49.066666-10.666667-12.8-25.6-19.2-45.866667-19.2z"  /><path fill="#d81e06" d="M865.066667 301.866667H244.266667C121.6 301.866667 21.333333 402.133333 21.333333 524.8v222.933333h843.733334c122.666667 0 222.933333-100.266667 222.933333-222.933333 0-122.666667-100.266667-222.933333-222.933333-222.933333z m-490.666667 342.4h-38.4V502.4c0-19.2-3.2-34.133333-11.733333-42.666667-7.466667-8.533333-20.266667-12.8-37.333334-12.8-18.133333 0-33.066667 6.4-43.733333 20.266667-10.666667 13.866667-16 32-16 56.533333v120.533334h-37.333333V418.133333h36.266666v33.066667l8.533334-10.666667c16-19.2 37.333333-28.8 61.866666-28.8s43.733333 6.4 57.6 20.266667c12.8 12.8 20.266667 32 20.266667 57.6v154.666667z m249.6-101.333334H458.666667c1.066667 22.4 6.4 39.466667 14.933333 51.2 10.666667 13.866667 27.733333 21.333333 50.133333 21.333334 13.866667 0 26.666667-4.266667 37.333334-11.733334 10.666667-7.466667 17.066667-18.133333 19.2-30.933333h37.333333c-5.333333 24.533333-17.066667 43.733333-33.066667 56.533333-16 12.8-37.333333 20.266667-64 20.266667-32 0-56.533333-9.6-74.666666-29.866667-18.133333-20.266667-26.666667-48-26.666667-84.266666 0-37.333333 9.6-68.266667 28.8-90.666667 19.2-22.4 44.8-33.066667 77.866667-33.066667 28.8 0 53.333333 10.666667 71.466666 33.066667 18.133333 21.333333 26.666667 50.133333 26.666667 86.4v11.733333z m260.266667 100.266667h-40.533334l-46.933333-176-43.733333 176h-40.533334l-64-226.133333h41.6l42.666667 179.2 43.733333-179.2h42.666667l44.8 181.333333 45.866667-181.333333h37.333333l-62.933333 226.133333z"  /></svg>