<?xml version="1.0" encoding="UTF-8"?>
<svg width="18px" height="18px" viewBox="0 0 18 18" version="1.1" xmlns="http://www.w3.org/2000/svg" xmlns:xlink="http://www.w3.org/1999/xlink">
    <title>搜索 (1)</title>
    <g id="业务前台" stroke="none" stroke-width="1" fill="none" fill-rule="evenodd">
        <g id="财务列表规范" transform="translate(-1345.000000, -19.000000)" fill="#505766" fill-rule="nonzero">
            <g id="head" transform="translate(0.000000, -5.000000)">
                <g id="搜索-(1)" transform="translate(1345.012563, 24.008860)">
                    <path d="M16.9679196,16.1571489 L13.8414643,13.0282828 C15.0418125,11.6571756 15.7700357,9.85666672 15.7700357,7.88542565 C15.7700357,3.51348815 12.2544107,0.000381004938 7.88501786,0.000381004938 C3.51310714,-0.0423422093 0,3.51346136 0,7.88539886 C0,12.2573364 3.51310714,15.7704435 7.88504464,15.7704435 C9.81361607,15.7704435 11.5714286,15.0848899 12.9425089,13.9272381 L16.0689107,17.0561578 C16.1969732,17.1842203 16.3677321,17.2269167 16.5410089,17.2269167 C16.7117679,17.2269167 16.8850446,17.1842203 17.0131071,17.0561578 C17.2265625,16.800006 17.2265625,16.4133006 16.9678929,16.1571489 L16.9679196,16.1571489 Z M7.88252679,14.5274256 C4.19614286,14.5274256 1.19780357,11.5265685 1.19780357,7.88537208 C1.19780357,4.19901493 4.19866071,1.20067565 7.88252679,1.20067565 C11.5689107,1.20067565 14.5245551,4.201506 14.5245551,7.88539886 C14.5270446,11.5290864 11.5689107,14.5274256 7.88252679,14.5274256 L7.88252679,14.5274256 Z" id="形状"></path>
                </g>
            </g>
        </g>
    </g>
</svg>