<?xml version="1.0" encoding="UTF-8"?>
<svg width="14px" height="14px" viewBox="0 0 14 14" version="1.1" xmlns="http://www.w3.org/2000/svg" xmlns:xlink="http://www.w3.org/1999/xlink">
    <title>问号</title>
    <g id="列表、左侧菜单规范" stroke="none" stroke-width="1" fill="none" fill-rule="evenodd">
        <g id="高级、搜索列表" transform="translate(-66.000000, -125.000000)" fill="#999999" fill-rule="nonzero">
            <g id="问号" transform="translate(66.000000, 125.000000)">
                <path d="M6.25,11.2555 C6.25,11.6697187 6.58578125,12.0055 7,12.0055 C7.41421875,12.0055 7.75,11.6697187 7.75,11.2555 C7.75,10.8412812 7.41421875,10.5055 7,10.5055 C6.58578125,10.5055 6.25,10.8412812 6.25,11.2555 Z" id="路径"></path>
                <path d="M7,14 C3.14,14 0,10.86 0,7 C0,3.14 3.14,0 7,0 C10.86,0 14,3.14 14,7 C14,10.86 10.86,14 7,14 Z M7,1.00448437 C3.694,1.00448437 1.00448437,3.694 1.00448437,7 C1.00448437,10.3055 3.694,12.9955156 7,12.9955156 C10.3055,12.9955156 12.9955156,10.3055156 12.9955156,7 C12.9955156,3.694 10.3055,1.00448437 7,1.00448437 Z" id="形状"></path>
                <path d="M7,9.52648438 C6.72398437,9.52648438 6.5,9.30248438 6.5,9.0265 L6.5,8.181 C6.5,7.36298438 7.12498438,6.738 7.67698437,6.1865 C8.08146875,5.7815 8.49998438,5.3635 8.49998438,5.03 C8.49998438,4.1965 7.82698438,3.5185 7,3.5185 C6.15901563,3.5185 5.5,4.1675 5.5,4.996 C5.5,5.272 5.27601563,5.49598438 5,5.49598438 C4.72398437,5.49598438 4.5,5.27198438 4.5,4.99598438 C4.5,3.63 5.62146875,2.5185 7,2.5185 C8.37853125,2.5185 9.5,3.645 9.5,5.03 C9.5,5.7785 8.9325,6.34548438 8.384,6.894 C7.949,7.328 7.50001562,7.777 7.50001562,8.18048438 L7.50001562,9.02598438 C7.50001562,9.302 7.27601562,9.52648438 7,9.52648438 Z" id="路径"></path>
            </g>
        </g>
    </g>
</svg>