<?xml version="1.0" encoding="UTF-8"?>
<svg width="56px" height="63px" viewBox="0 0 56 63" version="1.1" xmlns="http://www.w3.org/2000/svg" xmlns:xlink="http://www.w3.org/1999/xlink">
    <title>建模</title>
    <defs>
        <linearGradient x1="50%" y1="100%" x2="50%" y2="0%" id="linearGradient-1">
            <stop stop-color="#FFB2B3" offset="0%"></stop>
            <stop stop-color="#FFEBEF" offset="100%"></stop>
        </linearGradient>
        <linearGradient x1="50%" y1="61.9432912%" x2="50%" y2="100%" id="linearGradient-2">
            <stop stop-color="#FFB2B3" offset="0%"></stop>
            <stop stop-color="#F5A8A9" offset="100%"></stop>
        </linearGradient>
    </defs>
    <g id="页面-1" stroke="none" stroke-width="1" fill="none" fill-rule="evenodd">
        <g id="首页" transform="translate(-921.000000, -527.000000)" fill-rule="nonzero">
            <g id="编组" transform="translate(352.000000, 463.000000)">
                <g id="建模" transform="translate(569.000000, 64.000000)">
                    <path d="M1.56479778,10.9211777 L27.4165611,22.2401262 C27.8077605,22.3802734 28.19896,22.3802734 28.5901594,22.2401262 L54.3359728,10.9294217 C55.0124219,10.6408833 55.3302714,9.89068349 55.0124219,9.28063091 C54.8738721,8.95911672 54.5886225,8.74477392 54.230023,8.63760252 L28.4760596,0.0803785489 C28.19081,-0.0267928496 27.8729604,-0.0267928496 27.5551109,0.0803785489 L1.70334758,8.62935857 C0.994298588,8.84370137 0.603099143,9.56092534 0.847598796,10.2451735 C0.994298588,10.5254679 1.23879824,10.8140063 1.56479778,10.9211777 Z M0.709048993,39.0825237 L23.8957661,48.9258044 C24.0343159,49 24.1810157,49 24.3195655,49 C24.9552646,49 25.4524139,48.4971188 25.4524139,47.8540904 L25.4524139,27.1947424 C25.4524139,26.724837 25.1671643,26.2961514 24.7433649,26.1147844 L1.59739773,16.2797476 C1.45884793,16.2055521 1.31214814,16.2055521 1.13284839,16.2055521 C0.497149294,16.2055521 0,16.7084332 0,17.3514616 L0,38.0025657 C0,38.4724711 0.285249595,38.9094006 0.709048993,39.0825237 L0.709048993,39.0825237 Z M54.898322,16.1725762 C54.7597722,16.1725762 54.5804725,16.2055521 54.4337727,16.2467718 L31.2470556,26.0818086 C30.8232562,26.2631756 30.5380066,26.6918612 30.5380066,27.1617666 L30.5380066,47.8128707 C30.5380066,47.9530179 30.5706066,48.101409 30.6113565,48.2415563 C30.8558562,48.818633 31.5323052,49.1071714 32.1028044,48.8516088 L55.2895215,39.0083281 C55.7133209,38.8269611 55.9985705,38.3982755 55.9985705,37.9283701 L55.9985705,17.3184858 C56.0311704,16.7084332 55.5014212,16.1725762 54.898322,16.1725762 L54.898322,16.1725762 Z" id="形状" fill="url(#linearGradient-1)"></path>
                    <path d="M27.4332314,55.3089788 L0,43 L0,50.1746629 L27.4332314,62.8933835 C27.8246687,63.0355388 28.216106,63.0355388 28.6075433,62.8933835 L56,50.1746629 L56,43 L28.6075433,55.3089788 C28.216106,55.4594962 27.7920489,55.4594962 27.4332314,55.3089788 Z" id="路径" fill="url(#linearGradient-2)"></path>
                </g>
            </g>
        </g>
    </g>
</svg>