<?xml version="1.0" encoding="UTF-8"?>
<svg width="225px" height="220px" viewBox="0 0 225 220" version="1.1" xmlns="http://www.w3.org/2000/svg" xmlns:xlink="http://www.w3.org/1999/xlink">
    <title>用户管理</title>
    <defs>
        <rect id="path-1" x="0" y="0" width="225" height="220" rx="8"></rect>
    </defs>
    <g id="页面-1" stroke="none" stroke-width="1" fill="none" fill-rule="evenodd">
        <g id="首页" transform="translate(-842.000000, -463.000000)">
            <g id="编组" transform="translate(352.000000, 463.000000)">
                <g id="用户管理" transform="translate(490.000000, 0.000000)">
                    <mask id="mask-2" fill="white">
                        <use xlink:href="#path-1"></use>
                    </mask>
                    <use id="蒙版" fill="#FF9397" xlink:href="#path-1"></use>
                    <g id="建模" mask="url(#mask-2)" fill-rule="nonzero">
                        <g transform="translate(20.000000, 35.000000)">
                            <path d="M2.48261024,23.4598783 L50.988804,47.7742114 C51.7228195,48.0752629 52.4568351,48.0752629 53.1908506,47.7742114 L101.498249,23.4775872 C102.767484,22.8577753 103.363871,21.2462645 102.767484,19.9358052 C102.50752,19.2451577 101.9723,18.7847261 101.299453,18.5545102 L52.9767628,0.172661871 C52.4415431,-0.0575539568 51.8451555,-0.0575539568 51.2487678,0.172661871 L2.74257408,18.5368013 C1.41217091,18.997233 0.678155368,20.5379081 1.13691508,22.0077476 C1.41217091,22.6098506 1.87093062,23.2296624 2.48261024,23.4598783 Z M1.33717579,83.8310709 L45.0643612,104.841629 C45.3256484,105 45.6023055,105 45.8635927,105 C47.06244,105 48,103.926596 48,102.554047 L48,58.4565108 C48,57.4534942 47.4620557,56.5384615 46.6628242,56.1513323 L3.01248799,35.158371 C2.75120077,35 2.47454371,35 2.1364073,35 C0.937560038,35 0,36.0734037 0,37.4459527 L0,81.5258924 C0,82.528909 0.537944284,83.4615385 1.33717579,83.8310709 L1.33717579,83.8310709 Z M102.923158,35 C102.661969,35 102.32396,35.0704339 102.047407,35.1584762 L58.3366727,56.1653818 C57.5377419,56.5527681 57,57.4684086 57,58.4720915 L57,102.581311 C57,102.880655 57.0614562,103.197607 57.1382765,103.496951 C57.5991981,104.729544 58.8744146,105.34584 59.9498984,104.799978 L103.660632,83.7754639 C104.459563,83.3880775 104.997305,82.472437 104.997305,81.4687542 L104.997305,37.4475774 C105.058761,36.1445506 104.060098,35 102.923158,35 L102.923158,35 Z" id="形状" fill="#FB868A"></path>
                            <path d="M89.158002,196.004181 L0,156 L0,179.317654 L89.158002,220.653496 C90.4301733,221.115501 91.7023445,221.115501 92.9745158,220.653496 L182,179.317654 L182,156 L92.9745158,196.004181 C91.7023445,196.493363 90.324159,196.493363 89.158002,196.004181 Z" id="路径" fill="#FF8E92"></path>
                        </g>
                    </g>
                </g>
            </g>
        </g>
    </g>
</svg>