<?xml version="1.0" encoding="UTF-8"?>
<svg width="474px" height="220px" viewBox="0 0 474 220" version="1.1" xmlns="http://www.w3.org/2000/svg" xmlns:xlink="http://www.w3.org/1999/xlink">
    <title>用户管理</title>
    <defs>
        <rect id="path-1" x="0" y="0" width="474" height="220" rx="8"></rect>
    </defs>
    <g id="页面-1" stroke="none" stroke-width="1" fill="none" fill-rule="evenodd">
        <g id="首页" transform="translate(-842.000000, -218.000000)">
            <g id="用户管理" transform="translate(842.000000, 218.000000)">
                <mask id="mask-2" fill="white">
                    <use xlink:href="#path-1"></use>
                </mask>
                <use id="蒙版" fill="#AC80F6" xlink:href="#path-1"></use>
                <g id="表单" mask="url(#mask-2)" fill="#A476F3" fill-rule="nonzero">
                    <g transform="translate(146.000000, 34.000000)" id="形状">
                        <path d="M25.0204545,10.4260857 C26.1978244,16.1639148 31.272241,20.2846816 37.1590909,20.2834863 L71.8409091,20.2834863 C77.727759,20.2846816 82.8021756,16.1639148 83.9795455,10.4260857 L94.1314092,10.4260857 C102.330708,10.4233638 108.983602,17.0261075 109,25.182608 L109,94.2434646 C108.996061,98.1619112 107.427181,101.918239 104.638636,104.685763 C101.850091,107.453288 98.070407,109.005205 94.1314092,108.999987 L14.8636364,108.999987 C6.6662719,108.999987 0.0163947289,102.398041 0,94.2434646 L0,25.182608 C0.00393943338,21.2641614 1.57281946,17.5078336 4.36136437,14.7403092 C7.14990927,11.9727848 10.929593,10.4208671 14.8685908,10.4260857 L25.0204545,10.4260857 Z M29.6203271,39.8086909 C27.842361,39.8084058 26.1993361,40.8019437 25.3102745,42.4149819 C24.4212129,44.0280201 24.4212129,46.0154474 25.3102745,47.6284855 C26.1993361,49.2415237 27.842361,50.2350617 29.6203271,50.2347766 L59.4768487,50.2347766 C62.2247682,50.2343358 64.4521739,47.9005061 64.4521739,45.0217337 C64.4521739,42.1429613 62.2247682,39.8091316 59.4768487,39.8086909 L29.6203271,39.8086909 Z M29.539955,58.7652103 C26.8355843,58.765651 24.6434783,61.0994807 24.6434783,63.9782532 C24.6434783,66.8570256 26.8355843,69.1908553 29.539955,69.191296 L78.5122189,69.191296 C81.2165896,69.1908553 83.4086957,66.8570256 83.4086957,63.9782532 C83.4086957,61.0994807 81.2165896,58.765651 78.5122189,58.7652103 L29.539955,58.7652103 L29.539955,58.7652103 Z M29.6195652,79.6173817 C26.8713483,79.6173817 24.6434783,81.9513405 24.6434783,84.8304246 C24.6434783,87.7095086 26.8713483,90.0434674 29.6195652,90.0434674 L59.4760869,90.0434674 C62.2243039,90.0434674 64.4521739,87.7095086 64.4521739,84.8304246 C64.4521739,81.9513405 62.2243039,79.6173817 59.4760869,79.6173817 L29.6195652,79.6173817 Z M36.9178261,0 L72.0821739,0 C76.2437596,0 79.6173913,3.39484914 79.6173913,7.58260778 C79.6173913,11.7703664 76.2437596,15.1652156 72.0821739,15.1652156 L36.9178261,15.1652156 C32.7562404,15.1652156 29.3826087,11.7703664 29.3826087,7.58260778 C29.3826087,3.39484914 32.7562404,0 36.9178261,0 Z"></path>
                    </g>
                </g>
            </g>
        </g>
    </g>
</svg>