<?xml version="1.0" encoding="UTF-8"?>
<svg width="63px" height="63px" viewBox="0 0 63 63" version="1.1" xmlns="http://www.w3.org/2000/svg" xmlns:xlink="http://www.w3.org/1999/xlink">
    <title>形状</title>
    <defs>
        <linearGradient x1="50%" y1="0%" x2="50%" y2="100%" id="linearGradient-1">
            <stop stop-color="#FEFEFE" offset="0%"></stop>
            <stop stop-color="#D8BCFF" offset="100%"></stop>
        </linearGradient>
    </defs>
    <g id="页面-1" stroke="none" stroke-width="1" fill="none" fill-rule="evenodd">
        <g id="首页" transform="translate(-1048.000000, -279.000000)" fill="url(#linearGradient-1)" fill-rule="nonzero">
            <g id="编组" transform="translate(842.000000, 218.000000)">
                <g id="表单" transform="translate(206.000000, 61.000000)">
                    <path d="M14.4613636,6 C15.1418618,9.3178788 18.0747815,11.7006972 21.4772727,11.7000061 L41.5227273,11.7000061 C44.9252185,11.7006972 47.8581382,9.3178788 48.5386364,6 L54.4062273,6 C59.1452714,5.99842606 62.9905222,9.8164386 63,14.5329053 L63,54.4670947 C62.9977231,56.7329222 62.0909392,58.905005 60.4792114,60.5053159 C58.8674836,62.1056269 56.6828958,63.0030176 54.4062273,63 L8.5909091,63 C3.85298284,63 0.0094758525,59.1824487 0,54.4670947 L0,14.5329053 C0.00227692021,12.2670778 0.90906079,10.094995 2.52078858,8.49468405 C4.13251637,6.89437312 6.31710419,5.99698237 8.59377269,6 L14.4613636,6 Z M16.8754402,23 C15.8481968,22.9998359 14.8989174,23.5715968 14.3852503,24.4998674 C13.8715832,25.428138 13.8715832,26.571862 14.3852503,27.5001326 C14.8989174,28.4284032 15.8481968,29.0001641 16.8754402,29 L34.1254401,29 C35.7130869,28.9997463 37,27.6566749 37,26 C37,24.3433251 35.7130869,23.0002537 34.1254401,23 L16.8754402,23 Z M16.8329719,34 C15.2682946,34.0002536 14,35.3433251 14,37 C14,38.6566749 15.2682946,39.9997464 16.8329719,40 L45.1670281,40 C46.7317054,39.9997464 48,38.6566749 48,37 C48,35.3433251 46.7317054,34.0002536 45.1670281,34 L16.8329719,34 L16.8329719,34 Z M16.875,46 C15.2871814,46 14,47.3431458 14,49 C14,50.6568542 15.2871814,52 16.875,52 L34.125,52 C35.7128186,52 37,50.6568542 37,49 C37,47.3431458 35.7128186,46 34.125,46 L16.875,46 Z M21.35,0 L41.65,0 C44.0524387,0 46,2.01471863 46,4.5 C46,6.98528137 44.0524387,9 41.65,9 L21.35,9 C18.9475613,9 17,6.98528137 17,4.5 C17,2.01471863 18.9475613,0 21.35,0 Z" id="形状"></path>
                </g>
            </g>
        </g>
    </g>
</svg>