<?xml version="1.0" encoding="UTF-8"?>
<svg width="225px" height="220px" viewBox="0 0 225 220" version="1.1" xmlns="http://www.w3.org/2000/svg" xmlns:xlink="http://www.w3.org/1999/xlink">
    <title>用户管理</title>
    <defs>
        <rect id="path-1" x="0" y="0" width="225" height="220" rx="8"></rect>
    </defs>
    <g id="页面-1" stroke="none" stroke-width="1" fill="none" fill-rule="evenodd">
        <g id="首页" transform="translate(-1091.000000, -463.000000)">
            <g id="用户管理" transform="translate(1091.000000, 463.000000)">
                <mask id="mask-2" fill="white">
                    <use xlink:href="#path-1"></use>
                </mask>
                <use id="蒙版" fill="#6AF2FF" xlink:href="#path-1"></use>
                <path d="M31.3183274,36 C26.1996456,36 22,40.1902485 22,45.323303 L22,110.621343 C22,115.742758 26.1880123,119.944646 31.3183274,119.944646 L70.9473937,119.944646 L70.9473937,135.663897 L43.812564,135.663897 C41.4520669,135.662644 39.4135051,137.316217 38.9265497,139.627174 C38.7009941,140.983042 39.0912166,142.368941 39.9909946,143.407614 C40.8907726,144.446287 42.2064541,145.029626 43.5798966,144.99884 L107.406367,144.99884 C109.766865,145 111.805426,143.34652 112.292382,141.035563 C112.515795,139.681621 112.125417,138.298426 111.227198,137.261379 C110.328978,136.224332 109.01609,135.641006 107.644851,135.669717 L80.2657211,135.669717 L80.2657211,119.944646 L119.877337,119.944646 C125.007652,119.944646 129.213115,115.754397 129.213115,110.621343 L129.213115,45.323303 C129.187586,40.1779938 125.019939,36.015916 119.877337,36 L31.3183274,36 Z M106.721811,83.3634096 L91.1162609,83.3634096 L85.6861907,99.1253189 C85.2081084,100.512506 83.3252905,100.743703 82.3750283,99.5877144 L65.341134,76.4216959 L63.2163239,81.7392452 C62.9684294,82.6698162 62.0299716,83.1264319 61.0797094,83.1264319 L43.1073573,83.1264319 C40.711718,83.1309888 38.6405586,81.4910316 38.1435648,79.1960694 C37.9186148,77.8512752 38.316376,76.4781922 39.2289184,75.4493974 C40.1414608,74.4206026 41.4741483,73.8427882 42.865365,73.8727403 L56.1159169,73.8727403 L61.5518894,60.428589 C62.0299716,59.0414023 63.9127895,58.8159844 64.8630518,59.9719733 L81.4188638,82.2074207 L83.7797639,75.2541472 C84.0504401,74.3177125 84.9111192,73.662167 85.904574,73.6357626 L106.249631,73.6357626 C108.616433,73.6357626 110.741243,75.2541472 111.207521,77.571905 C111.915791,81.0514317 109.790981,83.3634096 106.721811,83.3634096 L106.721811,83.3634096 Z" id="形状" fill="#55E9F8" fill-rule="nonzero" mask="url(#mask-2)"></path>
            </g>
        </g>
    </g>
</svg>