<?xml version="1.0" encoding="UTF-8"?>
<svg width="65px" height="66px" viewBox="0 0 65 66" version="1.1" xmlns="http://www.w3.org/2000/svg" xmlns:xlink="http://www.w3.org/1999/xlink">
    <title>形状</title>
    <defs>
        <linearGradient x1="50%" y1="0%" x2="50%" y2="100%" id="linearGradient-1">
            <stop stop-color="#FFFEFF" offset="0%"></stop>
            <stop stop-color="#9FF6FF" offset="100%"></stop>
        </linearGradient>
    </defs>
    <g id="页面-1" stroke="none" stroke-width="1" fill="none" fill-rule="evenodd">
        <g id="首页" transform="translate(-1165.000000, -524.000000)" fill="url(#linearGradient-1)" fill-rule="nonzero">
            <g id="编组" transform="translate(1091.000000, 463.000000)">
                <g id="在线用户监控" transform="translate(74.000000, 61.000000)">
                    <path d="M5.63569079,0 C2.53993053,0 0,2.53721471 0,5.64530273 L0,45.1835653 C0,48.2846055 2.53289474,50.828868 5.63569079,50.828868 L29.6032072,50.828868 L29.6032072,60.3469471 L13.1921601,60.3469471 C11.7645399,60.346188 10.5316251,61.3474344 10.2371162,62.7467293 C10.100701,63.5677135 10.3367062,64.4068815 10.8808887,65.0358029 C11.4250712,65.6647243 12.2207906,66.0179387 13.0514437,65.9992976 L51.6534631,65.9992976 C53.0810833,66 54.3139981,64.9988103 54.608507,63.5995154 C54.7436264,62.779697 54.5075274,61.9421661 53.9642874,61.3142293 C53.4210474,60.6862925 52.6270173,60.3330862 51.7976974,60.350471 L35.238898,60.350471 L35.238898,50.828868 L59.1958607,50.828868 C62.2986568,50.828868 64.8421053,48.2916533 64.8421053,45.1835653 L64.8421053,5.64530273 C64.8266655,2.52979443 62.3060879,0.00963720757 59.1958607,0 L5.63569079,0 Z M50.7423246,28.2370854 L41.4409722,28.2370854 L38.2044956,37.8467861 C37.919545,38.6925243 36.7973318,38.8334807 36.2309485,38.1286988 L26.0782621,24.0048702 L24.8118147,27.2468669 C24.6640625,27.8142162 24.1047149,28.0926051 23.5383315,28.0926051 L12.8262975,28.0926051 C11.3984283,28.0953834 10.1639582,27.0955363 9.86773575,25.6963467 C9.73365914,24.8764543 9.97073611,24.0393148 10.5146374,23.4120805 C11.0585387,22.7848462 11.8528584,22.4325651 12.6820632,22.4508262 L20.5797697,22.4508262 L23.8197643,14.2542132 C24.1047149,13.408475 25.226928,13.2710425 25.7933114,13.9758244 L35.6610471,27.5323035 L37.0682109,23.2930406 C37.2295416,22.7221163 37.7425309,22.3224442 38.3346583,22.306346 L50.4608918,22.306346 C51.8715735,22.306346 53.1380208,23.2930406 53.4159357,24.7061282 C53.8380848,26.8275216 52.5716375,28.2370854 50.7423246,28.2370854 L50.7423246,28.2370854 Z" id="形状"></path>
                </g>
            </g>
        </g>
    </g>
</svg>