<?xml version="1.0" encoding="UTF-8"?>
<svg width="279px" height="467px" viewBox="0 0 279 467" version="1.1" xmlns="http://www.w3.org/2000/svg" xmlns:xlink="http://www.w3.org/1999/xlink">
    <title>用户管理</title>
    <defs>
        <rect id="path-1" x="0" y="0" width="279" height="467" rx="8"></rect>
    </defs>
    <g id="页面-1" stroke="none" stroke-width="1" fill="none" fill-rule="evenodd">
        <g id="首页" transform="translate(-539.000000, -218.000000)">
            <g id="用户管理" transform="translate(539.000000, 218.000000)">
                <mask id="mask-2" fill="white">
                    <use xlink:href="#path-1"></use>
                </mask>
                <use id="蒙版" fill="#3196FF" xlink:href="#path-1"></use>
                <g id="功能角色管理" mask="url(#mask-2)" fill="#308FF4" fill-rule="nonzero">
                    <g transform="translate(37.000000, 141.000000)" id="形状">
                        <path d="M78.125,0 L120.875,0 C124.810029,0 128,3.18997117 128,7.12500004 L128,49.875 C128,53.8100288 124.810029,57 120.875,57 L78.125,57 C74.1899712,57 71,53.8100288 71,49.875 L71,7.12500004 C71,3.18997117 74.1899712,0 78.125,0 L78.125,0 Z M78.125,71 L120.875,71 C124.810029,71 128,74.1899712 128,78.125 L128,120.875 C128,124.810029 124.810029,128 120.875,128 L78.125,128 C74.1899712,128 71,124.810029 71,120.875 L71,78.125 C71,74.1899712 74.1899712,71 78.125,71 L78.125,71 Z M7.12500004,71 L49.875,71 C53.8100288,71 57,74.1899712 57,78.125 L57,120.875 C57,124.810029 53.8100288,128 49.875,128 L7.12500004,128 C3.18997117,128 0,124.810029 0,120.875 L0,78.125 C0,74.1899712 3.18997117,71 7.12500004,71 Z M4.51347316,10.607141 L24.449091,4.59703488 C27.090415,3.80098837 29.9060611,3.80098837 32.5473851,4.59703488 L52.4865268,10.607141 C53.9781747,11.0558745 55,12.4352046 55,14 C55,15.5647954 53.9781747,16.9441256 52.4865268,17.392859 L32.5544331,23.4029651 C29.9131091,24.1990116 27.0974631,24.1990116 24.4561391,23.4029651 L4.51347316,17.392859 C3.02182533,16.9441256 2,15.5647954 2,14 C2,12.4352046 3.02182533,11.0558745 4.51347316,10.607141 Z M51.9933582,24 L52.486694,24.1537827 C53.9782426,24.6177061 55,26.0437276 55,27.6614925 C55,29.2792574 53.9782426,30.7052789 52.486694,31.1692023 L32.5488778,37.3827551 C29.9077294,38.2057483 27.0922706,38.2057483 24.4511222,37.3827551 L4.51330604,31.1692023 C3.02175739,30.7052789 2,29.2792574 2,27.6614925 C2,26.0437276 3.02175739,24.6177061 4.51330604,24.1537827 L5.00311816,24 L24.4511222,30.05977 C26.7943136,30.790606 29.2802272,30.8751507 31.6643971,30.3050901 L32.5488778,30.05977 L51.9933582,24 Z M51.9933584,38 L52.4866942,38.1537827 C53.9782427,38.6177062 55,40.0437276 55,41.6614924 C55,43.2792572 53.9782427,44.7052787 52.4866942,45.1692022 L32.5488778,51.3827551 C29.9077294,52.2057483 27.0922706,52.2057483 24.4511222,51.3827551 L4.51330582,45.1692022 C3.02175728,44.7052787 2,43.2792572 2,41.6614924 C2,40.0437276 3.02175728,38.6177062 4.51330582,38.1537827 L5.00311794,38 L24.4511222,44.05977 C26.7943135,44.790606 29.2802272,44.8751507 31.6643971,44.3050901 L32.5488778,44.05977 L51.9933584,38 L51.9933584,38 Z"></path>
                    </g>
                </g>
            </g>
        </g>
    </g>
</svg>