<?xml version="1.0" encoding="UTF-8"?>
<svg width="91px" height="91px" viewBox="0 0 91 91" version="1.1" xmlns="http://www.w3.org/2000/svg" xmlns:xlink="http://www.w3.org/1999/xlink">
    <title>形状</title>
    <defs>
        <linearGradient x1="50%" y1="0%" x2="50%" y2="100%" id="linearGradient-1">
            <stop stop-color="#F3F9FF" offset="0%"></stop>
            <stop stop-color="#70B5FF" offset="100%"></stop>
        </linearGradient>
    </defs>
    <g id="页面-1" stroke="none" stroke-width="1" fill="none" fill-rule="evenodd">
        <g id="首页" transform="translate(-633.000000, -406.000000)" fill="url(#linearGradient-1)" fill-rule="nonzero">
            <g id="编组" transform="translate(539.000000, 218.000000)">
                <g id="功能角色管理" transform="translate(94.000000, 188.000000)">
                    <path d="M55.6111112,0 L85.9444444,0 C88.7365507,0 91,2.26344933 91,5.05555558 L91,35.3888888 C91,38.1809951 88.7365507,40.4444444 85.9444444,40.4444444 L55.6111112,40.4444444 C52.8190049,40.4444444 50.5555556,38.1809951 50.5555556,35.3888888 L50.5555556,5.05555558 C50.5555556,2.26344933 52.8190049,0 55.6111112,0 L55.6111112,0 Z M55.6111112,50.5555556 L85.9444444,50.5555556 C88.7365507,50.5555556 91,52.8190049 91,55.6111112 L91,85.9444444 C91,88.7365507 88.7365507,91 85.9444444,91 L55.6111112,91 C52.8190049,91 50.5555556,88.7365507 50.5555556,85.9444444 L50.5555556,55.6111112 C50.5555556,52.8190049 52.8190049,50.5555556 55.6111112,50.5555556 L55.6111112,50.5555556 Z M5.05555558,50.5555556 L35.3888888,50.5555556 C38.1809951,50.5555556 40.4444444,52.8190049 40.4444444,55.6111112 L40.4444444,85.9444444 C40.4444444,88.7365507 38.1809951,91 35.3888888,91 L5.05555558,91 C2.26344933,91 0,88.7365507 0,85.9444444 L0,55.6111112 C0,52.8190049 2.26344933,50.5555556 5.05555558,50.5555556 Z M3.01563887,7.68949998 L17.3152778,3.39986111 C19.2098757,2.83169277 21.2295133,2.83169277 23.1241112,3.39986111 L37.4262778,7.68949998 C38.4962233,8.00977793 39.2291694,8.99425775 39.2291694,10.1111111 C39.2291694,11.2279645 38.4962233,12.2124443 37.4262778,12.5327222 L23.1291666,16.8223611 C21.2345687,17.3905294 19.2149312,17.3905294 17.3203334,16.8223611 L3.01563887,12.5327222 C1.94569333,12.2124443 1.21274723,11.2279645 1.21274723,10.1111111 C1.21274723,8.99425775 1.94569333,8.00977793 3.01563887,7.68949998 Z M37.0749167,17.2495555 L37.4288056,17.3557222 C38.4987511,17.6760002 39.2316972,18.66048 39.2316972,19.7773333 C39.2316972,20.8941867 38.4987511,21.8786665 37.4288056,22.1989445 L23.1266388,26.4885833 C21.232041,27.0567516 19.2124035,27.0567516 17.3178056,26.4885833 L3.01563887,22.1989445 C1.94569333,21.8786665 1.21274723,20.8941867 1.21274723,19.7773333 C1.21274723,18.66048 1.94569333,17.6760002 3.01563887,17.3557222 L3.36700004,17.2495555 L17.3178056,21.4330277 C18.9986674,21.9375736 20.7819094,21.9959406 22.4921666,21.6023889 L23.1266388,21.4330277 L37.0749167,17.2495555 Z M37.0749167,27.3606667 L37.4288056,27.4668334 C38.498751,27.7871114 39.231697,28.7715912 39.231697,29.8884444 C39.231697,31.0052977 38.498751,31.9897775 37.4288056,32.3100555 L23.1266388,36.5996945 C21.232041,37.1678628 19.2124035,37.1678628 17.3178056,36.5996945 L3.01563887,32.3100555 C1.94569342,31.9897775 1.21274741,31.0052977 1.21274741,29.8884444 C1.21274741,28.7715912 1.94569342,27.7871114 3.01563887,27.4668334 L3.36700004,27.3606667 L17.3178056,31.5441389 C18.9986674,32.0486848 20.7819094,32.1070518 22.4921666,31.7135 L23.1266388,31.5441389 L37.0749167,27.3606667 L37.0749167,27.3606667 Z" id="形状"></path>
                </g>
            </g>
        </g>
    </g>
</svg>