<?xml version="1.0" encoding="UTF-8"?>
<svg width="66px" height="66px" viewBox="0 0 66 66" version="1.1" xmlns="http://www.w3.org/2000/svg" xmlns:xlink="http://www.w3.org/1999/xlink">
    <title>用户管理</title>
    <defs>
        <linearGradient x1="50%" y1="0%" x2="50%" y2="100%" id="linearGradient-1">
            <stop stop-color="#FFEABE" offset="0%"></stop>
            <stop stop-color="#FFE0A0" offset="100%"></stop>
        </linearGradient>
        <linearGradient x1="50%" y1="0%" x2="50%" y2="100%" id="linearGradient-2">
            <stop stop-color="#FFF5E2" offset="0%"></stop>
            <stop stop-color="#FFE0A0" offset="100%"></stop>
        </linearGradient>
    </defs>
    <g id="页面-1" stroke="none" stroke-width="1" fill="none" fill-rule="evenodd">
        <g id="首页" transform="translate(-366.000000, -277.000000)" fill-rule="nonzero">
            <g id="编组" transform="translate(290.000000, 218.000000)">
                <g id="用户管理" transform="translate(76.000000, 59.000000)">
                    <path d="M66,53.625 L66,49.5 L62.32875,49.5 C62.0446057,47.9220743 61.4102995,46.4279306 60.4725,45.1275 L63.03,42.4875 L60.555,39.97125 L57.95625,42.61125 C56.6668136,41.6971519 55.1852124,41.0904009 53.625,40.8375 L53.625,37.125 L49.5,37.125 L49.5,40.79625 C47.9220743,41.0803943 46.4279306,41.7147005 45.1275,42.6525 L42.4875,40.095 L39.97125,42.57 L42.61125,45.16875 C41.6971519,46.4581864 41.0904009,47.9397876 40.8375,49.5 L37.125,49.5 L37.125,53.625 L40.79625,53.625 C41.0803943,55.2029257 41.7147005,56.6970694 42.6525,57.9975 L40.095,60.6375 L42.57,63.15375 L45.16875,60.51375 C46.4581864,61.4278481 47.9397876,62.0345991 49.5,62.2875 L49.5,66 L53.625,66 L53.625,62.32875 C55.2029257,62.0446057 56.6970694,61.4102995 57.9975,60.4725 L60.6375,63.03 L63.15375,60.555 L60.51375,57.95625 C61.4278481,56.6668136 62.0345991,55.1852124 62.2875,53.625 L66,53.625 Z M51.5625,56.96625 C48.5780913,56.96625 46.15875,54.5469087 46.15875,51.5625 C46.15875,48.5780913 48.5780913,46.15875 51.5625,46.15875 C54.5469087,46.15875 56.96625,48.5780913 56.96625,51.5625 C56.96625,54.5469087 54.5469087,56.96625 51.5625,56.96625 L51.5625,56.96625 Z" id="形状" fill="url(#linearGradient-1)"></path>
                    <path d="M33,0 C24.479627,0 17.5725,6.90712702 17.5725,15.4275 C17.5725,23.947873 24.479627,30.855 33,30.855 C41.520373,30.855 48.4275,23.947873 48.4275,15.4275 C48.4275,11.3358726 46.8021073,7.41182761 43.9088899,4.51861013 C41.0156724,1.62539265 37.0916274,0 33,0 Z M0,63.855 L0,66 L38.1975,66 C34.087914,61.0113301 32.3011752,54.5066734 33.2857571,48.1187064 C34.2703389,41.7307393 37.9327606,36.0659657 43.35375,32.54625 C33.3003401,29.224247 22.2634574,30.9279432 13.6797317,37.1268469 C5.09600603,43.3257506 0.00799962613,53.2669554 0,63.855 L0,63.855 Z" id="形状" fill="url(#linearGradient-2)"></path>
                </g>
            </g>
        </g>
    </g>
</svg>