<?xml version="1.0" encoding="UTF-8"?>
<svg width="225px" height="220px" viewBox="0 0 225 220" version="1.1" xmlns="http://www.w3.org/2000/svg" xmlns:xlink="http://www.w3.org/1999/xlink">
    <title>用户管理</title>
    <defs>
        <rect id="path-1" x="0" y="0" width="225" height="220" rx="8"></rect>
    </defs>
    <g id="页面-1" stroke="none" stroke-width="1" fill="none" fill-rule="evenodd">
        <g id="首页" transform="translate(-290.000000, -218.000000)">
            <g id="用户管理" transform="translate(290.000000, 218.000000)">
                <mask id="mask-2" fill="white">
                    <use xlink:href="#path-1"></use>
                </mask>
                <use id="蒙版" fill="#FCBB32" xlink:href="#path-1"></use>
                <g mask="url(#mask-2)">
                    <g transform="translate(18.000000, 36.000000)"></g>
                </g>
                <g id="编组-2" mask="url(#mask-2)" fill="#F8B209" fill-rule="nonzero">
                    <g transform="translate(18.000000, 36.000000)" id="形状">
                        <path d="M109,88.6246201 L109,81.8328267 L102.955304,81.8328267 C102.487462,79.2347794 101.443079,76.7746788 99.898997,74.6335258 L104.109909,70.2867781 L100.034833,66.1437842 L95.756003,70.4905319 C93.6329521,68.9854736 91.1935025,67.9864609 88.6246201,67.5700608 L88.6246201,61.4574468 L81.8328267,61.4574468 L81.8328267,67.5021429 C79.2347794,67.9699851 76.7746788,69.0143674 74.6335258,70.5584498 L70.2867781,66.347538 L66.1437842,70.422614 L70.4905319,74.7014438 C68.9854736,76.8244947 67.9864609,79.2639443 67.5700608,81.8328267 L61.4574468,81.8328267 L61.4574468,88.6246201 L67.5021429,88.6246201 C67.9699851,91.2226674 69.0143674,93.682768 70.5584498,95.823921 L66.347538,100.170669 L70.422614,104.313663 L74.7014438,99.9669149 C76.8244947,101.471973 79.2639443,102.470986 81.8328267,102.887386 L81.8328267,109 L88.6246201,109 L88.6246201,102.955304 C91.2226674,102.487462 93.682768,101.443079 95.823921,99.898997 L100.170669,104.109909 L104.313663,100.034833 L99.9669149,95.756003 C101.471973,93.6329521 102.470986,91.1935025 102.887386,88.6246201 L109,88.6246201 Z M85.2287234,94.1259726 C80.3149083,94.1259726 76.3314742,90.1425385 76.3314742,85.2287234 C76.3314742,80.3149083 80.3149083,76.3314742 85.2287234,76.3314742 C90.1425385,76.3314742 94.1259726,80.3149083 94.1259726,85.2287234 C94.1259726,90.1425385 90.1425385,94.1259726 85.2287234,94.1259726 L85.2287234,94.1259726 Z"></path>
                        <path d="M54.5217297,0 C40.4445942,0 29.0328211,11.4072249 29.0328211,25.47875 C29.0328211,39.5502751 40.4445942,50.9575 54.5217297,50.9575 C68.5988652,50.9575 80.0106383,39.5502751 80.0106383,25.47875 C80.0106383,18.7213654 77.3252074,12.2407456 72.5451098,7.4625531 C67.7650122,2.6843606 61.2818085,0 54.5217297,0 Z M0,105.4575 L0,109 L63.1089021,109 C56.3191526,100.761136 53.3671498,90.018597 54.99385,79.4687727 C56.6205502,68.9189483 62.6715066,59.5634887 71.6279224,53.750625 C55.0179437,48.2642867 36.7830971,51.0779667 22.6012919,61.3155501 C8.41948676,71.5531335 0.0132167713,87.9711838 0,105.4575 L0,105.4575 Z"></path>
                    </g>
                </g>
            </g>
        </g>
    </g>
</svg>