<?xml version="1.0" encoding="UTF-8"?>
<svg width="32px" height="32px" viewBox="0 0 32 32" version="1.1" xmlns="http://www.w3.org/2000/svg" xmlns:xlink="http://www.w3.org/1999/xlink">
    <title>添加 (2)</title>
    <g id="页面-1" stroke="none" stroke-width="1" fill="none" fill-rule="evenodd">
        <g id="画板" transform="translate(-14.000000, -14.000000)" fill="#FFFFFF" fill-rule="nonzero">
            <g id="添加-(2)" transform="translate(14.000000, 14.000000)">
                <path d="M30,14 L18,14 L18,2 C18,0.8954305 17.1045695,0 16,0 C14.8954305,0 14,0.8954305 14,2 L14,14 L2,14 C0.8954305,14 0,14.8954305 0,16 C0,17.1045695 0.8954305,18 2,18 L14,18 L14,30 C14,31.1045695 14.8954305,32 16,32 C17.1045695,32 18,31.1045695 18,30 L18,18 L30,18 C31.1045695,18 32,17.1045695 32,16 C32,14.8954305 31.1045695,14 30,14 Z" id="路径"></path>
            </g>
        </g>
    </g>
</svg>