<?xml version="1.0" encoding="UTF-8"?>
<svg width="15px" height="16px" viewBox="0 0 15 16" version="1.1" xmlns="http://www.w3.org/2000/svg" xmlns:xlink="http://www.w3.org/1999/xlink">
    <title>编组</title>
    <g id="页面-1" stroke="none" stroke-width="1" fill="none" fill-rule="evenodd">
        <g id="登录页" transform="translate(-1243.000000, -419.000000)" fill="#333333" fill-rule="nonzero">
            <g id="编组-2" transform="translate(1189.000000, 256.000000)">
                <g id="编组-4" transform="translate(30.000000, 143.000000)">
                    <g id="编组" transform="translate(24.000000, 20.000000)">
                        <path d="M12.4199296,10.1799423 C13.9805141,11.4654969 14.8891565,13.3780425 14.8999155,15.3999127 C14.8999155,15.7312817 14.6312879,15.9999093 14.2999189,15.9999093 C13.96855,15.9999093 13.6999223,15.7312817 13.6999223,15.3999127 C13.6870013,13.7287125 12.9322668,12.149632 11.639934,11.0899371 C11.4076283,10.8700479 11.3886703,10.5065815 11.5968394,10.2637176 C11.8050084,10.0208537 12.1670982,9.9839997 12.4199296,10.1799423 Z M7.43995783,0 C10.0412043,0 12.1499311,2.10872687 12.1499311,4.70997329 C12.1499311,7.31121972 10.0412043,9.41994659 7.43995783,9.41994659 C7.35820243,9.41994659 7.27693355,9.41786358 7.19620135,9.41374775 L7.14995947,9.4199466 L7.14995947,9.4199466 C3.88214836,9.50526768 1.26246842,12.151409 1.20999315,15.4199126 C1.19912063,15.7473646 0.927580505,16.0055503 0.599996599,15.9999093 C0.268627627,15.9999093 0,15.7312817 0,15.3999127 C0.0499836771,12.2818271 2.05252857,9.63610815 4.84517338,8.63997342 C3.57067244,7.79849417 2.72998454,6.35241032 2.72998454,4.70997329 C2.72998454,2.10872687 4.83871141,0 7.43995783,0 Z M7.43995783,1.1999932 C5.50144935,1.1999932 3.92997773,2.77146481 3.92997773,4.70997329 C3.92997773,6.64848177 5.50144935,8.21995339 7.43995783,8.21995339 C9.37846631,8.21995339 10.9499379,6.64848177 10.9499379,4.70997329 C10.9499379,2.77146481 9.37846631,1.1999932 7.43995783,1.1999932 Z" id="形状结合"></path>
                    </g>
                </g>
            </g>
        </g>
    </g>
</svg>