<?xml version="1.0" encoding="UTF-8"?>
<svg width="15px" height="16px" viewBox="0 0 15 16" version="1.1" xmlns="http://www.w3.org/2000/svg" xmlns:xlink="http://www.w3.org/1999/xlink">
    <title>密码 (1)</title>
    <g id="页面-1" stroke="none" stroke-width="1" fill="none" fill-rule="evenodd">
        <g id="登录页" transform="translate(-1243.000000, -497.000000)" fill="#333333" fill-rule="nonzero">
            <g id="编组-2" transform="translate(1189.000000, 256.000000)">
                <g id="编组-4" transform="translate(30.000000, 143.000000)">
                    <g id="密码-(1)" transform="translate(24.000000, 98.000000)">
                        <path d="M12.3661792,5.15264273 C12.3661792,2.30691882 10.0594646,0 7.21374065,0 C4.36801674,0 2.06109793,2.30691882 2.06109793,5.15264273 C0.923053365,5.15264273 0,6.07508358 0,7.21374065 L0,13.9389021 C0,15.0771508 0.923053365,16 2.06109793,16 L12.3663834,16 C13.5046321,16 14.4274813,15.077355 14.4274813,13.9389021 L14.4274813,7.21374065 C14.4274813,6.07508358 13.5046321,5.15264273 12.3661792,5.15264273 Z M7.21374065,1.03044688 C9.49003394,1.03044688 11.3357323,2.87614527 11.3357323,5.15264273 L3.09174897,5.15264273 C3.09174897,2.8759411 4.93724319,1.03044688 7.21374065,1.03044688 Z M13.3966261,13.5266825 C13.3966261,13.9092826 13.2447309,14.276231 12.9742109,14.5467893 C12.7036908,14.8173477 12.336764,14.969349 11.9541638,14.969349 L2.47352168,14.969349 C2.09086737,14.969349 1.72386706,14.8174322 1.45327045,14.5468739 C1.18267385,14.2763156 1.03065105,13.9093368 1.03065105,13.5266825 L1.03065105,7.62596024 C1.03065105,7.24330593 1.18267385,6.87632712 1.45327045,6.60576881 C1.72386706,6.33521049 2.09086737,6.18329376 2.47352168,6.18329376 L11.9541638,6.18329376 C12.7508467,6.18340652 13.3966261,6.82927728 13.3966261,7.62596024 L13.3966261,13.5266825 Z" id="形状"></path>
                        <path d="M7.21374065,7.32562591 C6.07528775,7.32562591 5.15264273,8.24806676 5.15264273,9.38651966 C5.15264273,10.3469362 5.80945818,11.1538167 6.69841513,11.3826915 L6.69841513,13.311283 C6.69841515,13.5958894 6.92913424,13.8266084 7.21374065,13.8266084 C7.49834707,13.8266084 7.72906616,13.5958894 7.72906618,13.311283 L7.72906618,11.3826915 C8.61802312,11.1538167 9.27483858,10.3469362 9.27483858,9.38651966 C9.27483858,8.2484751 8.35219355,7.32562591 7.21374065,7.32562591 L7.21374065,7.32562591 Z M7.21374065,10.4171707 C6.84203036,10.4223654 6.496315,10.2270229 6.30896532,9.90593779 C6.12161563,9.58485272 6.12165496,9.18776609 6.30906824,8.86671814 C6.49648152,8.54567018 6.84223556,8.35039617 7.21394482,8.35566445 C7.77755659,8.36365257 8.23024691,8.82284987 8.23019109,9.38651824 C8.23013526,9.9501866 7.77735399,10.4092942 7.21374065,10.4171707 Z" id="形状"></path>
                    </g>
                </g>
            </g>
        </g>
    </g>
</svg>