<?xml version="1.0" encoding="UTF-8"?>
<svg width="13px" height="13px" viewBox="0 0 16 16" version="1.1" xmlns="http://www.w3.org/2000/svg" xmlns:xlink="http://www.w3.org/1999/xlink">
    <title>最大化</title>
    <g id="列表、左侧菜单规范" stroke="none" stroke-width="1" fill="none" fill-rule="evenodd">
        <g id="画板" transform="translate(-136.000000, -232.000000)" fill="#fff" fill-rule="nonzero">
            <g id="最大化" transform="translate(136.000000, 232.000000)">
                <path d="M0.668842438,15.6619926 C0.491402607,15.6641998 0.320568979,15.5947097 0.195089889,15.4692306 C0.069610799,15.3437515 0.000120743403,15.1729179 0.00238139618,14.9954781 L0.00238139618,8.91402101 C-0.0136030341,8.7328349 0.0514609948,8.55387063 0.180076524,8.4252551 C0.308692053,8.29663957 0.487656327,8.23157554 0.668842438,8.24755997 C0.846420399,8.2448345 1.01752554,8.31417518 1.14310691,8.43975655 C1.26868828,8.56533792 1.33802896,8.73644305 1.3353035,8.91402101 L1.3353035,13.4126331 L6.16714609,8.58079048 C6.4217298,8.33700442 6.82446704,8.34136675 7.07371041,8.59061012 C7.32295377,8.83985348 7.3273161,9.24259072 7.08353004,9.49717444 L2.1683798,14.4123247 L6.83360715,14.4123247 C6.99341849,14.3929885 7.1532492,14.4481803 7.26707704,14.5620082 C7.38090488,14.675836 7.43609677,14.8356667 7.41676055,14.9954781 C7.41856071,15.1727803 7.3489227,15.3433452 7.22354465,15.4687232 C7.09816661,15.5941013 6.9276017,15.6637393 6.75029951,15.6619926 L0.668842438,15.6619926 Z M14.6645245,6.83133023 L14.6645245,2.33271816 L9.83268187,7.16456076 C9.71882583,7.26907781 9.57067189,7.32833938 9.4161437,7.33117602 C9.26184528,7.32721316 9.11407189,7.26810381 8.99960555,7.16456076 C8.75113602,6.90962722 8.75113602,6.50311037 8.99960555,6.24817683 L13.9147558,1.33302658 L9.24952844,1.33302658 C9.06819203,1.34961829 8.88886246,1.28475114 8.76010265,1.15599133 C8.63134284,1.02723152 8.56647569,0.847901949 8.5830674,0.666565541 C8.58080675,0.48912571 8.6502968,0.318292082 8.77577589,0.192812992 C8.90125498,0.0673339021 9.07208861,-0.00215615352 9.24952844,5.10176057e-05 L15.3309855,5.10176057e-05 C15.664216,5.10176057e-05 15.9141389,0.250027392 15.9974466,0.749873179 L15.9974466,6.83133023 C16.0140383,7.01266664 15.9491711,7.19199622 15.8204113,7.32075603 C15.6916515,7.44951585 15.5123219,7.514383 15.3309855,7.49779129 C15.1531995,7.50122222 14.9816817,7.43210828 14.8559446,7.30637115 C14.7302075,7.18063401 14.6610935,7.00911629 14.6645245,6.83133023 L14.6645245,6.83133023 Z" id="形状"></path>
            </g>
        </g>
    </g>
</svg>