<?xml version="1.0" encoding="UTF-8"?>
<svg width="40px" height="41px" viewBox="0 0 40 41" version="1.1" xmlns="http://www.w3.org/2000/svg" xmlns:xlink="http://www.w3.org/1999/xlink">
    <title>创建&amp;添加&amp;批量添加</title>
    <g id="页面-1" stroke="none" stroke-width="1" fill="none" fill-rule="evenodd">
        <g id="首页面" transform="translate(-784.000000, -360.000000)" fill="#1890FF" fill-rule="nonzero">
            <g id="工作台" transform="translate(455.000000, 80.000000)">
                <g id="编组-14" transform="translate(289.000000, 240.000000)">
                    <g id="创建&amp;添加&amp;批量添加" transform="translate(40.000000, 40.000000)">
                        <path d="M19.8479913,40.0032303 C18.0962722,39.9260195 16.7306068,38.4493637 16.7306068,36.6928189 L16.7306068,3.31364167 C16.7306068,1.56192252 18.0962722,0.0852667141 19.8479913,0.00323028024 C21.7203523,-0.0788061536 23.2597418,1.41232667 23.2597418,3.26538494 L23.2597418,36.7410756 C23.2597418,38.5941339 21.7203523,40.0900924 19.8479913,40.0032303 L19.8479913,40.0032303 Z" id="路径"></path>
                        <path d="M36.7378453,23.2677978 L3.26215466,23.2677978 C1.45735312,23.2677978 0,21.805619 0,20.0056431 C0,18.2008416 1.46217879,16.7434885 3.26215466,16.7434885 L36.7378453,16.7434885 C38.5426469,16.7434885 40,18.2056672 40,20.0056431 C40,21.8104447 38.5378212,23.2677978 36.7378453,23.2677978 Z" id="路径"></path>
                    </g>
                </g>
            </g>
        </g>
    </g>
</svg>