<?xml version="1.0" encoding="UTF-8"?>
<svg width="13px" height="13px" viewBox="0 0 16 16" version="1.1" xmlns="http://www.w3.org/2000/svg" xmlns:xlink="http://www.w3.org/1999/xlink">
    <title>还原</title>
    <g id="列表、左侧菜单规范" stroke="none" stroke-width="1" fill="none" fill-rule="evenodd">
        <g id="画板" transform="translate(-175.000000, -193.000000)" fill="#fff" fill-rule="nonzero">
            <g id="还原" transform="translate(175.000000, 193.000000)">
                <path d="M14.9189,0 L4.4183,0 C3.8222,0 3.3372,0.4812 3.3372,1.0725 L3.3372,3.311 L1.0811,3.311 C0.4849,3.311 0,3.7922 0,4.3836 L0,14.9274 C0,15.5188 0.4849,16 1.0811,16 L11.5816,16 C12.1776,16 12.6627,15.5188 12.6627,14.9274 L12.6627,12.6889 L14.9189,12.6889 C15.515,12.6889 16,12.2078 16,11.6163 L16,1.0725 C16,0.4812 15.515,0 14.9189,0 Z M11.4615,14.8082 L1.2012,14.8082 L1.2012,4.5027 L11.4615,4.5027 L11.4615,14.8082 Z M14.7988,11.4972 L12.6627,11.4972 L12.6627,4.3836 C12.6627,3.7922 12.1776,3.311 11.5816,3.311 L4.5385,3.311 L4.5385,1.1917 L14.7988,1.1917 L14.7988,11.4972 Z" id="形状"></path>
            </g>
        </g>
    </g>
</svg>