<?xml version="1.0" standalone="no"?><!DOCTYPE svg PUBLIC "-//W3C//DTD SVG 1.1//EN" "http://www.w3.org/Graphics/SVG/1.1/DTD/svg11.dtd"><svg t="1681199039990" class="icon" viewBox="0 0 1024 1024" version="1.1" xmlns="http://www.w3.org/2000/svg" p-id="5165" xmlns:xlink="http://www.w3.org/1999/xlink" width="16" height="16"><path d="M965.973333 919.665778l-177.834666-178.005334a442.709333 442.709333 0 0 0 109.738666-292.579555A447.431111 447.431111 0 0 0 449.308444 0.568889C200.590222-1.877333 0.739556 200.362667 0.739556 449.080889a447.317333 447.317333 0 0 0 448.568888 448.568889 443.278222 443.278222 0 0 0 287.687112-104.846222l177.834666 178.005333c7.338667 7.281778 17.066667 9.671111 26.908445 9.671111 9.671111 0 19.569778-2.389333 26.851555-9.671111a37.603556 37.603556 0 0 0-2.616889-51.143111z m-516.835555-92.728889c-209.692444 0-380.302222-170.666667-380.302222-377.856 0-209.692444 170.723556-380.245333 380.302222-380.245333 209.692444 0 377.856 170.666667 377.856 380.245333a378.026667 378.026667 0 0 1-377.856 377.856z" p-id="5166" fill="#505766"></path></svg>