<?xml version="1.0" encoding="UTF-8"?>
<svg width="54px" height="60px" viewBox="0 0 54 60" version="1.1" xmlns="http://www.w3.org/2000/svg" xmlns:xlink="http://www.w3.org/1999/xlink">
    <title>分组</title>
    <g id="页面-1" stroke="none" stroke-width="1" fill="none" fill-rule="evenodd">
        <g id="画板" transform="translate(-40.000000, -16.000000)">
            <g id="分组" transform="translate(40.000000, 16.000000)">
                <path d="M33.3041916,0.289156627 L8.32637794,0.289156627 C6.7223238,0.289156627 5.421981,1.57283664 5.421981,3.15633619 L5.421981,56.915953 C5.421981,58.4994525 6.7223238,59.7831325 8.32637794,59.7831325 L50.875793,59.7831325 C52.4798472,59.7831325 53.78019,58.4994525 53.78019,56.915953 L53.78019,20.5027725 L33.3041916,0.289156627 Z" id="Path" fill="#FFFFFF"></path>
                <path d="M33.3378562,0 L33.3378562,1.44578313 L8.13297151,1.44578313 C7.32365328,1.44578313 6.66757123,2.09308229 6.66757123,2.89156627 L6.66757123,57.1084337 C6.66757123,57.9069177 7.32365328,58.5542169 8.13297151,58.5542169 L51.0691995,58.5542169 C51.8785177,58.5542169 52.5345997,57.9069177 52.5345997,57.1084337 L52.5345997,20.3855422 L54,20.3855422 L54,57.1084337 C54,58.7054017 52.6878359,60 51.0691995,60 L8.13297151,60 C6.51433506,60 5.20217096,58.7054017 5.20217096,57.1084337 L5.20217096,2.89156627 C5.20217096,1.29459831 6.51433506,0 8.13297151,0 L33.3378562,0 Z" id="Rectangle-Copy-9" fill="#CCCCCC" fill-rule="nonzero"></path>
                <path d="M34.8032564,17.4939759 C34.8032564,18.2924599 35.4593385,18.939759 36.2686567,18.939759 L50.4622108,18.939759 L34.8032564,3.49042925 L34.8032564,17.4939759 Z M33.3378562,0 L54,20.3855422 L36.2686567,20.3855422 C34.6500203,20.3855422 33.3378562,19.0909439 33.3378562,17.4939759 L33.3378562,0 Z" id="Rectangle-2-Copy" fill="#CCCCCC" fill-rule="nonzero"></path>
                <path d="M2.63772049,7.37349398 L25.2048847,7.37349398 C26.6616575,7.37349398 27.8426052,8.53863246 27.8426052,9.97590361 L27.8426052,32.2409639 C27.8426052,33.678235 26.6616575,34.8433735 25.2048847,34.8433735 L2.63772049,34.8433735 C1.18094769,34.8433735 0,33.678235 0,32.2409639 L0,9.97590361 C0,8.53863246 1.18094769,7.37349398 2.63772049,7.37349398 Z" id="Rectangle-59-Copy" fill="#FB7776"></path>
                <path d="M48.8710991,48.8674699 L48.8710991,50.313253 L10.3310719,50.313253 L10.3310719,48.8674699 L48.8710991,48.8674699 Z M48.8710991,41.8554217 L48.8710991,43.3012048 L10.3310719,43.3012048 L10.3310719,41.8554217 L48.8710991,41.8554217 Z M48.8710991,34.8433735 L48.8710991,36.2891566 L31.2862958,36.2891566 L31.2862958,34.8433735 L48.8710991,34.8433735 Z M48.8710991,27.8313253 L48.8710991,29.2771084 L31.2862958,29.2771084 L31.2862958,27.8313253 L48.8710991,27.8313253 Z" id="Combined-Shape-Copy" fill="#CCCCCC"></path>
                <path d="M19.3547533,23.1804567 C18.9665159,23.1804567 18.6214244,23.1804567 18.2331869,23.2658815 C18.6645324,23.4792091 19.0959536,23.5645402 19.527299,23.607262 C19.8292825,23.6499087 20.1312471,23.607262 20.3900657,23.5219122 C20.3900657,23.3938593 20.2175199,23.1804567 19.3547533,23.1804567 M13.4880461,20.9186964 L13.4449381,21.0040462 L13.4017732,20.9613244 C13.0135169,21.9429127 12.5821904,22.9244261 12.1076612,23.8633114 L12.193934,23.8206646 L12.193934,23.9060144 C13.1429736,23.5645402 14.178267,23.2658815 15.1272876,23.0524789 L15.0841227,23.0097571 L15.2135605,23.0097571 C14.5665045,22.369643 13.9625564,21.6441603 13.4880461,20.9186964 M13.1860626,14.7306576 L13.0567007,14.7306576 C13.0135169,14.7306576 12.927263,14.7306576 12.884155,14.7733607 C12.7115523,15.4988433 12.8409901,16.2670291 13.1429736,16.94979 C13.4017732,16.2243073 13.4017732,15.4561216 13.1860626,14.7306576 M7.44879322,27.5334653 L7.57823097,27.4907436 C8.18210318,27.2774159 8.65661347,26.8506294 9.0017808,26.2958463 C8.35472476,26.551877 7.83703064,26.9786823 7.44879322,27.5334653 M19.527299,24.887509 C18.3625489,24.8021779 17.2409825,24.3754477 16.3351268,23.607262 C14.5665045,23.9913642 12.884155,24.5461473 11.2017296,25.2289082 C9.8645285,27.5760934 8.61352443,28.7710843 7.53504714,28.7710843 C7.31941234,28.7710843 7.06053685,28.7283813 6.88801006,28.6003097 C6.41348081,28.3869821 6.15468114,27.9175488 6.15468114,27.4481155 C6.15468114,27.0640321 6.24095401,25.9970752 10.3390388,24.2473949 C11.2880783,22.5403426 12.0214072,20.7906435 12.6252795,18.9555947 C12.1076612,17.9313783 10.9860948,15.4134935 11.7625128,14.1332278 C12.0214072,13.6637945 12.5390066,13.4076888 13.0997898,13.4503919 C13.531211,13.4503919 13.9625564,13.6637945 14.2213561,14.0051749 C14.7821392,14.7733607 14.7390502,16.3950069 14.0057213,18.7848951 C14.6958853,20.0651608 15.6017979,21.2174488 16.6801994,22.1989434 C17.5861309,22.0282438 18.4920056,21.9002097 19.3978423,21.9002097 C21.4253591,21.9429127 21.7273426,22.881798 21.6841588,23.4365811 C21.6841588,24.887509 20.260609,24.887509 19.527299,24.887509" id="Fill-1" fill="#FFFFFF"></path>
            </g>
        </g>
    </g>
</svg>