<?xml version="1.0" encoding="UTF-8"?>
<svg width="54px" height="60px" viewBox="0 0 54 60" version="1.1" xmlns="http://www.w3.org/2000/svg" xmlns:xlink="http://www.w3.org/1999/xlink">
    <title>分组</title>
    <g id="页面-1" stroke="none" stroke-width="1" fill="none" fill-rule="evenodd">
        <g id="画板" transform="translate(-134.000000, -16.000000)">
            <g id="分组" transform="translate(134.000000, 16.000000)">
                <path d="M33.3041916,0.289156627 L8.32637794,0.289156627 C6.7223238,0.289156627 5.421981,1.57283664 5.421981,3.15633619 L5.421981,56.915953 C5.421981,58.4994525 6.7223238,59.7831325 8.32637794,59.7831325 L50.875793,59.7831325 C52.4798472,59.7831325 53.78019,58.4994525 53.78019,56.915953 L53.78019,20.5027725 L33.3041916,0.289156627 Z" id="Path" fill="#FFFFFF"></path>
                <path d="M33.3378562,0 L33.3378562,1.44578313 L8.13297151,1.44578313 C7.32365328,1.44578313 6.66757123,2.09308229 6.66757123,2.89156627 L6.66757123,57.1084337 C6.66757123,57.9069177 7.32365328,58.5542169 8.13297151,58.5542169 L51.0691995,58.5542169 C51.8785177,58.5542169 52.5345997,57.9069177 52.5345997,57.1084337 L52.5345997,20.3855422 L54,20.3855422 L54,57.1084337 C54,58.7054017 52.6878359,60 51.0691995,60 L8.13297151,60 C6.51433506,60 5.20217096,58.7054017 5.20217096,57.1084337 L5.20217096,2.89156627 C5.20217096,1.29459831 6.51433506,0 8.13297151,0 L33.3378562,0 Z" id="Rectangle-Copy-9" fill="#CCCCCC" fill-rule="nonzero"></path>
                <path d="M34.8032564,17.4939759 C34.8032564,18.2924599 35.4593385,18.939759 36.2686567,18.939759 L50.4622108,18.939759 L34.8032564,3.49042925 L34.8032564,17.4939759 Z M33.3378562,0 L54,20.3855422 L36.2686567,20.3855422 C34.6500203,20.3855422 33.3378562,19.0909439 33.3378562,17.4939759 L33.3378562,0 Z" id="Rectangle-2-Copy" fill="#CCCCCC" fill-rule="nonzero"></path>
                <path d="M2.63772049,7 L25.2048847,7 C26.6616575,7 27.8426052,8.16513848 27.8426052,9.60240964 L27.8426052,31.8674699 C27.8426052,33.304741 26.6616575,34.4698795 25.2048847,34.4698795 L2.63772049,34.4698795 C1.18094769,34.4698795 0,33.304741 0,31.8674699 L0,9.60240964 C0,8.16513848 1.18094769,7 2.63772049,7 Z" id="Rectangle-59-Copy" fill="#54A0FF"></path>
                <polygon id="路径" fill="#FFFFFF" fill-rule="nonzero" points="22 15.0000364 18.6511653 27.5023525 16.7162709 27.5023525 14.0372032 17.5302549 11.2837291 27.5023161 9.34883467 27.5023161 6 15 7.78604516 15 10.3163001 24.3023307 12.8465186 15 15.1535178 15 17.6837363 24.3023307 20.2139548 15 22 15"></polygon>
                <path d="M48.8710991,48.8674699 L48.8710991,50.313253 L10.3310719,50.313253 L10.3310719,48.8674699 L48.8710991,48.8674699 Z M48.8710991,41.8554217 L48.8710991,43.3012048 L10.3310719,43.3012048 L10.3310719,41.8554217 L48.8710991,41.8554217 Z M48.8710991,34.8433735 L48.8710991,36.2891566 L31.2862958,36.2891566 L31.2862958,34.8433735 L48.8710991,34.8433735 Z M48.8710991,27.8313253 L48.8710991,29.2771084 L31.2862958,29.2771084 L31.2862958,27.8313253 L48.8710991,27.8313253 Z" id="Combined-Shape-Copy" fill="#CCCCCC"></path>
            </g>
        </g>
    </g>
</svg>