<?xml version="1.0" encoding="UTF-8"?>
<svg width="49px" height="60px" viewBox="0 0 49 60" version="1.1" xmlns="http://www.w3.org/2000/svg" xmlns:xlink="http://www.w3.org/1999/xlink">
    <title>分组</title>
    <g id="页面-1" stroke="none" stroke-width="1" fill="none" fill-rule="evenodd">
        <g id="画板" transform="translate(-421.000000, -16.000000)">
            <g id="分组" transform="translate(421.202171, 16.000000)">
                <path d="M28.1020206,0.289156627 L3.12420697,0.289156627 C1.52015284,0.289156627 0.219810041,1.57283664 0.219810041,3.15633619 L0.219810041,56.915953 C0.219810041,58.4994525 1.52015284,59.7831325 3.12420697,59.7831325 L45.6736221,59.7831325 C47.2776762,59.7831325 48.578019,58.4994525 48.578019,56.915953 L48.578019,20.5027725 L28.1020206,0.289156627 Z" id="Path" fill="#FFFFFF"></path>
                <path d="M28.1356852,0 L28.1356852,1.44578313 L2.93080054,1.44578313 C2.12148232,1.44578313 1.46540027,2.09308229 1.46540027,2.89156627 L1.46540027,57.1084337 C1.46540027,57.9069177 2.12148232,58.5542169 2.93080054,58.5542169 L45.8670285,58.5542169 C46.6763467,58.5542169 47.3324288,57.9069177 47.3324288,57.1084337 L47.3324288,20.3855422 L48.797829,20.3855422 L48.797829,57.1084337 C48.797829,58.7054017 47.4856649,60 45.8670285,60 L2.93080054,60 C1.3121641,60 0,58.7054017 0,57.1084337 L0,2.89156627 C0,1.29459831 1.3121641,0 2.93080054,0 L28.1356852,0 Z" id="Rectangle-Copy-9" fill="#CCCCCC" fill-rule="nonzero"></path>
                <path d="M29.6010855,17.4939759 C29.6010855,18.2924599 30.2571675,18.939759 31.0664858,18.939759 L45.2600398,18.939759 L29.6010855,3.49042925 L29.6010855,17.4939759 Z M28.1356852,0 L48.797829,20.3855422 L31.0664858,20.3855422 C29.4478493,20.3855422 28.1356852,19.0909439 28.1356852,17.4939759 L28.1356852,0 Z" id="Rectangle-2-Copy" fill="#CCCCCC" fill-rule="nonzero"></path>
                <path d="M43.6689281,48.8674699 L43.6689281,50.313253 L5.12890095,50.313253 L5.12890095,48.8674699 L43.6689281,48.8674699 Z M43.6689281,41.8554217 L43.6689281,43.3012048 L5.12890095,43.3012048 L5.12890095,41.8554217 L43.6689281,41.8554217 Z M43.6689281,34.8433735 L43.6689281,36.2891566 L5.09822758,36.2891566 L5.09822758,34.8433735 L43.6689281,34.8433735 Z M43.6689281,27.8313253 L43.6689281,29.2771084 L5.09661437,29.2771084 L5.09661437,27.8313253 L43.6689281,27.8313253 Z M23.3097653,20.8313253 L23.3097653,22.2771084 L5.09661437,22.2771084 L5.09661437,20.8313253 L23.3097653,20.8313253 Z M23.3097653,13.8313253 L23.3097653,15.2771084 L5.09661437,15.2771084 L5.09661437,13.8313253 L23.3097653,13.8313253 Z" id="Combined-Shape-Copy" fill="#CCCCCC"></path>
            </g>
        </g>
    </g>
</svg>