<?xml version="1.0" encoding="UTF-8"?>
<svg width="91px" height="91px" viewBox="0 0 91 91" version="1.1" xmlns="http://www.w3.org/2000/svg" xmlns:xlink="http://www.w3.org/1999/xlink">
    <title>地图组织站点,层级,下级,组织架构布局 (1)</title>
    <defs>
        <linearGradient x1="50%" y1="0%" x2="50%" y2="100%" id="linearGradient-1">
            <stop stop-color="#F3F9FF" offset="0%"></stop>
            <stop stop-color="#70B5FF" offset="100%"></stop>
        </linearGradient>
    </defs>
    <g id="页面-1" stroke="none" stroke-width="1" fill="none" fill-rule="evenodd">
        <g id="云管理平台首页" transform="translate(-758.000000, -377.000000)" fill="url(#linearGradient-1)" fill-rule="nonzero">
            <g id="编组" transform="translate(646.000000, 218.000000)">
                <g id="地图组织站点,层级,下级,组织架构布局-(1)" transform="translate(112.000000, 159.000000)">
                    <path d="M91,70.8271484 L91,82.46875 C91,87.1787109 87.1787109,91 82.46875,91 L73.9375,91 C69.2275391,91 65.40625,87.1787109 65.40625,82.46875 L65.40625,70.8271484 C65.40625,68.472168 66.3571289,66.3393555 67.903418,64.7930664 C69.449707,63.2467773 71.5825195,62.2958984 73.9375,62.2958984 C74.7195313,62.2958984 75.359375,61.6560547 75.359375,60.8740234 L75.359375,54.03125 C75.359375,52.4583008 74.0885742,51.1875 72.515625,51.1875 L49.765625,51.1875 C48.9835938,51.1875 48.34375,51.8273438 48.34375,52.609375 L48.34375,60.9628906 C48.34375,61.7004883 48.9391602,62.2958984 49.6767578,62.2958984 L49.765625,62.2958984 C54.4755859,62.2958984 58.296875,66.1171875 58.296875,70.8271484 L58.296875,82.46875 C58.296875,87.1787109 54.4755859,91 49.765625,91 L41.234375,91 C36.5244141,91 32.703125,87.1787109 32.703125,82.46875 L32.703125,70.8271484 C32.703125,66.1171875 36.5244141,62.2958984 41.234375,62.2958984 L41.3232422,62.2958984 C42.0608398,62.2958984 42.65625,61.7004883 42.65625,60.9628906 L42.65625,52.609375 C42.65625,51.8273438 42.0164063,51.1875 41.234375,51.1875 L18.484375,51.1875 C16.9114258,51.1875 15.640625,52.4583008 15.640625,54.03125 L15.640625,60.8740234 C15.640625,61.2650391 15.8005859,61.6205078 16.0583008,61.8782227 C16.3160156,62.1359375 16.6714844,62.2958984 17.0625,62.2958984 C21.7724609,62.2958984 25.59375,66.1171875 25.59375,70.8271484 L25.59375,82.46875 C25.59375,87.1787109 21.7724609,91 17.0625,91 L8.53125,91 C3.82128906,91 0,87.1787109 0,82.46875 L0,70.8271484 C0,68.472168 0.950878906,66.3393555 2.49716797,64.7930664 C4.04345703,63.2467773 6.17626953,62.2958984 8.53125,62.2958984 C9.31328125,62.2958984 9.953125,61.6560547 9.953125,60.8740234 L9.953125,54.03125 C9.953125,49.3212891 13.7744141,45.5 18.484375,45.5 L41.234375,45.5 C42.0164063,45.5 42.65625,44.8601563 42.65625,44.078125 L42.65625,35.546875 C42.65625,34.7648437 42.0164063,34.125 41.234375,34.125 L36.96875,34.125 C32.2587891,34.125 28.4375,30.3037109 28.4375,25.59375 L28.4375,8.53125 C28.4375,3.82128906 32.2587891,0 36.96875,0 L54.03125,0 C58.7412109,0 62.5625,3.82128906 62.5625,8.53125 L62.5625,25.59375 C62.5625,30.3037109 58.7412109,34.125 54.03125,34.125 L49.765625,34.125 C48.9835938,34.125 48.34375,34.7648437 48.34375,35.546875 L48.34375,44.078125 C48.34375,44.8601563 48.9835938,45.5 49.765625,45.5 L72.515625,45.5 C77.2255859,45.5 81.046875,49.3212891 81.046875,54.03125 L81.046875,60.8740234 C81.046875,61.6560547 81.6867187,62.2958984 82.46875,62.2958984 C87.1787109,62.2958984 91,66.1171875 91,70.8271484 Z" id="路径"></path>
                </g>
            </g>
        </g>
    </g>
</svg>