<?xml version="1.0" encoding="UTF-8"?>
<svg width="315px" height="467px" viewBox="0 0 315 467" version="1.1" xmlns="http://www.w3.org/2000/svg" xmlns:xlink="http://www.w3.org/1999/xlink">
    <title>用户管理</title>
    <defs>
        <rect id="path-1" x="0" y="0" width="315" height="467" rx="8"></rect>
    </defs>
    <g id="页面-1" stroke="none" stroke-width="1" fill="none" fill-rule="evenodd">
        <g id="云管理平台首页" transform="translate(-646.000000, -218.000000)">
            <g id="用户管理" transform="translate(646.000000, 218.000000)">
                <mask id="mask-2" fill="white">
                    <use xlink:href="#path-1"></use>
                </mask>
                <use id="蒙版" fill="#3196FF" xlink:href="#path-1"></use>
                <g id="地图组织站点,层级,下级,组织架构布局-(1)" mask="url(#mask-2)" fill="#3292FA" fill-rule="nonzero">
                    <g transform="translate(-6.000000, -17.000000)" id="路径">
                        <path d="M163,126.866211 L163,147.71875 C163,156.155273 156.155273,163 147.71875,163 L132.4375,163 C124.000977,163 117.15625,156.155273 117.15625,147.71875 L117.15625,126.866211 C117.15625,122.647949 118.859473,118.827637 121.629199,116.05791 C124.398926,113.288184 128.219238,111.584961 132.4375,111.584961 C133.838281,111.584961 134.984375,110.438867 134.984375,109.038086 L134.984375,96.78125 C134.984375,93.9637695 132.708105,91.6875 129.890625,91.6875 L89.140625,91.6875 C87.7398438,91.6875 86.59375,92.8335938 86.59375,94.234375 L86.59375,109.197266 C86.59375,110.518457 87.6602539,111.584961 88.9814453,111.584961 L89.140625,111.584961 C97.5771484,111.584961 104.421875,118.429688 104.421875,126.866211 L104.421875,147.71875 C104.421875,156.155273 97.5771484,163 89.140625,163 L73.859375,163 C65.4228516,163 58.578125,156.155273 58.578125,147.71875 L58.578125,126.866211 C58.578125,118.429688 65.4228516,111.584961 73.859375,111.584961 L74.0185547,111.584961 C75.3397461,111.584961 76.40625,110.518457 76.40625,109.197266 L76.40625,94.234375 C76.40625,92.8335938 75.2601563,91.6875 73.859375,91.6875 L33.109375,91.6875 C30.2918945,91.6875 28.015625,93.9637695 28.015625,96.78125 L28.015625,109.038086 C28.015625,109.738477 28.3021484,110.375195 28.7637695,110.836816 C29.2253906,111.298437 29.8621094,111.584961 30.5625,111.584961 C38.9990234,111.584961 45.84375,118.429688 45.84375,126.866211 L45.84375,147.71875 C45.84375,156.155273 38.9990234,163 30.5625,163 L15.28125,163 C6.84472656,163 0,156.155273 0,147.71875 L0,126.866211 C0,122.647949 1.70322266,118.827637 4.47294922,116.05791 C7.24267578,113.288184 11.0629883,111.584961 15.28125,111.584961 C16.6820312,111.584961 17.828125,110.438867 17.828125,109.038086 L17.828125,96.78125 C17.828125,88.3447266 24.6728516,81.5 33.109375,81.5 L73.859375,81.5 C75.2601563,81.5 76.40625,80.3539063 76.40625,78.953125 L76.40625,63.671875 C76.40625,62.2710937 75.2601563,61.125 73.859375,61.125 L66.21875,61.125 C57.7822266,61.125 50.9375,54.2802734 50.9375,45.84375 L50.9375,15.28125 C50.9375,6.84472656 57.7822266,0 66.21875,0 L96.78125,0 C105.217773,0 112.0625,6.84472656 112.0625,15.28125 L112.0625,45.84375 C112.0625,54.2802734 105.217773,61.125 96.78125,61.125 L89.140625,61.125 C87.7398438,61.125 86.59375,62.2710937 86.59375,63.671875 L86.59375,78.953125 C86.59375,80.3539063 87.7398438,81.5 89.140625,81.5 L129.890625,81.5 C138.327148,81.5 145.171875,88.3447266 145.171875,96.78125 L145.171875,109.038086 C145.171875,110.438867 146.317969,111.584961 147.71875,111.584961 C156.155273,111.584961 163,118.429688 163,126.866211 Z"></path>
                    </g>
                </g>
            </g>
        </g>
    </g>
</svg>