<?xml version="1.0" encoding="UTF-8"?>
<svg width="101px" height="82px" viewBox="0 0 101 82" version="1.1" xmlns="http://www.w3.org/2000/svg" xmlns:xlink="http://www.w3.org/1999/xlink">
    <title>功能角色管理</title>
    <defs>
        <linearGradient x1="50%" y1="0%" x2="50%" y2="100%" id="linearGradient-1">
            <stop stop-color="#FFF5E2" offset="0%"></stop>
            <stop stop-color="#FFE0A0" offset="100%"></stop>
        </linearGradient>
    </defs>
    <g id="页面-1" stroke="none" stroke-width="1" fill="none" fill-rule="evenodd">
        <g id="云管理平台首页" transform="translate(-397.000000, -382.000000)" fill="url(#linearGradient-1)" fill-rule="nonzero">
            <g id="编组" transform="translate(290.000000, 218.000000)">
                <g id="功能角色管理" transform="translate(107.000000, 164.000000)">
                    <path d="M98.7814918,42.438553 C100.189714,43.7841804 100.927354,45.2643706 100.994412,46.8791235 C101.06147,48.4938765 100.525005,49.8395039 99.3850155,50.9160059 C98.11091,52.0597892 96.63563,52.5980402 94.9591754,52.5307588 C93.2827209,52.4634775 91.9415573,51.9925079 90.9356845,51.11785 C90.6003936,50.8487245 89.5777563,49.9067853 87.8677727,48.2920324 C86.1577891,46.6772794 84.1125145,44.74294 81.7319491,42.489014 C79.3513836,40.235088 76.8031727,37.8129586 74.0873163,35.2226257 C71.37146,32.6322929 68.8064845,30.1933432 66.39239,27.9057765 C63.9782954,25.6182098 61.8994918,23.6334093 60.155979,21.951375 C58.4124663,20.2693407 57.3060063,19.2264794 56.836599,18.8227912 C54.6907372,16.8716314 52.5784045,15.9296922 50.4996008,15.9969735 C48.4207972,16.0642549 46.3755227,17.0061941 44.3637772,18.8227912 C43.6931954,19.4283235 42.4358545,20.5889272 40.5917545,22.3046022 C38.7476545,24.0202772 36.6185572,26.0218981 34.2044626,28.3094647 C31.7903681,30.5970314 29.2421572,32.9855201 26.5598299,35.4749309 C23.8775026,37.9643417 21.3963499,40.285549 19.1163717,42.438553 C16.8363935,44.5915569 14.8749417,46.4249743 13.2320163,47.9388052 C11.5890908,49.452636 10.5999826,50.3441142 10.2646917,50.6132397 C9.25881897,51.4206162 7.91765533,51.8579451 6.24120079,51.9252265 C4.56474624,51.9925079 3.12299533,51.4878976 1.91594805,50.4113956 C0.574784416,49.2003309 -0.0622683118,47.736961 0.00478987014,46.021286 C0.071848052,44.305611 0.641842598,42.9431632 1.71477351,41.9339427 C2.1171226,41.5302544 3.35769897,40.3528304 5.4365026,38.4016706 C7.51530624,36.4505108 9.99645897,34.1293034 12.8799608,31.4380485 C15.7634626,28.7467936 18.8649035,25.8536946 22.1842835,22.7587515 C25.5036635,19.6638084 28.5883399,16.7707093 31.4383126,14.0794544 C34.2882854,11.3881995 36.735909,9.08381252 38.7811836,7.1662934 C40.8264581,5.24877429 42.0167408,4.1218113 42.3520317,3.78540443 C44.9002427,1.29599365 47.6496281,0.0344679163 50.6001881,0.00082722999 C53.5507481,-0.0328134563 56.0654299,0.959586789 58.1442336,2.97802796 C58.5465827,3.31443483 59.3848099,4.10499095 60.6589154,5.34969635 C61.9330209,6.59440174 63.4921236,8.10823262 65.3362236,9.89118899 C67.1803236,11.6741454 69.2423627,13.6757662 71.5223409,15.8960515 C73.8023191,18.1163368 76.1158263,20.3534424 78.4628627,22.6073684 C80.8098991,24.8612944 83.1066418,27.0984 85.3530909,29.3186853 C87.59954,31.5389706 89.6615791,33.5405914 91.5392082,35.3235478 C93.4168373,37.1065042 94.9927045,38.6371554 96.26681,39.9155015 L98.7814918,42.438553 Z M44.3637772,27.8048544 C46.0402317,26.2573829 48.0519772,25.433186 50.3990136,25.332264 C52.7460499,25.2313419 54.8583827,26.0555387 56.7360118,27.8048544 C56.9371863,28.0066985 57.5407099,28.5785902 58.5465827,29.5205294 L62.368899,33.0528015 C63.844179,34.4657103 65.503869,36.0468226 67.347969,37.7961382 C69.1920691,39.5454539 71.0864627,41.2947696 73.03115,43.0440853 C77.5240482,47.2155304 82.5534118,51.8915858 88.1192409,57.0722515 L88.1192409,76.2474426 C88.1192409,77.7276328 87.5660109,79.0396196 86.4595509,80.1834029 C85.3530909,81.3271863 83.8610463,81.9327186 81.9834172,82 L62.9724227,82 L62.9724227,66.3570809 C62.9724227,64.1367956 61.9330209,63.0266529 59.8542172,63.0266529 L40.6420481,63.0266529 C39.502059,63.0266529 38.7141254,63.3630598 38.2782472,64.0358735 C37.842369,64.7086873 37.6244299,65.482423 37.6244299,66.3570809 C37.6244299,66.7607691 37.6076654,67.7868101 37.5741363,69.4352037 C37.5406072,71.0835973 37.5238426,72.8497333 37.5238426,74.7336118 L37.5238426,82 L19.1163717,82 C17.1716844,82 15.6293463,81.5626711 14.4893572,80.6880132 C13.3493681,79.8133554 12.7793735,78.56865 12.7793735,76.9538971 L12.7793735,56.8704074 C18.2781444,51.8243044 23.273979,47.2491711 27.7668772,43.1450074 C29.6445063,41.3956917 31.5221354,39.6631963 33.3997645,37.9475213 C35.2773936,36.2318463 36.9873772,34.6675544 38.5297154,33.2546456 C40.0720536,31.8417368 41.3629236,30.6474924 42.4023254,29.6719125 C43.4417272,28.6963326 44.0955445,28.0739799 44.3637772,27.8048544 L44.3637772,27.8048544 Z" id="形状"></path>
                </g>
            </g>
        </g>
    </g>
</svg>