<?xml version="1.0" encoding="UTF-8"?>
<svg width="315px" height="467px" viewBox="0 0 315 467" version="1.1" xmlns="http://www.w3.org/2000/svg" xmlns:xlink="http://www.w3.org/1999/xlink">
    <title>用户管理</title>
    <defs>
        <rect id="path-1" x="0" y="0" width="315" height="467" rx="8"></rect>
    </defs>
    <g id="页面-1" stroke="none" stroke-width="1" fill="none" fill-rule="evenodd">
        <g id="云管理平台首页" transform="translate(-290.000000, -218.000000)">
            <g id="用户管理" transform="translate(290.000000, 218.000000)">
                <mask id="mask-2" fill="white">
                    <use xlink:href="#path-1"></use>
                </mask>
                <use id="蒙版" fill="#FCBB32" xlink:href="#path-1"></use>
                <g id="功能角色管理" mask="url(#mask-2)">
                    <g transform="translate(-43.000000, -24.000000)" id="首页-(2)">
                        <path d="M204.409226,87.9823659 C207.323269,90.7720813 208.849672,93.8407683 208.988436,97.1884269 C209.1272,100.536085 208.017089,103.325801 205.658101,105.557573 C203.021586,107.928831 199.968779,109.044717 196.49968,108.905232 C193.030581,108.765746 190.255302,107.789346 188.173842,105.976031 C187.480022,105.418087 185.363872,103.465287 181.825391,100.117628 C178.28691,96.7699695 174.054609,92.7597536 169.128489,88.0869802 C164.202368,83.4142068 158.929338,78.392719 153.309397,73.0225168 C147.689457,67.6523146 142.381735,62.5959553 137.386233,57.8534391 C132.39073,53.1109228 128.089047,48.9960925 124.481184,45.5089482 C120.873321,42.0218039 118.583716,39.8597744 117.612368,39.0228598 C113.171922,34.9777724 108.800857,33.0249716 104.499174,33.1644574 C100.197491,33.3039431 95.9651904,35.2567439 91.8022716,39.0228598 C90.414632,40.2782317 87.8128078,42.6843613 83.9967988,46.2412485 C80.1807899,49.7981357 75.7750342,53.9478374 70.7795316,58.6903537 C65.784029,63.43287 60.5109985,68.3846149 54.9604401,73.5455884 C49.4098817,78.706562 44.2756151,83.5188212 39.5576405,87.9823659 C34.8396658,92.4459106 30.78082,96.2468979 27.3811029,99.3853278 C23.9813859,102.523758 21.9346175,104.371944 21.2407977,104.929887 C19.1593383,106.603716 16.3840591,107.510374 12.91496,107.64986 C9.44586103,107.789346 6.46243588,106.743202 3.96468459,104.51143 C1.18940538,102.000686 -0.128852249,98.9668704 0.00991171147,95.4099833 C0.148675672,91.8530961 1.32816934,89.0285092 3.54839271,86.9362226 C4.38097647,86.099308 6.94810974,83.6583069 11.2497925,79.6132195 C15.5514753,75.5681321 20.6857418,70.755873 26.6525921,65.1764421 C32.6194424,59.5970112 39.0372756,53.599123 45.9060917,47.1827775 C52.7749077,40.7664319 59.1580499,34.7685437 65.0555182,29.1891128 C70.9529866,23.609682 76.0178711,18.8322943 80.2501719,14.8569497 C84.4824727,10.8816052 86.945533,8.54521854 87.6393528,7.84778968 C92.9123833,2.68681611 98.6017057,0.0714578752 104.70732,0.001714989 C110.812934,-0.0680278972 116.016583,1.98938724 120.318266,6.17396041 C121.150849,6.87138928 122.885399,8.5103471 125.521914,11.0908339 C128.158429,13.6713207 131.384691,16.8097506 135.2007,20.5061235 C139.016709,24.2024965 143.283701,28.3521982 148.001676,32.9552287 C152.71965,37.5582592 157.507007,42.1961611 162.363746,46.8689345 C167.220484,51.5417079 171.97315,56.1796098 176.621743,60.7826403 C181.270335,65.3856708 185.537327,69.5353725 189.422718,73.2317455 C193.308109,76.9281184 196.569062,80.1014197 199.205577,82.7516494 L204.409226,87.9823659 Z M91.8022716,57.6442104 C95.2713706,54.4360376 99.4342895,52.7273369 104.291028,52.5181083 C109.147767,52.3088796 113.518831,54.0175803 117.404222,57.6442104 C117.820514,58.0626677 119.06939,59.2482968 121.150849,61.2010976 L129.060395,68.5241006 C132.113202,71.4533019 135.54761,74.7312175 139.363619,78.3578476 C143.179628,81.9844777 147.09971,85.6111077 151.123865,89.2377378 C160.42105,97.8858557 170.828347,107.580117 182.345756,118.320521 L182.345756,158.073966 C182.345756,161.142653 181.200953,163.862626 178.911348,166.233884 C176.621743,168.605142 173.534244,169.860514 169.648854,170 L130.309271,170 L130.309271,137.569558 C130.309271,132.966527 128.158429,130.665012 123.856747,130.665012 L84.1008718,130.665012 C81.7418845,130.665012 80.111408,131.362441 79.2094422,132.757299 C78.3074765,134.152157 77.8564936,135.756243 77.8564936,137.569558 C77.8564936,138.406473 77.8218026,140.533631 77.7524206,143.951032 C77.6830386,147.368433 77.6483477,151.029935 77.6483477,154.935537 L77.6483477,170 L39.5576405,170 C35.5334856,170 32.3419145,169.093342 29.9829272,167.280027 C27.6239399,165.466712 26.4444462,162.886226 26.4444462,159.538567 L26.4444462,117.902064 C37.823091,107.440631 48.161006,97.9555986 57.4581914,89.4469665 C61.3435823,85.8203364 65.2289732,82.2285778 69.1143641,78.6716906 C72.999755,75.1148034 76.538236,71.8717592 79.7298071,68.942558 C82.9213782,66.0133567 85.5925844,63.5374843 87.7434258,61.5149406 C89.8942672,59.4923969 91.2472158,58.2021535 91.8022716,57.6442104 L91.8022716,57.6442104 Z" id="形状" fill="#FFB400" fill-rule="nonzero"></path>
                    </g>
                </g>
            </g>
        </g>
    </g>
</svg>